SplineFontDB: 3.0
FontName: Roboto-GMM-Medium
FullName: Roboto-GMM Medium
FamilyName: Roboto-GMM
Weight: Medium
Copyright: Copyright 2011 Google Inc. All Rights Reserved.
Version: 2.138
ItalicAngle: 0
UnderlinePosition: -200
UnderlineWidth: 100
Ascent: 1638
Descent: 410
InvalidEm: 0
sfntRevision: 0x00022354
LayerCount: 2
Layer: 0 1 "Back" 1
Layer: 1 1 "Fore" 0
XUID: [1021 847 435918304 32626]
StyleMap: 0x0040
FSType: 0
OS2Version: 4
OS2_WeightWidthSlopeOnly: 0
OS2_UseTypoMetrics: 0
CreationTime: 1221247774
ModificationTime: 1627508544
PfmFamily: 17
TTFWeight: 500
TTFWidth: 5
LineGap: 0
VLineGap: 0
Panose: 2 0 0 0 0 0 0 0 0 0
OS2TypoAscent: 2146
OS2TypoAOffset: 0
OS2TypoDescent: -555
OS2TypoDOffset: 0
OS2TypoLinegap: 0
OS2WinAscent: 2146
OS2WinAOffset: 0
OS2WinDescent: 555
OS2WinDOffset: 0
HheadAscent: 1900
HheadAOffset: 0
HheadDescent: -500
HheadDOffset: 0
OS2SubXSize: 1434
OS2SubYSize: 1331
OS2SubXOff: 0
OS2SubYOff: 287
OS2SupXSize: 1434
OS2SupYSize: 1331
OS2SupXOff: 0
OS2SupYOff: 977
OS2StrikeYSize: 102
OS2StrikeYPos: 512
OS2CapHeight: 1456
OS2XHeight: 1082
OS2Vendor: 'GOOG'
OS2CodePages: 2000019f.00000000
OS2UnicodeRanges: e0000aff.5000217f.00000021.00000000
Lookup: 1 0 0 "'c2sc' Capitals to Small Capitals lookup 0" { "'c2sc' Capitals to Small Capitals lookup 0 subtable"  } ['c2sc' ('DFLT' <'dflt' > 'cyrl' <'dflt' > 'grek' <'dflt' > 'latn' <'AZE ' 'CRT ' 'FRA ' 'MOL ' 'NAV ' 'ROM ' 'TRK ' 'dflt' > ) ]
Lookup: 1 0 0 "'smcp' Lowercase to Small Capitals lookup 1" { "'smcp' Lowercase to Small Capitals lookup 1 subtable"  } ['smcp' ('DFLT' <'dflt' > 'cyrl' <'dflt' > 'grek' <'dflt' > 'latn' <'AZE ' 'CRT ' 'FRA ' 'MOL ' 'NAV ' 'ROM ' 'TRK ' 'dflt' > ) ]
Lookup: 1 0 0 "'unic' Unicase lookup 2" { "'unic' Unicase lookup 2 subtable"  } ['unic' ('DFLT' <'dflt' > 'cyrl' <'dflt' > 'grek' <'dflt' > 'latn' <'AZE ' 'CRT ' 'FRA ' 'MOL ' 'NAV ' 'ROM ' 'TRK ' 'dflt' > ) ]

StartChar: .notdef
Encoding: 1114112 -1 0
Width: 908
Flags: W
LayerCount: 2
Fore
SplineSet
100 0 m 1,0,-1
 100 1456 l 1,1,-1
 808 1456 l 1,2,-1
 808 0 l 1,3,-1
 100 0 l 1,0,-1
194 1402 m 1,4,-1
 452 796 l 1,5,-1
 709 1402 l 1,6,-1
 194 1402 l 1,4,-1
480 728 m 1,7,-1
 754 84 l 1,8,-1
 754 1372 l 1,9,-1
 480 728 l 1,7,-1
154 1360 m 1,10,-1
 154 96 l 1,11,-1
 422 728 l 1,12,-1
 154 1360 l 1,10,-1
194 54 m 1,13,-1
 709 54 l 1,14,-1
 452 660 l 1,15,-1
 194 54 l 1,13,-1
EndSplineSet
EndChar

StartChar: exclam
Encoding: 33 33 6
Width: 549
Flags: W
LayerCount: 2
Fore
SplineSet
407 1456 m 1,0,-1
 383 429 l 1,1,-1
 174 429 l 1,2,-1
 150 1456 l 1,3,-1
 407 1456 l 1,0,-1
144 116 m 0,4,5
 144 172 144 172 180 209.5 c 128,-1,6
 216 247 216 247 281 247 c 256,7,8
 346 247 346 247 382.5 209.5 c 128,-1,9
 419 172 419 172 419 116 c 0,10,11
 419 61 419 61 382.5 23.5 c 128,-1,12
 346 -14 346 -14 281 -14 c 256,13,14
 216 -14 216 -14 180 23.5 c 128,-1,15
 144 61 144 61 144 116 c 0,4,5
EndSplineSet
EndChar

StartChar: quotedbl
Encoding: 34 34 7
Width: 664
Flags: W
LayerCount: 2
Fore
SplineSet
276 1400 m 1,0,-1
 240 1013 l 1,1,-1
 101 1013 l 1,2,-1
 101 1536 l 1,3,-1
 276 1536 l 1,4,-1
 276 1400 l 1,0,-1
577 1400 m 1,5,-1
 541 1013 l 1,6,-1
 402 1013 l 1,7,-1
 402 1536 l 1,8,-1
 577 1536 l 1,9,-1
 577 1400 l 1,5,-1
EndSplineSet
EndChar

StartChar: numbersign
Encoding: 35 35 8
Width: 1250
Flags: W
LayerCount: 2
Fore
SplineSet
644 0 m 1,0,-1
 720 410 l 1,1,-1
 496 410 l 1,2,-1
 419 0 l 1,3,-1
 252 0 l 1,4,-1
 329 410 l 1,5,-1
 97 410 l 1,6,-1
 97 568 l 1,7,-1
 358 568 l 1,8,-1
 417 881 l 1,9,-1
 173 881 l 1,10,-1
 173 1040 l 1,11,-1
 446 1040 l 1,12,-1
 524 1456 l 1,13,-1
 691 1456 l 1,14,-1
 613 1040 l 1,15,-1
 838 1040 l 1,16,-1
 915 1456 l 1,17,-1
 1083 1456 l 1,18,-1
 1005 1040 l 1,19,-1
 1213 1040 l 1,20,-1
 1213 881 l 1,21,-1
 976 881 l 1,22,-1
 917 568 l 1,23,-1
 1138 568 l 1,24,-1
 1138 410 l 1,25,-1
 888 410 l 1,26,-1
 811 0 l 1,27,-1
 644 0 l 1,0,-1
525 568 m 1,28,-1
 750 568 l 1,29,-1
 808 881 l 1,30,-1
 584 881 l 1,31,-1
 525 568 l 1,28,-1
EndSplineSet
EndChar

StartChar: dollar
Encoding: 36 36 9
Width: 1164
Flags: W
LayerCount: 2
Fore
SplineSet
1062 383 m 0,0,1
 1062 208 1062 208 956 105.5 c 128,-1,2
 850 3 850 3 671 -17 c 1,3,-1
 671 -212 l 1,4,-1
 512 -212 l 1,5,-1
 512 -17 l 1,6,7
 353 0 353 0 227 105 c 128,-1,8
 101 210 101 210 101 444 c 1,9,-1
 344 444 l 1,10,11
 344 290 344 290 421 234.5 c 128,-1,12
 498 179 498 179 587 179 c 0,13,14
 700 179 700 179 759.5 234.5 c 128,-1,15
 819 290 819 290 819 381 c 0,16,17
 819 465 819 465 764.5 521.5 c 128,-1,18
 710 578 710 578 578 624 c 0,19,20
 385 689 385 689 271 788 c 128,-1,21
 157 887 157 887 157 1074 c 0,22,23
 157 1243 157 1243 259 1348.5 c 128,-1,24
 361 1454 361 1454 532 1473 c 1,25,-1
 532 1692 l 1,26,-1
 691 1692 l 1,27,-1
 691 1471 l 1,28,29
 861 1447 861 1447 958 1327 c 128,-1,30
 1055 1207 1055 1207 1055 1005 c 1,31,-1
 813 1005 l 1,32,33
 813 1131 813 1131 758 1204 c 128,-1,34
 703 1277 703 1277 604 1277 c 0,35,36
 498 1277 498 1277 449 1220.5 c 128,-1,37
 400 1164 400 1164 400 1075 c 0,38,39
 400 990 400 990 453 936.5 c 128,-1,40
 506 883 506 883 645 833 c 0,41,42
 838 763 838 763 950 665.5 c 128,-1,43
 1062 568 1062 568 1062 383 c 0,0,1
EndSplineSet
Substitution2: "'c2sc' Capitals to Small Capitals lookup 0 subtable" dollar.smcp
Position2: "'cpsp' Capital Spacing lookup 0 subtable" dx=36 dy=0 dh=72 dv=0
EndChar

StartChar: percent
Encoding: 37 37 10
Width: 1504
Flags: W
LayerCount: 2
Fore
SplineSet
100 1099 m 2,0,-1
 100 1176 l 2,1,2
 100 1300 100 1300 180.5 1388.5 c 128,-1,3
 261 1477 261 1477 408 1477 c 0,4,5
 557 1477 557 1477 637 1388.5 c 128,-1,6
 717 1300 717 1300 717 1176 c 2,7,-1
 717 1099 l 2,8,9
 717 977 717 977 637.5 888.5 c 128,-1,10
 558 800 558 800 410 800 c 256,11,12
 262 800 262 800 181 888.5 c 128,-1,13
 100 977 100 977 100 1099 c 2,0,-1
269 1176 m 2,14,-1
 269 1099 l 2,15,16
 269 1040 269 1040 304 993 c 128,-1,17
 339 946 339 946 410 946 c 0,18,19
 480 946 480 946 513.5 992.5 c 128,-1,20
 547 1039 547 1039 547 1099 c 2,21,-1
 547 1176 l 2,22,23
 547 1237 547 1237 512.5 1284 c 128,-1,24
 478 1331 478 1331 408 1331 c 256,25,26
 338 1331 338 1331 303.5 1284 c 128,-1,27
 269 1237 269 1237 269 1176 c 2,14,-1
1170 1247 m 1,28,-1
 459 109 l 1,29,-1
 334 182 l 1,30,-1
 1045 1320 l 1,31,-1
 1170 1247 l 1,28,-1
800 279 m 2,32,-1
 800 357 l 2,33,34
 800 480 800 480 881 568.5 c 128,-1,35
 962 657 962 657 1108 657 c 0,36,37
 1257 657 1257 657 1337 568.5 c 128,-1,38
 1417 480 1417 480 1417 357 c 2,39,-1
 1417 279 l 2,40,41
 1417 156 1417 156 1337.5 67.5 c 128,-1,42
 1258 -21 1258 -21 1110 -21 c 256,43,44
 962 -21 962 -21 881 67.5 c 128,-1,45
 800 156 800 156 800 279 c 2,32,-1
969 357 m 2,46,-1
 969 279 l 2,47,48
 969 219 969 219 1005.5 172 c 128,-1,49
 1042 125 1042 125 1110 125 c 0,50,51
 1185 125 1185 125 1216.5 172 c 128,-1,52
 1248 219 1248 219 1248 279 c 2,53,-1
 1248 357 l 2,54,55
 1248 417 1248 417 1213.5 464 c 128,-1,56
 1179 511 1179 511 1108 511 c 0,57,58
 1038 511 1038 511 1003.5 464 c 128,-1,59
 969 417 969 417 969 357 c 2,46,-1
EndSplineSet
EndChar

StartChar: ampersand
Encoding: 38 38 11
Width: 1309
Flags: W
LayerCount: 2
Fore
SplineSet
1015 0 m 1,0,-1
 933 97 l 1,1,2
 854 38 854 38 758.5 9 c 128,-1,3
 663 -20 663 -20 562 -20 c 0,4,5
 342 -20 342 -20 214 96.5 c 128,-1,6
 86 213 86 213 86 394 c 0,7,8
 86 522 86 522 162 608.5 c 128,-1,9
 238 695 238 695 358 780 c 1,10,11
 289 867 289 867 248 945 c 128,-1,12
 207 1023 207 1023 207 1107 c 0,13,14
 207 1280 207 1280 312 1378 c 128,-1,15
 417 1476 417 1476 590 1476 c 0,16,17
 756 1476 756 1476 854.5 1379 c 128,-1,18
 953 1282 953 1282 953 1152 c 0,19,20
 953 1048 953 1048 898.5 972 c 128,-1,21
 844 896 844 896 756 832 c 2,22,-1
 657 760 l 1,23,-1
 937 427 l 1,24,25
 998 548 998 548 998 694 c 1,26,-1
 1209 694 l 1,27,28
 1209 567 1209 567 1179.5 455 c 128,-1,29
 1150 343 1150 343 1083 254 c 1,30,-1
 1297 0 l 1,31,-1
 1015 0 l 1,0,-1
435 1112 m 0,32,33
 435 1063 435 1063 463 1011.5 c 128,-1,34
 491 960 491 960 538 902 c 1,35,-1
 625 961 l 2,36,37
 688 1002 688 1002 715 1042 c 128,-1,38
 742 1082 742 1082 742 1143 c 0,39,40
 742 1195 742 1195 702 1238 c 128,-1,41
 662 1281 662 1281 589 1281 c 0,42,43
 512 1281 512 1281 473.5 1231 c 128,-1,44
 435 1181 435 1181 435 1112 c 0,32,33
329 402 m 0,45,46
 329 306 329 306 391 240.5 c 128,-1,47
 453 175 453 175 569 175 c 0,48,49
 691 175 691 175 798 257 c 1,50,-1
 481 632 l 1,51,-1
 450 610 l 1,52,53
 369 547 369 547 349 491.5 c 128,-1,54
 329 436 329 436 329 402 c 0,45,46
EndSplineSet
Substitution2: "'smcp' Lowercase to Small Capitals lookup 1 subtable" ampersand.smcp
Substitution2: "'c2sc' Capitals to Small Capitals lookup 0 subtable" ampersand.smcp
Position2: "'cpsp' Capital Spacing lookup 0 subtable" dx=36 dy=0 dh=72 dv=0
EndChar

StartChar: quotesingle
Encoding: 39 39 12
Width: 346
Flags: W
LayerCount: 2
Fore
SplineSet
267 1411 m 1,0,-1
 242 1020 l 1,1,-1
 83 1020 l 1,2,-1
 83 1536 l 1,3,-1
 267 1536 l 1,4,-1
 267 1411 l 1,0,-1
EndSplineSet
EndChar

StartChar: parenleft
Encoding: 40 40 13
Width: 715
Flags: W
LayerCount: 2
Fore
SplineSet
129 576 m 2,0,-1
 129 592 l 2,1,2
 129 881 129 881 211 1095.5 c 128,-1,3
 293 1310 293 1310 408.5 1445 c 128,-1,4
 524 1580 524 1580 627 1631 c 1,5,-1
 675 1489 l 1,6,7
 562 1403 562 1403 456 1186.5 c 128,-1,8
 350 970 350 970 350 594 c 2,9,-1
 350 574 l 2,10,11
 350 198 350 198 456 -19.5 c 128,-1,12
 562 -237 562 -237 675 -328 c 1,13,-1
 627 -463 l 1,14,15
 524 -412 524 -412 408.5 -277 c 128,-1,16
 293 -142 293 -142 211 72.5 c 128,-1,17
 129 287 129 287 129 576 c 2,0,-1
EndSplineSet
EndChar

StartChar: parenright
Encoding: 41 41 14
Width: 723
Flags: W
LayerCount: 2
Fore
SplineSet
594 592 m 2,0,-1
 594 576 l 2,1,2
 594 292 594 292 511 77 c 128,-1,3
 428 -138 428 -138 310 -275 c 128,-1,4
 192 -412 192 -412 88 -463 c 1,5,-1
 40 -328 l 1,6,7
 153 -242 153 -242 259 -22 c 128,-1,8
 365 198 365 198 365 574 c 2,9,-1
 365 594 l 2,10,11
 365 844 365 844 313 1025 c 128,-1,12
 261 1206 261 1206 185.5 1322.5 c 128,-1,13
 110 1439 110 1439 40 1496 c 1,14,-1
 88 1631 l 1,15,16
 192 1580 192 1580 310 1443 c 128,-1,17
 428 1306 428 1306 511 1091 c 128,-1,18
 594 876 594 876 594 592 c 2,0,-1
EndSplineSet
EndChar

StartChar: asterisk
Encoding: 42 42 15
Width: 906
Flags: W
LayerCount: 2
Fore
SplineSet
126 700 m 1,0,-1
 332 972 l 1,1,-1
 28 1060 l 1,2,-1
 82 1230 l 1,3,-1
 385 1112 l 1,4,-1
 370 1457 l 1,5,-1
 549 1457 l 1,6,-1
 534 1106 l 1,7,-1
 831 1221 l 1,8,-1
 885 1050 l 1,9,-1
 575 962 l 1,10,-1
 775 695 l 1,11,-1
 630 590 l 1,12,-1
 449 878 l 1,13,-1
 272 598 l 1,14,-1
 126 700 l 1,0,-1
EndSplineSet
EndChar

StartChar: plus
Encoding: 43 43 16
Width: 1142
Flags: W
LayerCount: 2
Fore
SplineSet
1067 580 m 1,0,-1
 686 580 l 1,1,-1
 686 146 l 1,2,-1
 451 146 l 1,3,-1
 451 580 l 1,4,-1
 69 580 l 1,5,-1
 69 801 l 1,6,-1
 451 801 l 1,7,-1
 451 1206 l 1,8,-1
 686 1206 l 1,9,-1
 686 801 l 1,10,-1
 1067 801 l 1,11,-1
 1067 580 l 1,0,-1
EndSplineSet
EndChar

StartChar: comma
Encoding: 44 44 17
Width: 451
Flags: W
LayerCount: 2
Fore
SplineSet
349 235 m 1,0,-1
 349 63 l 2,1,2
 349 -39 349 -39 297.5 -148 c 128,-1,3
 246 -257 246 -257 160 -328 c 1,4,-1
 29 -251 l 1,5,6
 71 -184 71 -184 101 -112 c 128,-1,7
 131 -40 131 -40 131 54 c 2,8,-1
 131 235 l 1,9,-1
 349 235 l 1,0,-1
EndSplineSet
EndChar

StartChar: hyphen
Encoding: 45 45 18
Width: 673
Flags: W
LayerCount: 2
Fore
SplineSet
596 717 m 1,0,-1
 596 522 l 1,1,-1
 71 522 l 1,2,-1
 71 717 l 1,3,-1
 596 717 l 1,0,-1
EndSplineSet
EndChar

StartChar: period
Encoding: 46 46 19
Width: 572
Flags: W
LayerCount: 2
Fore
SplineSet
136 122 m 256,0,1
 136 179 136 179 173 218 c 128,-1,2
 210 257 210 257 277 257 c 256,3,4
 344 257 344 257 381.5 218 c 128,-1,5
 419 179 419 179 419 122 c 256,6,7
 419 65 419 65 381.5 26.5 c 128,-1,8
 344 -12 344 -12 277 -12 c 256,9,10
 210 -12 210 -12 173 26.5 c 128,-1,11
 136 65 136 65 136 122 c 256,0,1
EndSplineSet
EndChar

StartChar: slash
Encoding: 47 47 20
Width: 811
Flags: W
LayerCount: 2
Fore
SplineSet
767 1456 m 1,0,-1
 194 -125 l 1,1,-1
 2 -125 l 1,2,-1
 576 1456 l 1,3,-1
 767 1456 l 1,0,-1
EndSplineSet
Substitution2: "'frac' Diagonal Fractions lookup 31 subtable" fraction
EndChar

StartChar: zero
Encoding: 48 48 21
Width: 1164
Flags: W
LayerCount: 2
Fore
SplineSet
1058 849 m 2,0,-1
 1058 614 l 2,1,2
 1058 268 1058 268 928.5 124 c 128,-1,3
 799 -20 799 -20 583 -20 c 0,4,5
 369 -20 369 -20 237 124 c 128,-1,6
 105 268 105 268 105 614 c 2,7,-1
 105 849 l 2,8,9
 105 1196 105 1196 236 1336 c 128,-1,10
 367 1476 367 1476 581 1476 c 0,11,12
 797 1476 797 1476 927.5 1336 c 128,-1,13
 1058 1196 1058 1196 1058 849 c 2,0,-1
816 579 m 2,14,-1
 816 886 l 2,15,16
 816 1106 816 1106 755 1193.5 c 128,-1,17
 694 1281 694 1281 581 1281 c 0,18,19
 470 1281 470 1281 409 1193.5 c 128,-1,20
 348 1106 348 1106 348 886 c 2,21,-1
 348 579 l 2,22,23
 348 358 348 358 409.5 266.5 c 128,-1,24
 471 175 471 175 583 175 c 0,25,26
 696 175 696 175 756 266.5 c 128,-1,27
 816 358 816 358 816 579 c 2,14,-1
EndSplineSet
Substitution2: "'numr' Numerators lookup 34 subtable" zero.frac
Substitution2: "'dnom' Denominators lookup 33 subtable" zero.sup
Substitution2: "'pnum' Proportional Numbers lookup 28 subtable" zero.pnum
Substitution2: "'onum' Oldstyle Figures lookup 27 subtable" zero.tnum
Substitution2: "'c2sc' Capitals to Small Capitals lookup 0 subtable" zero.smcp
Position2: "'cpsp' Capital Spacing lookup 0 subtable" dx=36 dy=0 dh=72 dv=0
EndChar

StartChar: one
Encoding: 49 49 22
Width: 1164
Flags: W
LayerCount: 2
Fore
SplineSet
768 1461 m 1,0,-1
 768 0 l 1,1,-1
 525 0 l 1,2,-1
 525 1170 l 1,3,-1
 168 1048 l 1,4,-1
 168 1253 l 1,5,-1
 737 1461 l 1,6,-1
 768 1461 l 1,0,-1
EndSplineSet
Substitution2: "'numr' Numerators lookup 34 subtable" onesuperior
Substitution2: "'dnom' Denominators lookup 33 subtable" one.sup
Substitution2: "'pnum' Proportional Numbers lookup 28 subtable" one.pnum
Substitution2: "'onum' Oldstyle Figures lookup 27 subtable" one.tnum
Substitution2: "'c2sc' Capitals to Small Capitals lookup 0 subtable" one.smcp
Position2: "'cpsp' Capital Spacing lookup 0 subtable" dx=36 dy=0 dh=72 dv=0
EndChar

StartChar: two
Encoding: 50 50 23
Width: 1164
Flags: W
LayerCount: 2
Fore
SplineSet
1089 195 m 1,0,-1
 1089 0 l 1,1,-1
 109 0 l 1,2,-1
 109 168 l 1,3,-1
 583 684 l 2,4,5
 703 817 703 817 746 896.5 c 128,-1,6
 789 976 789 976 789 1050 c 0,7,8
 789 1150 789 1150 732.5 1215.5 c 128,-1,9
 676 1281 676 1281 572 1281 c 0,10,11
 448 1281 448 1281 386 1205.5 c 128,-1,12
 324 1130 324 1130 324 1013 c 1,13,-1
 81 1013 l 1,14,15
 81 1204 81 1204 210 1340 c 128,-1,16
 339 1476 339 1476 575 1476 c 0,17,18
 793 1476 793 1476 912.5 1367 c 128,-1,19
 1032 1258 1032 1258 1032 1076 c 0,20,21
 1032 940 1032 940 948.5 809 c 128,-1,22
 865 678 865 678 737 543 c 2,23,-1
 412 195 l 1,24,-1
 1089 195 l 1,0,-1
EndSplineSet
Substitution2: "'numr' Numerators lookup 34 subtable" twosuperior
Substitution2: "'dnom' Denominators lookup 33 subtable" two.sup
Substitution2: "'pnum' Proportional Numbers lookup 28 subtable" two.pnum
Substitution2: "'onum' Oldstyle Figures lookup 27 subtable" two.tnum
Substitution2: "'c2sc' Capitals to Small Capitals lookup 0 subtable" two.smcp
Position2: "'cpsp' Capital Spacing lookup 0 subtable" dx=36 dy=0 dh=72 dv=0
EndChar

StartChar: three
Encoding: 51 51 24
Width: 1164
Flags: W
LayerCount: 2
Fore
SplineSet
534 647 m 2,0,-1
 391 647 l 1,1,-1
 391 839 l 1,2,-1
 534 839 l 2,3,4
 659 839 659 839 720.5 901.5 c 128,-1,5
 782 964 782 964 782 1062 c 0,6,7
 782 1281 782 1281 561 1281 c 0,8,9
 464 1281 464 1281 400 1226 c 128,-1,10
 336 1171 336 1171 336 1077 c 1,11,-1
 94 1077 l 1,12,13
 94 1250 94 1250 224.5 1363 c 128,-1,14
 355 1476 355 1476 557 1476 c 0,15,16
 766 1476 766 1476 895 1371.5 c 128,-1,17
 1024 1267 1024 1267 1024 1062 c 0,18,19
 1024 976 1024 976 968.5 887.5 c 128,-1,20
 913 799 913 799 800 748 c 1,21,22
 934 703 934 703 990 609.5 c 128,-1,23
 1046 516 1046 516 1046 408 c 0,24,25
 1046 203 1046 203 906 91.5 c 128,-1,26
 766 -20 766 -20 557 -20 c 0,27,28
 368 -20 368 -20 224 84 c 128,-1,29
 80 188 80 188 80 391 c 1,30,-1
 323 391 l 1,31,32
 323 295 323 295 388 235 c 128,-1,33
 453 175 453 175 561 175 c 0,34,35
 674 175 674 175 738.5 235.5 c 128,-1,36
 803 296 803 296 803 408 c 0,37,38
 803 532 803 532 730.5 589.5 c 128,-1,39
 658 647 658 647 534 647 c 2,0,-1
EndSplineSet
Substitution2: "'numr' Numerators lookup 34 subtable" threesuperior
Substitution2: "'dnom' Denominators lookup 33 subtable" three.sup
Substitution2: "'pnum' Proportional Numbers lookup 28 subtable" three.pnum
Substitution2: "'onum' Oldstyle Figures lookup 27 subtable" three.tnum
Substitution2: "'c2sc' Capitals to Small Capitals lookup 0 subtable" three.smcp
Position2: "'cpsp' Capital Spacing lookup 0 subtable" dx=36 dy=0 dh=72 dv=0
EndChar

StartChar: four
Encoding: 52 52 25
Width: 1164
Flags: W
LayerCount: 2
Fore
SplineSet
53 472 m 1,0,-1
 681 1456 l 1,1,-1
 931 1456 l 1,2,-1
 931 520 l 1,3,-1
 1113 520 l 1,4,-1
 1113 325 l 1,5,-1
 931 325 l 1,6,-1
 931 0 l 1,7,-1
 688 0 l 1,8,-1
 688 325 l 1,9,-1
 59 325 l 1,10,-1
 53 472 l 1,0,-1
307 520 m 1,11,-1
 688 520 l 1,12,-1
 688 1125 l 1,13,-1
 671 1095 l 1,14,-1
 307 520 l 1,11,-1
EndSplineSet
Substitution2: "'numr' Numerators lookup 34 subtable" four.frac
Substitution2: "'dnom' Denominators lookup 33 subtable" four.sup
Substitution2: "'pnum' Proportional Numbers lookup 28 subtable" four.pnum
Substitution2: "'onum' Oldstyle Figures lookup 27 subtable" four.tnum
Substitution2: "'c2sc' Capitals to Small Capitals lookup 0 subtable" four.smcp
Position2: "'cpsp' Capital Spacing lookup 0 subtable" dx=36 dy=0 dh=72 dv=0
EndChar

StartChar: five
Encoding: 53 53 26
Width: 1164
Flags: W
LayerCount: 2
Fore
SplineSet
368 674 m 1,0,-1
 175 722 l 1,1,-1
 253 1456 l 1,2,-1
 1035 1456 l 1,3,-1
 1035 1247 l 1,4,-1
 455 1247 l 1,5,-1
 416 899 l 1,6,7
 450 918 450 918 509 937 c 128,-1,8
 568 956 568 956 643 956 c 0,9,10
 850 956 850 956 966 824.5 c 128,-1,11
 1082 693 1082 693 1082 466 c 0,12,13
 1082 264 1082 264 964 122 c 128,-1,14
 846 -20 846 -20 603 -20 c 0,15,16
 421 -20 421 -20 281.5 85.5 c 128,-1,17
 142 191 142 191 129 394 c 1,18,-1
 365 394 l 1,19,20
 393 175 393 175 603 175 c 0,21,22
 721 175 721 175 780.5 258.5 c 128,-1,23
 840 342 840 342 840 473 c 0,24,25
 840 598 840 598 774 679 c 128,-1,26
 708 760 708 760 581 760 c 0,27,28
 496 760 496 760 452 735.5 c 128,-1,29
 408 711 408 711 368 674 c 1,0,-1
EndSplineSet
Substitution2: "'numr' Numerators lookup 34 subtable" five.frac
Substitution2: "'dnom' Denominators lookup 33 subtable" five.sup
Substitution2: "'pnum' Proportional Numbers lookup 28 subtable" five.pnum
Substitution2: "'onum' Oldstyle Figures lookup 27 subtable" five.tnum
Substitution2: "'c2sc' Capitals to Small Capitals lookup 0 subtable" five.smcp
Position2: "'cpsp' Capital Spacing lookup 0 subtable" dx=36 dy=0 dh=72 dv=0
EndChar

StartChar: six
Encoding: 54 54 27
Width: 1164
Flags: W
LayerCount: 2
Fore
SplineSet
1079 477 m 0,0,1
 1079 268 1079 268 955.5 124 c 128,-1,2
 832 -20 832 -20 607 -20 c 0,3,4
 449 -20 449 -20 340 59.5 c 128,-1,5
 231 139 231 139 174.5 269.5 c 128,-1,6
 118 400 118 400 118 551 c 2,7,-1
 118 646 l 2,8,9
 118 862 118 862 188 1048 c 128,-1,10
 258 1234 258 1234 416 1348.5 c 128,-1,11
 574 1463 574 1463 837 1463 c 2,12,-1
 865 1463 l 1,13,-1
 865 1263 l 1,14,-1
 848 1263 l 2,15,16
 611 1263 611 1263 498 1140 c 128,-1,17
 385 1017 385 1017 366 843 c 1,18,19
 480 964 480 964 664 964 c 0,20,21
 877 964 877 964 978 815.5 c 128,-1,22
 1079 667 1079 667 1079 477 c 0,0,1
361 530 m 2,23,24
 361 355 361 355 433 265.5 c 128,-1,25
 505 176 505 176 604 176 c 0,26,27
 714 176 714 176 776.5 259 c 128,-1,28
 839 342 839 342 839 471 c 0,29,30
 839 592 839 592 779.5 680.5 c 128,-1,31
 720 769 720 769 605 769 c 0,32,33
 520 769 520 769 454.5 721 c 128,-1,34
 389 673 389 673 361 605 c 1,35,-1
 361 530 l 2,23,24
EndSplineSet
Substitution2: "'numr' Numerators lookup 34 subtable" six.frac
Substitution2: "'dnom' Denominators lookup 33 subtable" six.sup
Substitution2: "'lnum' Lining Figures lookup 30 subtable" six.pnum
Substitution2: "'tnum' Tabular Numbers lookup 29 subtable" six.tnum
Substitution2: "'pnum' Proportional Numbers lookup 28 subtable" six.pnum
Substitution2: "'onum' Oldstyle Figures lookup 27 subtable" six.tnum
Substitution2: "'c2sc' Capitals to Small Capitals lookup 0 subtable" six.smcp
Position2: "'cpsp' Capital Spacing lookup 0 subtable" dx=36 dy=0 dh=72 dv=0
EndChar

StartChar: seven
Encoding: 55 55 28
Width: 1164
Flags: W
LayerCount: 2
Fore
SplineSet
1079 1456 m 1,0,-1
 1079 1322 l 1,1,-1
 497 0 l 1,2,-1
 241 0 l 1,3,-1
 823 1261 l 1,4,-1
 70 1261 l 1,5,-1
 70 1456 l 1,6,-1
 1079 1456 l 1,0,-1
EndSplineSet
Substitution2: "'numr' Numerators lookup 34 subtable" seven.frac
Substitution2: "'dnom' Denominators lookup 33 subtable" seven.sup
Substitution2: "'pnum' Proportional Numbers lookup 28 subtable" seven.pnum
Substitution2: "'onum' Oldstyle Figures lookup 27 subtable" seven.tnum
Substitution2: "'c2sc' Capitals to Small Capitals lookup 0 subtable" seven.smcp
Position2: "'cpsp' Capital Spacing lookup 0 subtable" dx=36 dy=0 dh=72 dv=0
EndChar

StartChar: eight
Encoding: 56 56 29
Width: 1164
Flags: W
LayerCount: 2
Fore
SplineSet
1058 397 m 0,0,1
 1058 194 1058 194 921.5 87 c 128,-1,2
 785 -20 785 -20 582 -20 c 256,3,4
 379 -20 379 -20 241.5 87.5 c 128,-1,5
 104 195 104 195 104 397 c 0,6,7
 104 518 104 518 167.5 610 c 128,-1,8
 231 702 231 702 339 751 c 1,9,10
 245 799 245 799 190.5 883 c 128,-1,11
 136 967 136 967 136 1073 c 0,12,13
 136 1266 136 1266 261.5 1371 c 128,-1,14
 387 1476 387 1476 581 1476 c 256,15,16
 775 1476 775 1476 900.5 1371 c 128,-1,17
 1026 1266 1026 1266 1026 1073 c 0,18,19
 1026 967 1026 967 971 883 c 128,-1,20
 916 799 916 799 822 751 c 1,21,22
 930 701 930 701 994 609.5 c 128,-1,23
 1058 518 1058 518 1058 397 c 0,0,1
783 1064 m 0,24,25
 783 1160 783 1160 728.5 1220.5 c 128,-1,26
 674 1281 674 1281 581 1281 c 0,27,28
 489 1281 489 1281 434 1222.5 c 128,-1,29
 379 1164 379 1164 379 1064 c 0,30,31
 379 966 379 966 433.5 906 c 128,-1,32
 488 846 488 846 582 846 c 0,33,34
 675 846 675 846 729 906 c 128,-1,35
 783 966 783 966 783 1064 c 0,24,25
815 410 m 0,36,37
 815 518 815 518 750.5 584.5 c 128,-1,38
 686 651 686 651 580 651 c 0,39,40
 473 651 473 651 410 584.5 c 128,-1,41
 347 518 347 518 347 410 c 0,42,43
 347 300 347 300 410 237.5 c 128,-1,44
 473 175 473 175 582 175 c 256,45,46
 691 175 691 175 753 237.5 c 128,-1,47
 815 300 815 300 815 410 c 0,36,37
EndSplineSet
Substitution2: "'numr' Numerators lookup 34 subtable" eight.frac
Substitution2: "'dnom' Denominators lookup 33 subtable" eight.sup
Substitution2: "'lnum' Lining Figures lookup 30 subtable" eight.pnum
Substitution2: "'tnum' Tabular Numbers lookup 29 subtable" eight.tnum
Substitution2: "'pnum' Proportional Numbers lookup 28 subtable" eight.pnum
Substitution2: "'onum' Oldstyle Figures lookup 27 subtable" eight.tnum
Substitution2: "'c2sc' Capitals to Small Capitals lookup 0 subtable" eight.smcp
Position2: "'cpsp' Capital Spacing lookup 0 subtable" dx=36 dy=0 dh=72 dv=0
EndChar

StartChar: nine
Encoding: 57 57 30
Width: 1164
Flags: W
LayerCount: 2
Fore
SplineSet
1043 805 m 2,0,1
 1043 595 1043 595 980.5 409.5 c 128,-1,2
 918 224 918 224 762 108.5 c 128,-1,3
 606 -7 606 -7 325 -7 c 2,4,-1
 305 -7 l 1,5,-1
 305 195 l 1,6,-1
 323 195 l 2,7,8
 584 195 584 195 685.5 314 c 128,-1,9
 787 433 787 433 799 610 c 1,10,11
 744 552 744 552 671 516.5 c 128,-1,12
 598 481 598 481 513 481 c 0,13,14
 301 481 301 481 197.5 628.5 c 128,-1,15
 94 776 94 776 94 968 c 0,16,17
 94 1178 94 1178 217 1327 c 128,-1,18
 340 1476 340 1476 564 1476 c 0,19,20
 804 1476 804 1476 923.5 1300.5 c 128,-1,21
 1043 1125 1043 1125 1043 884 c 2,22,-1
 1043 805 l 2,0,1
334 975 m 0,23,24
 334 856 334 856 390.5 763.5 c 128,-1,25
 447 671 447 671 564 671 c 0,26,27
 643 671 643 671 706.5 716.5 c 128,-1,28
 770 762 770 762 801 829 c 1,29,-1
 801 924 l 2,30,31
 801 1099 801 1099 729.5 1189.5 c 128,-1,32
 658 1280 658 1280 563 1280 c 0,33,34
 454 1280 454 1280 394 1190.5 c 128,-1,35
 334 1101 334 1101 334 975 c 0,23,24
EndSplineSet
Substitution2: "'numr' Numerators lookup 34 subtable" nine.frac
Substitution2: "'dnom' Denominators lookup 33 subtable" nine.sup
Substitution2: "'pnum' Proportional Numbers lookup 28 subtable" nine.pnum
Substitution2: "'onum' Oldstyle Figures lookup 27 subtable" nine.tnum
Substitution2: "'c2sc' Capitals to Small Capitals lookup 0 subtable" nine.smcp
Position2: "'cpsp' Capital Spacing lookup 0 subtable" dx=36 dy=0 dh=72 dv=0
EndChar

StartChar: less
Encoding: 60 60 33
Width: 1041
Flags: W
LayerCount: 2
Fore
SplineSet
901 165 m 1,0,-1
 63 537 l 1,1,-1
 63 730 l 1,2,-1
 901 1102 l 1,3,-1
 901 860 l 1,4,-1
 310 632 l 1,5,-1
 901 407 l 1,6,-1
 901 165 l 1,0,-1
EndSplineSet
EndChar

StartChar: equal
Encoding: 61 61 34
Width: 1146
Flags: W
LayerCount: 2
Fore
SplineSet
1008 982 m 1,0,-1
 1008 781 l 1,1,-1
 145 781 l 1,2,-1
 145 982 l 1,3,-1
 1008 982 l 1,0,-1
1008 558 m 1,4,-1
 1008 356 l 1,5,-1
 145 356 l 1,6,-1
 145 558 l 1,7,-1
 1008 558 l 1,4,-1
EndSplineSet
EndChar

StartChar: greater
Encoding: 62 62 35
Width: 1066
Flags: W
LayerCount: 2
Fore
SplineSet
129 1102 m 1,0,-1
 992 731 l 1,1,-1
 992 537 l 1,2,-1
 129 165 l 1,3,-1
 129 404 l 1,4,-1
 747 636 l 1,5,-1
 129 864 l 1,6,-1
 129 1102 l 1,0,-1
EndSplineSet
EndChar

StartChar: question
Encoding: 63 63 36
Width: 997
Flags: W
LayerCount: 2
Fore
SplineSet
577 429 m 1,0,-1
 350 429 l 1,1,2
 352 570 352 570 387 648 c 128,-1,3
 422 726 422 726 514 814 c 0,4,5
 581 879 581 879 629 936.5 c 128,-1,6
 677 994 677 994 677 1081 c 0,7,8
 677 1274 677 1274 495 1274 c 0,9,10
 423 1274 423 1274 363.5 1231.5 c 128,-1,11
 304 1189 304 1189 303 1093 c 1,12,-1
 60 1093 l 1,13,14
 62 1282 62 1282 187 1379 c 128,-1,15
 312 1476 312 1476 495 1476 c 0,16,17
 696 1476 696 1476 808 1374 c 128,-1,18
 920 1272 920 1272 920 1090 c 0,19,20
 920 956 920 956 843 859 c 128,-1,21
 766 762 766 762 670 673 c 0,22,23
 616 622 616 622 597 562.5 c 128,-1,24
 578 503 578 503 577 429 c 1,0,-1
333 118 m 0,25,26
 333 174 333 174 369.5 211.5 c 128,-1,27
 406 249 406 249 471 249 c 256,28,29
 536 249 536 249 572.5 211.5 c 128,-1,30
 609 174 609 174 609 118 c 0,31,32
 609 63 609 63 572.5 25.5 c 128,-1,33
 536 -12 536 -12 471 -12 c 256,34,35
 406 -12 406 -12 369.5 25.5 c 128,-1,36
 333 63 333 63 333 118 c 0,25,26
EndSplineSet
EndChar

StartChar: at
Encoding: 64 64 37
Width: 1833
Flags: W
LayerCount: 2
Fore
SplineSet
1264 -364 m 1,0,1
 1193 -409 1193 -409 1088.5 -431 c 128,-1,2
 984 -453 984 -453 890 -453 c 0,3,4
 502 -453 502 -453 292 -209.5 c 128,-1,5
 82 34 82 34 99 471 c 0,6,7
 111 744 111 744 220 960 c 128,-1,8
 329 1176 329 1176 519 1300.5 c 128,-1,9
 709 1425 709 1425 964 1425 c 0,10,11
 1349 1425 1349 1425 1552 1177.5 c 128,-1,12
 1755 930 1755 930 1738 518 c 0,13,14
 1733 389 1733 389 1689.5 265 c 128,-1,15
 1646 141 1646 141 1554.5 60 c 128,-1,16
 1463 -21 1463 -21 1313 -21 c 0,17,18
 1132 -21 1132 -21 1072 133 c 1,19,20
 968 -20 968 -20 811 -20 c 0,21,22
 663 -20 663 -20 588.5 102 c 128,-1,23
 514 224 514 224 533 423 c 0,24,25
 559 683 559 683 688 836.5 c 128,-1,26
 817 990 817 990 980 990 c 0,27,28
 1093 990 1093 990 1157 958 c 128,-1,29
 1221 926 1221 926 1280 883 c 1,30,-1
 1229 319 l 2,31,32
 1218 196 1218 196 1257.5 159 c 128,-1,33
 1297 122 1297 122 1343 122 c 0,34,35
 1451 122 1451 122 1513 236 c 128,-1,36
 1575 350 1575 350 1581 515 c 0,37,38
 1597 867 1597 867 1446 1071 c 128,-1,39
 1295 1275 1295 1275 960 1275 c 0,40,41
 650 1275 650 1275 469.5 1049.5 c 128,-1,42
 289 824 289 824 274 471 c 0,43,44
 257 102 257 102 420 -99.5 c 128,-1,45
 583 -301 583 -301 894 -301 c 0,46,47
 1087 -301 1087 -301 1225 -228 c 1,48,-1
 1264 -364 l 1,0,1
728 423 m 0,49,50
 703 146 703 146 870 146 c 0,51,52
 913 146 913 146 963.5 185.5 c 128,-1,53
 1014 225 1014 225 1050 323 c 1,54,-1
 1095 817 l 1,55,56
 1049 835 1049 835 999 835 c 0,57,58
 766 835 766 835 728 423 c 0,49,50
EndSplineSet
EndChar

StartChar: A
Encoding: 65 65 38
Width: 1363
GlyphClass: 2
Flags: W
AnchorPoint: "Anchor-5" 1363 1600 basechar 0
AnchorPoint: "Anchor-3" 1363 -407 basechar 0
AnchorPoint: "Anchor-2" 1363 1600 basechar 0
AnchorPoint: "Anchor-1" 695 3 basechar 0
AnchorPoint: "Anchor-0" 685 1600 basechar 0
LayerCount: 2
Fore
SplineSet
18 0 m 1,0,-1
 568 1456 l 1,1,-1
 795 1456 l 1,2,-1
 1347 0 l 1,3,-1
 1083 0 l 1,4,-1
 964 340 l 1,5,-1
 400 340 l 1,6,-1
 282 0 l 1,7,-1
 18 0 l 1,0,-1
471 543 m 1,8,-1
 894 543 l 1,9,-1
 682 1149 l 1,10,-1
 471 543 l 1,8,-1
EndSplineSet
Substitution2: "'unic' Unicase lookup 2 subtable" A.unic
Substitution2: "'c2sc' Capitals to Small Capitals lookup 0 subtable" A.smcp
Position2: "'cpsp' Capital Spacing lookup 0 subtable" dx=36 dy=0 dh=72 dv=0
EndChar

StartChar: B
Encoding: 66 66 39
Width: 1293
GlyphClass: 2
Flags: W
AnchorPoint: "Anchor-5" 1293 1612 basechar 0
AnchorPoint: "Anchor-3" 1293 -407 basechar 0
AnchorPoint: "Anchor-2" 1293 1600 basechar 0
AnchorPoint: "Anchor-1" 611 10 basechar 0
AnchorPoint: "Anchor-0" 606 1612 basechar 0
LayerCount: 2
Fore
SplineSet
1187 425 m 0,0,1
 1187 216 1187 216 1052.5 108 c 128,-1,2
 918 0 918 0 683 0 c 2,3,-1
 149 0 l 1,4,-1
 149 1456 l 1,5,-1
 647 1456 l 2,6,7
 885 1456 885 1456 1019 1361 c 128,-1,8
 1153 1266 1153 1266 1153 1062 c 0,9,10
 1153 963 1153 963 1099 882.5 c 128,-1,11
 1045 802 1045 802 941 759 c 1,12,13
 1066 726 1066 726 1126.5 632.5 c 128,-1,14
 1187 539 1187 539 1187 425 c 0,0,1
401 1253 m 1,15,-1
 401 844 l 1,16,-1
 649 844 l 2,17,18
 768 844 768 844 834 897.5 c 128,-1,19
 900 951 900 951 900 1048 c 0,20,21
 900 1253 900 1253 647 1253 c 2,22,-1
 401 1253 l 1,15,-1
935 426 m 0,23,24
 935 533 935 533 878.5 595 c 128,-1,25
 822 657 822 657 693 657 c 2,26,-1
 401 657 l 1,27,-1
 401 202 l 1,28,-1
 683 202 l 2,29,30
 807 202 807 202 871 264 c 128,-1,31
 935 326 935 326 935 426 c 0,23,24
EndSplineSet
Substitution2: "'c2sc' Capitals to Small Capitals lookup 0 subtable" B.smcp
Position2: "'cpsp' Capital Spacing lookup 0 subtable" dx=36 dy=0 dh=72 dv=0
EndChar

StartChar: C
Encoding: 67 67 40
Width: 1337
GlyphClass: 2
Flags: W
AnchorPoint: "Anchor-5" 1337 1621 basechar 0
AnchorPoint: "Anchor-3" 1337 -407 basechar 0
AnchorPoint: "Anchor-2" 1337 1600 basechar 0
AnchorPoint: "Anchor-1" 682 -7 basechar 0
AnchorPoint: "Anchor-0" 684 1621 basechar 0
LayerCount: 2
Fore
SplineSet
1007 474 m 1,0,-1
 1259 474 l 1,1,2
 1240 262 1240 262 1098.5 121 c 128,-1,3
 957 -20 957 -20 689 -20 c 0,4,5
 420 -20 420 -20 261 167 c 128,-1,6
 102 354 102 354 102 669 c 2,7,-1
 102 787 l 2,8,9
 102 1101 102 1101 264 1288.5 c 128,-1,10
 426 1476 426 1476 701 1476 c 0,11,12
 962 1476 962 1476 1100 1334.5 c 128,-1,13
 1238 1193 1238 1193 1260 975 c 1,14,-1
 1008 975 l 1,15,16
 992 1114 992 1114 924.5 1193 c 128,-1,17
 857 1272 857 1272 701 1272 c 0,18,19
 528 1272 528 1272 442.5 1145 c 128,-1,20
 357 1018 357 1018 357 789 c 2,21,-1
 357 669 l 2,22,23
 357 451 357 451 434.5 317.5 c 128,-1,24
 512 184 512 184 689 184 c 0,25,26
 852 184 852 184 920.5 259 c 128,-1,27
 989 334 989 334 1007 474 c 1,0,-1
EndSplineSet
Substitution2: "'ss06' Style Set 6 lookup 25 subtable" C.ss06
Substitution2: "'c2sc' Capitals to Small Capitals lookup 0 subtable" C.smcp
Position2: "'cpsp' Capital Spacing lookup 0 subtable" dx=36 dy=0 dh=72 dv=0
EndChar

StartChar: D
Encoding: 68 68 41
Width: 1338
GlyphClass: 2
Flags: W
AnchorPoint: "Anchor-5" 1338 1608 basechar 0
AnchorPoint: "Anchor-3" 1338 -407 basechar 0
AnchorPoint: "Anchor-2" 1338 1600 basechar 0
AnchorPoint: "Anchor-1" 573 10 basechar 0
AnchorPoint: "Anchor-0" 571 1608 basechar 0
LayerCount: 2
Fore
SplineSet
149 0 m 1,0,-1
 149 1456 l 1,1,-1
 578 1456 l 2,2,3
 870 1456 870 1456 1052 1267.5 c 128,-1,4
 1234 1079 1234 1079 1234 764 c 2,5,-1
 1234 691 l 2,6,7
 1234 376 1234 376 1051.5 188 c 128,-1,8
 869 0 869 0 567 0 c 2,9,-1
 149 0 l 1,0,-1
578 1253 m 2,10,-1
 401 1253 l 1,11,-1
 401 202 l 1,12,-1
 567 202 l 2,13,14
 773 202 773 202 877 332.5 c 128,-1,15
 981 463 981 463 981 691 c 2,16,-1
 981 766 l 2,17,18
 981 1002 981 1002 877.5 1127.5 c 128,-1,19
 774 1253 774 1253 578 1253 c 2,10,-1
EndSplineSet
Substitution2: "'ss06' Style Set 6 lookup 25 subtable" D.ss06
Substitution2: "'c2sc' Capitals to Small Capitals lookup 0 subtable" D.smcp
Position2: "'cpsp' Capital Spacing lookup 0 subtable" dx=36 dy=0 dh=72 dv=0
EndChar

StartChar: E
Encoding: 69 69 42
Width: 1158
GlyphClass: 2
Flags: W
AnchorPoint: "Anchor-5" 1158 1608 basechar 0
AnchorPoint: "Anchor-3" 1158 -407 basechar 0
AnchorPoint: "Anchor-2" 1158 1600 basechar 0
AnchorPoint: "Anchor-1" 628 10 basechar 0
AnchorPoint: "Anchor-0" 627 1608 basechar 0
LayerCount: 2
Fore
SplineSet
149 0 m 1,0,-1
 149 1456 l 1,1,-1
 1094 1456 l 1,2,-1
 1094 1253 l 1,3,-1
 401 1253 l 1,4,-1
 401 850 l 1,5,-1
 999 850 l 1,6,-1
 999 651 l 1,7,-1
 401 651 l 1,8,-1
 401 202 l 1,9,-1
 1101 202 l 1,10,-1
 1101 0 l 1,11,-1
 149 0 l 1,0,-1
EndSplineSet
Substitution2: "'unic' Unicase lookup 2 subtable" E.unic
Substitution2: "'c2sc' Capitals to Small Capitals lookup 0 subtable" E.smcp
Position2: "'cpsp' Capital Spacing lookup 0 subtable" dx=36 dy=0 dh=72 dv=0
EndChar

StartChar: F
Encoding: 70 70 43
Width: 1126
GlyphClass: 2
Flags: W
AnchorPoint: "Anchor-5" 1126 1612 basechar 0
AnchorPoint: "Anchor-3" 1126 -407 basechar 0
AnchorPoint: "Anchor-2" 1126 1600 basechar 0
AnchorPoint: "Anchor-1" 531 10 basechar 0
AnchorPoint: "Anchor-0" 627 1612 basechar 0
LayerCount: 2
Fore
SplineSet
149 0 m 1,0,-1
 149 1456 l 1,1,-1
 1073 1456 l 1,2,-1
 1073 1253 l 1,3,-1
 401 1253 l 1,4,-1
 401 819 l 1,5,-1
 987 819 l 1,6,-1
 987 617 l 1,7,-1
 401 617 l 1,8,-1
 401 0 l 1,9,-1
 149 0 l 1,0,-1
EndSplineSet
Substitution2: "'c2sc' Capitals to Small Capitals lookup 0 subtable" F.smcp
Position2: "'cpsp' Capital Spacing lookup 0 subtable" dx=36 dy=0 dh=72 dv=0
EndChar

StartChar: G
Encoding: 71 71 44
Width: 1395
GlyphClass: 2
Flags: W
AnchorPoint: "Anchor-5" 1395 1621 basechar 0
AnchorPoint: "Anchor-3" 1395 -407 basechar 0
AnchorPoint: "Anchor-2" 1395 1600 basechar 0
AnchorPoint: "Anchor-1" 729 -7 basechar 0
AnchorPoint: "Anchor-0" 681 1621 basechar 0
LayerCount: 2
Fore
SplineSet
1264 747 m 1,0,-1
 1264 190 l 1,1,2
 1218 128 1218 128 1095 54 c 128,-1,3
 972 -20 972 -20 728 -20 c 0,4,5
 453 -20 453 -20 279.5 163 c 128,-1,6
 106 346 106 346 106 680 c 2,7,-1
 106 775 l 2,8,9
 106 1109 106 1109 265 1292.5 c 128,-1,10
 424 1476 424 1476 706 1476 c 0,11,12
 973 1476 973 1476 1105.5 1345 c 128,-1,13
 1238 1214 1238 1214 1264 1011 c 1,14,-1
 1016 1011 l 1,15,16
 997 1124 997 1124 927.5 1198.5 c 128,-1,17
 858 1273 858 1273 710 1273 c 0,18,19
 532 1273 532 1273 446.5 1143 c 128,-1,20
 361 1013 361 1013 361 777 c 2,21,-1
 361 680 l 2,22,23
 361 440 361 440 461 311 c 128,-1,24
 561 182 561 182 736 182 c 0,25,26
 867 182 867 182 926.5 212 c 128,-1,27
 986 242 986 242 1012 270 c 1,28,-1
 1012 556 l 1,29,-1
 713 556 l 1,30,-1
 713 747 l 1,31,-1
 1264 747 l 1,0,-1
EndSplineSet
Substitution2: "'ss06' Style Set 6 lookup 25 subtable" G.ss06
Substitution2: "'c2sc' Capitals to Small Capitals lookup 0 subtable" G.smcp
Position2: "'cpsp' Capital Spacing lookup 0 subtable" dx=36 dy=0 dh=72 dv=0
EndChar

StartChar: H
Encoding: 72 72 45
Width: 1456
GlyphClass: 2
Flags: W
AnchorPoint: "Anchor-5" 1456 1608 basechar 0
AnchorPoint: "Anchor-3" 1456 -407 basechar 0
AnchorPoint: "Anchor-2" 1456 1600 basechar 0
AnchorPoint: "Anchor-1" 719 10 basechar 0
AnchorPoint: "Anchor-0" 717 1608 basechar 0
LayerCount: 2
Fore
SplineSet
1052 0 m 1,0,-1
 1052 648 l 1,1,-1
 401 648 l 1,2,-1
 401 0 l 1,3,-1
 149 0 l 1,4,-1
 149 1456 l 1,5,-1
 401 1456 l 1,6,-1
 401 850 l 1,7,-1
 1052 850 l 1,8,-1
 1052 1456 l 1,9,-1
 1305 1456 l 1,10,-1
 1305 0 l 1,11,-1
 1052 0 l 1,0,-1
EndSplineSet
Substitution2: "'c2sc' Capitals to Small Capitals lookup 0 subtable" H.smcp
Position2: "'cpsp' Capital Spacing lookup 0 subtable" dx=36 dy=0 dh=72 dv=0
EndChar

StartChar: I
Encoding: 73 73 46
Width: 578
GlyphClass: 2
Flags: W
AnchorPoint: "Anchor-5" 578 1608 basechar 0
AnchorPoint: "Anchor-3" 578 -407 basechar 0
AnchorPoint: "Anchor-2" 578 1600 basechar 0
AnchorPoint: "Anchor-1" 289 7 basechar 0
AnchorPoint: "Anchor-0" 289 1608 basechar 0
LayerCount: 2
Fore
SplineSet
416 1456 m 1,0,-1
 416 0 l 1,1,-1
 164 0 l 1,2,-1
 164 1456 l 1,3,-1
 416 1456 l 1,0,-1
EndSplineSet
Substitution2: "'c2sc' Capitals to Small Capitals lookup 0 subtable" I.smcp
Position2: "'cpsp' Capital Spacing lookup 0 subtable" dx=36 dy=0 dh=72 dv=0
EndChar

StartChar: J
Encoding: 74 74 47
Width: 1137
GlyphClass: 2
Flags: W
AnchorPoint: "Anchor-5" 1137 1601 basechar 0
AnchorPoint: "Anchor-3" 1137 -407 basechar 0
AnchorPoint: "Anchor-2" 1137 1600 basechar 0
AnchorPoint: "Anchor-1" 512 -10 basechar 0
AnchorPoint: "Anchor-0" 850 1601 basechar 0
LayerCount: 2
Fore
SplineSet
745 436 m 2,0,-1
 745 1456 l 1,1,-1
 997 1456 l 1,2,-1
 997 436 l 2,3,4
 997 218 997 218 861.5 99 c 128,-1,5
 726 -20 726 -20 521 -20 c 0,6,7
 314 -20 314 -20 179.5 86.5 c 128,-1,8
 45 193 45 193 45 416 c 1,9,-1
 298 416 l 1,10,11
 298 290 298 290 360 236 c 128,-1,12
 422 182 422 182 521 182 c 0,13,14
 619 182 619 182 682 247.5 c 128,-1,15
 745 313 745 313 745 436 c 2,0,-1
EndSplineSet
Substitution2: "'c2sc' Capitals to Small Capitals lookup 0 subtable" J.smcp
Position2: "'cpsp' Capital Spacing lookup 0 subtable" dx=36 dy=0 dh=72 dv=0
EndChar

StartChar: K
Encoding: 75 75 48
Width: 1291
GlyphClass: 2
Flags: W
AnchorPoint: "Anchor-5" 1291 1601 basechar 0
AnchorPoint: "Anchor-3" 1291 -407 basechar 0
AnchorPoint: "Anchor-2" 1291 1600 basechar 0
AnchorPoint: "Anchor-1" 658 76 basechar 0
AnchorPoint: "Anchor-0" 601 1601 basechar 0
LayerCount: 2
Fore
SplineSet
1004 0 m 1,0,-1
 567 630 l 1,1,-1
 401 454 l 1,2,-1
 401 0 l 1,3,-1
 149 0 l 1,4,-1
 149 1456 l 1,5,-1
 401 1456 l 1,6,-1
 401 772 l 1,7,-1
 542 946 l 1,8,-1
 968 1456 l 1,9,-1
 1274 1456 l 1,10,-1
 733 812 l 1,11,-1
 1304 0 l 1,12,-1
 1004 0 l 1,0,-1
EndSplineSet
Substitution2: "'ss05' Style Set 5 lookup 24 subtable" K.alt2
Substitution2: "'ss04' Style Set 4 lookup 23 subtable" K.alt
Substitution2: "'salt' Stylistic Alternatives lookup 19 subtable" K.alt
Substitution2: "'c2sc' Capitals to Small Capitals lookup 0 subtable" K.smcp
Position2: "'cpsp' Capital Spacing lookup 0 subtable" dx=36 dy=0 dh=72 dv=0
EndChar

StartChar: L
Encoding: 76 76 49
Width: 1109
GlyphClass: 2
Flags: W
AnchorPoint: "Anchor-5" 1109 1600 basechar 0
AnchorPoint: "Anchor-3" 1109 -407 basechar 0
AnchorPoint: "Anchor-2" 1109 1600 basechar 0
AnchorPoint: "Anchor-1" 611 10 basechar 0
AnchorPoint: "Anchor-0" 276 1600 basechar 0
LayerCount: 2
Fore
SplineSet
1063 202 m 1,0,-1
 1063 0 l 1,1,-1
 149 0 l 1,2,-1
 149 1456 l 1,3,-1
 401 1456 l 1,4,-1
 401 202 l 1,5,-1
 1063 202 l 1,0,-1
EndSplineSet
Substitution2: "'c2sc' Capitals to Small Capitals lookup 0 subtable" L.smcp
Position2: "'cpsp' Capital Spacing lookup 0 subtable" dx=36 dy=0 dh=72 dv=0
EndChar

StartChar: M
Encoding: 77 77 50
Width: 1793
GlyphClass: 2
Flags: W
AnchorPoint: "Anchor-5" 1793 1600 basechar 0
AnchorPoint: "Anchor-3" 1793 -407 basechar 0
AnchorPoint: "Anchor-2" 1793 1600 basechar 0
AnchorPoint: "Anchor-1" 895 10 basechar 0
AnchorPoint: "Anchor-0" 891 1600 basechar 0
LayerCount: 2
Fore
SplineSet
896 340 m 1,0,-1
 1315 1456 l 1,1,-1
 1643 1456 l 1,2,-1
 1643 0 l 1,3,-1
 1391 0 l 1,4,-1
 1391 480 l 1,5,-1
 1415 1120 l 1,6,-1
 986 0 l 1,7,-1
 805 0 l 1,8,-1
 376 1121 l 1,9,-1
 401 480 l 1,10,-1
 401 0 l 1,11,-1
 149 0 l 1,12,-1
 149 1456 l 1,13,-1
 476 1456 l 1,14,-1
 896 340 l 1,0,-1
EndSplineSet
Substitution2: "'unic' Unicase lookup 2 subtable" M.unic
Substitution2: "'c2sc' Capitals to Small Capitals lookup 0 subtable" M.smcp
Position2: "'cpsp' Capital Spacing lookup 0 subtable" dx=36 dy=0 dh=72 dv=0
EndChar

StartChar: N
Encoding: 78 78 51
Width: 1455
GlyphClass: 2
Flags: W
AnchorPoint: "Anchor-5" 1455 1600 basechar 0
AnchorPoint: "Anchor-3" 1455 -407 basechar 0
AnchorPoint: "Anchor-2" 1455 1600 basechar 0
AnchorPoint: "Anchor-1" 721 7 basechar 0
AnchorPoint: "Anchor-0" 726 1600 basechar 0
LayerCount: 2
Fore
SplineSet
1304 1456 m 1,0,-1
 1304 0 l 1,1,-1
 1051 0 l 1,2,-1
 401 1033 l 1,3,-1
 401 0 l 1,4,-1
 149 0 l 1,5,-1
 149 1456 l 1,6,-1
 401 1456 l 1,7,-1
 1053 420 l 1,8,-1
 1053 1456 l 1,9,-1
 1304 1456 l 1,0,-1
EndSplineSet
Substitution2: "'unic' Unicase lookup 2 subtable" N.unic
Substitution2: "'c2sc' Capitals to Small Capitals lookup 0 subtable" N.smcp
Position2: "'cpsp' Capital Spacing lookup 0 subtable" dx=36 dy=0 dh=72 dv=0
EndChar

StartChar: O
Encoding: 79 79 52
Width: 1414
GlyphClass: 2
Flags: W
AnchorPoint: "Anchor-5" 1414 1600 basechar 0
AnchorPoint: "Anchor-3" 1414 -407 basechar 0
AnchorPoint: "Anchor-2" 1414 1600 basechar 0
AnchorPoint: "Anchor-1" 711 0 basechar 0
AnchorPoint: "Anchor-0" 708 1600 basechar 0
LayerCount: 2
Fore
SplineSet
1311 764 m 2,0,-1
 1311 691 l 2,1,2
 1311 359 1311 359 1145.5 169.5 c 128,-1,3
 980 -20 980 -20 708 -20 c 0,4,5
 442 -20 442 -20 272 169.5 c 128,-1,6
 102 359 102 359 102 691 c 2,7,-1
 102 764 l 2,8,9
 102 1096 102 1096 271 1286 c 128,-1,10
 440 1476 440 1476 706 1476 c 0,11,12
 978 1476 978 1476 1144.5 1286 c 128,-1,13
 1311 1096 1311 1096 1311 764 c 2,0,-1
1058 691 m 2,14,-1
 1058 766 l 2,15,16
 1058 1011 1058 1011 965 1139 c 128,-1,17
 872 1267 872 1267 706 1267 c 0,18,19
 544 1267 544 1267 449.5 1139 c 128,-1,20
 355 1011 355 1011 355 766 c 2,21,-1
 355 691 l 2,22,23
 355 446 355 446 450.5 317 c 128,-1,24
 546 188 546 188 708 188 c 0,25,26
 876 188 876 188 967 317 c 128,-1,27
 1058 446 1058 446 1058 691 c 2,14,-1
EndSplineSet
Substitution2: "'ss06' Style Set 6 lookup 25 subtable" O.ss06
Substitution2: "'c2sc' Capitals to Small Capitals lookup 0 subtable" O.smcp
Position2: "'cpsp' Capital Spacing lookup 0 subtable" dx=36 dy=0 dh=72 dv=0
EndChar

StartChar: P
Encoding: 80 80 53
Width: 1310
GlyphClass: 2
Flags: W
AnchorPoint: "Anchor-5" 1310 1612 basechar 0
AnchorPoint: "Anchor-3" 1310 -407 basechar 0
AnchorPoint: "Anchor-2" 1310 1600 basechar 0
AnchorPoint: "Anchor-1" 530 10 basechar 0
AnchorPoint: "Anchor-0" 606 1612 basechar 0
LayerCount: 2
Fore
SplineSet
706 541 m 2,0,-1
 401 541 l 1,1,-1
 401 0 l 1,2,-1
 149 0 l 1,3,-1
 149 1456 l 1,4,-1
 706 1456 l 2,5,6
 959 1456 959 1456 1097.5 1325 c 128,-1,7
 1236 1194 1236 1194 1236 993 c 0,8,9
 1236 782 1236 782 1097.5 661.5 c 128,-1,10
 959 541 959 541 706 541 c 2,0,-1
401 1253 m 1,11,-1
 401 744 l 1,12,-1
 706 744 l 2,13,14
 853 744 853 744 917.5 813 c 128,-1,15
 982 882 982 882 982 991 c 0,16,17
 982 1093 982 1093 917.5 1173 c 128,-1,18
 853 1253 853 1253 706 1253 c 2,19,-1
 401 1253 l 1,11,-1
EndSplineSet
Substitution2: "'c2sc' Capitals to Small Capitals lookup 0 subtable" P.smcp
Position2: "'cpsp' Capital Spacing lookup 0 subtable" dx=36 dy=0 dh=72 dv=0
EndChar

StartChar: Q
Encoding: 81 81 54
Width: 1414
GlyphClass: 2
Flags: W
AnchorPoint: "Anchor-5" 1414 1600 basechar 0
AnchorPoint: "Anchor-3" 1414 -407 basechar 0
AnchorPoint: "Anchor-2" 1414 1600 basechar 0
AnchorPoint: "Anchor-1" 698 -10 basechar 0
AnchorPoint: "Anchor-0" 700 1600 basechar 0
LayerCount: 2
Fore
SplineSet
1307 -105 m 1,0,-1
 1142 -252 l 1,1,-1
 833 -7 l 1,2,3
 770 -20 770 -20 702 -20 c 0,4,5
 436 -20 436 -20 266 169.5 c 128,-1,6
 96 359 96 359 96 691 c 2,7,-1
 96 764 l 2,8,9
 96 1096 96 1096 265 1286 c 128,-1,10
 434 1476 434 1476 700 1476 c 0,11,12
 972 1476 972 1476 1138.5 1286 c 128,-1,13
 1305 1096 1305 1096 1305 764 c 2,14,-1
 1305 691 l 2,15,16
 1305 485 1305 485 1239 332.5 c 128,-1,17
 1173 180 1173 180 1056 91 c 1,18,-1
 1307 -105 l 1,0,-1
1052 691 m 2,19,-1
 1052 766 l 2,20,21
 1052 1011 1052 1011 959.5 1139 c 128,-1,22
 867 1267 867 1267 700 1267 c 0,23,24
 538 1267 538 1267 444 1139 c 128,-1,25
 350 1011 350 1011 350 766 c 2,26,-1
 350 691 l 2,27,28
 350 446 350 446 445 317 c 128,-1,29
 540 188 540 188 702 188 c 0,30,31
 870 188 870 188 961 317 c 128,-1,32
 1052 446 1052 446 1052 691 c 2,19,-1
EndSplineSet
Substitution2: "'ss06' Style Set 6 lookup 25 subtable" Q.ss06
Substitution2: "'c2sc' Capitals to Small Capitals lookup 0 subtable" Q.smcp
Position2: "'cpsp' Capital Spacing lookup 0 subtable" dx=36 dy=0 dh=72 dv=0
EndChar

StartChar: R
Encoding: 82 82 55
Width: 1279
GlyphClass: 2
Flags: W
AnchorPoint: "Anchor-5" 1279 1600 basechar 0
AnchorPoint: "Anchor-3" 1279 -407 basechar 0
AnchorPoint: "Anchor-2" 1279 1600 basechar 0
AnchorPoint: "Anchor-1" 612 10 basechar 0
AnchorPoint: "Anchor-0" 604 1600 basechar 0
LayerCount: 2
Fore
SplineSet
976 0 m 1,0,-1
 684 561 l 1,1,-1
 401 561 l 1,2,-1
 401 0 l 1,3,-1
 149 0 l 1,4,-1
 149 1456 l 1,5,-1
 661 1456 l 2,6,7
 912 1456 912 1456 1049 1344 c 128,-1,8
 1186 1232 1186 1232 1186 1017 c 0,9,10
 1186 871 1186 871 1115 772 c 128,-1,11
 1044 673 1044 673 919 621 c 1,12,-1
 1246 13 l 1,13,-1
 1246 0 l 1,14,-1
 976 0 l 1,0,-1
401 1253 m 1,15,-1
 401 764 l 1,16,-1
 661 764 l 2,17,18
 797 764 797 764 865.5 832.5 c 128,-1,19
 934 901 934 901 934 1005 c 0,20,21
 934 1118 934 1118 869 1185.5 c 128,-1,22
 804 1253 804 1253 661 1253 c 2,23,-1
 401 1253 l 1,15,-1
EndSplineSet
Substitution2: "'ss03' Style Set 3 lookup 22 subtable" R.alt
Substitution2: "'c2sc' Capitals to Small Capitals lookup 0 subtable" R.smcp
Position2: "'cpsp' Capital Spacing lookup 0 subtable" dx=36 dy=0 dh=72 dv=0
EndChar

StartChar: S
Encoding: 83 83 56
Width: 1237
GlyphClass: 2
Flags: W
AnchorPoint: "Anchor-5" 1237 1600 basechar 0
AnchorPoint: "Anchor-3" 1237 -407 basechar 0
AnchorPoint: "Anchor-2" 1237 1600 basechar 0
AnchorPoint: "Anchor-1" 639 0 basechar 0
AnchorPoint: "Anchor-0" 634 1600 basechar 0
LayerCount: 2
Fore
SplineSet
909 376 m 256,0,1
 909 464 909 464 848.5 517.5 c 128,-1,2
 788 571 788 571 598 629 c 0,3,4
 390 692 390 692 255 793 c 128,-1,5
 120 894 120 894 120 1073 c 0,6,7
 120 1249 120 1249 262.5 1362.5 c 128,-1,8
 405 1476 405 1476 636 1476 c 0,9,10
 883 1476 883 1476 1022 1344.5 c 128,-1,11
 1161 1213 1161 1213 1161 1031 c 1,12,-1
 909 1031 l 1,13,14
 909 1138 909 1138 842 1206.5 c 128,-1,15
 775 1275 775 1275 633 1275 c 0,16,17
 500 1275 500 1275 436.5 1217.5 c 128,-1,18
 373 1160 373 1160 373 1074 c 0,19,20
 373 992 373 992 449.5 938 c 128,-1,21
 526 884 526 884 682 839 c 0,22,23
 927 767 927 767 1044.5 659 c 128,-1,24
 1162 551 1162 551 1162 378 c 0,25,26
 1162 194 1162 194 1021.5 87 c 128,-1,27
 881 -20 881 -20 644 -20 c 0,28,29
 504 -20 504 -20 373.5 31 c 128,-1,30
 243 82 243 82 158.5 184 c 128,-1,31
 74 286 74 286 74 440 c 1,32,-1
 327 440 l 1,33,34
 327 302 327 302 418.5 241 c 128,-1,35
 510 180 510 180 644 180 c 0,36,37
 776 180 776 180 842.5 234 c 128,-1,38
 909 288 909 288 909 376 c 256,0,1
EndSplineSet
Substitution2: "'c2sc' Capitals to Small Capitals lookup 0 subtable" S.smcp
Position2: "'cpsp' Capital Spacing lookup 0 subtable" dx=36 dy=0 dh=72 dv=0
EndChar

StartChar: T
Encoding: 84 84 57
Width: 1244
GlyphClass: 2
Flags: W
AnchorPoint: "Anchor-5" 1244 1600 basechar 0
AnchorPoint: "Anchor-3" 1244 -407 basechar 0
AnchorPoint: "Anchor-2" 1244 1600 basechar 0
AnchorPoint: "Anchor-1" 621 4 basechar 0
AnchorPoint: "Anchor-0" 620 1600 basechar 0
LayerCount: 2
Fore
SplineSet
45 1253 m 1,0,-1
 45 1456 l 1,1,-1
 1200 1456 l 1,2,-1
 1200 1253 l 1,3,-1
 747 1253 l 1,4,-1
 747 0 l 1,5,-1
 495 0 l 1,6,-1
 495 1253 l 1,7,-1
 45 1253 l 1,0,-1
EndSplineSet
Substitution2: "'c2sc' Capitals to Small Capitals lookup 0 subtable" T.smcp
Position2: "'cpsp' Capital Spacing lookup 0 subtable" dx=36 dy=0 dh=72 dv=0
EndChar

StartChar: U
Encoding: 85 85 58
Width: 1336
GlyphClass: 2
Flags: W
AnchorPoint: "Anchor-5" 1336 1600 basechar 0
AnchorPoint: "Anchor-3" 1336 -407 basechar 0
AnchorPoint: "Anchor-2" 1336 1600 basechar 0
AnchorPoint: "Anchor-1" 667 0 basechar 0
AnchorPoint: "Anchor-0" 667 1600 basechar 0
LayerCount: 2
Fore
SplineSet
961 1456 m 1,0,-1
 1214 1456 l 1,1,-1
 1214 483 l 2,2,3
 1214 233 1214 233 1055 106.5 c 128,-1,4
 896 -20 896 -20 669 -20 c 0,5,6
 436 -20 436 -20 281 106.5 c 128,-1,7
 126 233 126 233 126 483 c 2,8,-1
 126 1456 l 1,9,-1
 377 1456 l 1,10,-1
 377 483 l 2,11,12
 377 327 377 327 456.5 254.5 c 128,-1,13
 536 182 536 182 669 182 c 0,14,15
 804 182 804 182 882.5 254.5 c 128,-1,16
 961 327 961 327 961 483 c 2,17,-1
 961 1456 l 1,0,-1
EndSplineSet
Substitution2: "'unic' Unicase lookup 2 subtable" U.unic
Substitution2: "'c2sc' Capitals to Small Capitals lookup 0 subtable" U.smcp
Position2: "'cpsp' Capital Spacing lookup 0 subtable" dx=36 dy=0 dh=72 dv=0
EndChar

StartChar: V
Encoding: 86 86 59
Width: 1326
GlyphClass: 2
Flags: W
AnchorPoint: "Anchor-5" 1326 1612 basechar 0
AnchorPoint: "Anchor-3" 1326 -407 basechar 0
AnchorPoint: "Anchor-2" 1326 1600 basechar 0
AnchorPoint: "Anchor-1" 665 10 basechar 0
AnchorPoint: "Anchor-0" 665 1612 basechar 0
LayerCount: 2
Fore
SplineSet
1309 1456 m 1,0,-1
 785 0 l 1,1,-1
 540 0 l 1,2,-1
 18 1456 l 1,3,-1
 295 1456 l 1,4,-1
 662 318 l 1,5,-1
 1031 1456 l 1,6,-1
 1309 1456 l 1,0,-1
EndSplineSet
Substitution2: "'c2sc' Capitals to Small Capitals lookup 0 subtable" V.smcp
Position2: "'cpsp' Capital Spacing lookup 0 subtable" dx=36 dy=0 dh=72 dv=0
EndChar

StartChar: W
Encoding: 87 87 60
Width: 1803
GlyphClass: 2
Flags: W
AnchorPoint: "Anchor-5" 1803 1600 basechar 0
AnchorPoint: "Anchor-3" 1803 -407 basechar 0
AnchorPoint: "Anchor-2" 1803 1600 basechar 0
AnchorPoint: "Anchor-1" 911 10 basechar 0
AnchorPoint: "Anchor-0" 914 1600 basechar 0
LayerCount: 2
Fore
SplineSet
1765 1456 m 1,0,-1
 1430 0 l 1,1,-1
 1187 0 l 1,2,-1
 910 1062 l 1,3,-1
 627 0 l 1,4,-1
 385 0 l 1,5,-1
 49 1456 l 1,6,-1
 300 1456 l 1,7,-1
 526 365 l 1,8,-1
 804 1456 l 1,9,-1
 1016 1456 l 1,10,-1
 1291 361 l 1,11,-1
 1514 1456 l 1,12,-1
 1765 1456 l 1,0,-1
EndSplineSet
Substitution2: "'c2sc' Capitals to Small Capitals lookup 0 subtable" W.smcp
Position2: "'cpsp' Capital Spacing lookup 0 subtable" dx=36 dy=0 dh=72 dv=0
EndChar

StartChar: X
Encoding: 88 88 61
Width: 1296
GlyphClass: 2
Flags: W
AnchorPoint: "Anchor-5" 1296 1612 basechar 0
AnchorPoint: "Anchor-3" 1296 -407 basechar 0
AnchorPoint: "Anchor-2" 1296 1600 basechar 0
AnchorPoint: "Anchor-1" 648 13 basechar 0
AnchorPoint: "Anchor-0" 647 1612 basechar 0
LayerCount: 2
Fore
SplineSet
344 1456 m 1,0,-1
 650 930 l 1,1,-1
 955 1456 l 1,2,-1
 1247 1456 l 1,3,-1
 807 734 l 1,4,-1
 1258 0 l 1,5,-1
 963 0 l 1,6,-1
 650 535 l 1,7,-1
 336 0 l 1,8,-1
 41 0 l 1,9,-1
 492 734 l 1,10,-1
 52 1456 l 1,11,-1
 344 1456 l 1,0,-1
EndSplineSet
Substitution2: "'c2sc' Capitals to Small Capitals lookup 0 subtable" X.smcp
Position2: "'cpsp' Capital Spacing lookup 0 subtable" dx=36 dy=0 dh=72 dv=0
EndChar

StartChar: Y
Encoding: 89 89 62
Width: 1248
GlyphClass: 2
Flags: W
AnchorPoint: "Anchor-5" 1248 1600 basechar 0
AnchorPoint: "Anchor-3" 1248 -407 basechar 0
AnchorPoint: "Anchor-2" 1248 1600 basechar 0
AnchorPoint: "Anchor-1" 623 16 basechar 0
AnchorPoint: "Anchor-0" 627 1600 basechar 0
LayerCount: 2
Fore
SplineSet
289 1456 m 1,0,-1
 623 767 l 1,1,-1
 958 1456 l 1,2,-1
 1238 1456 l 1,3,-1
 750 536 l 1,4,-1
 750 0 l 1,5,-1
 496 0 l 1,6,-1
 496 536 l 1,7,-1
 8 1456 l 1,8,-1
 289 1456 l 1,0,-1
EndSplineSet
Substitution2: "'c2sc' Capitals to Small Capitals lookup 0 subtable" Y.smcp
Position2: "'cpsp' Capital Spacing lookup 0 subtable" dx=36 dy=0 dh=72 dv=0
EndChar

StartChar: Z
Encoding: 90 90 63
Width: 1234
GlyphClass: 2
Flags: W
AnchorPoint: "Anchor-5" 1234 1600 basechar 0
AnchorPoint: "Anchor-3" 1234 -407 basechar 0
AnchorPoint: "Anchor-2" 1234 1600 basechar 0
AnchorPoint: "Anchor-1" 618 10 basechar 0
AnchorPoint: "Anchor-0" 623 1600 basechar 0
LayerCount: 2
Fore
SplineSet
86 1253 m 1,0,-1
 86 1456 l 1,1,-1
 1140 1456 l 1,2,-1
 1140 1296 l 1,3,-1
 386 202 l 1,4,-1
 1164 202 l 1,5,-1
 1164 0 l 1,6,-1
 80 0 l 1,7,-1
 80 164 l 1,8,-1
 834 1253 l 1,9,-1
 86 1253 l 1,0,-1
EndSplineSet
Substitution2: "'c2sc' Capitals to Small Capitals lookup 0 subtable" Z.smcp
Position2: "'cpsp' Capital Spacing lookup 0 subtable" dx=36 dy=0 dh=72 dv=0
EndChar

StartChar: bracketleft
Encoding: 91 91 64
Width: 562
Flags: W
LayerCount: 2
Fore
SplineSet
541 1679 m 1,0,-1
 541 1489 l 1,1,-1
 375 1489 l 1,2,-1
 375 -135 l 1,3,-1
 541 -135 l 1,4,-1
 541 -325 l 1,5,-1
 132 -325 l 1,6,-1
 132 1679 l 1,7,-1
 541 1679 l 1,0,-1
EndSplineSet
EndChar

StartChar: backslash
Encoding: 92 92 65
Width: 856
Flags: W
LayerCount: 2
Fore
SplineSet
628 -125 m 1,0,-1
 20 1456 l 1,1,-1
 260 1456 l 1,2,-1
 868 -125 l 1,3,-1
 628 -125 l 1,0,-1
EndSplineSet
EndChar

StartChar: bracketright
Encoding: 93 93 66
Width: 562
Flags: W
LayerCount: 2
Fore
SplineSet
13 1489 m 1,0,-1
 13 1679 l 1,1,-1
 422 1679 l 1,2,-1
 422 -325 l 1,3,-1
 13 -325 l 1,4,-1
 13 -135 l 1,5,-1
 179 -135 l 1,6,-1
 179 1489 l 1,7,-1
 13 1489 l 1,0,-1
EndSplineSet
EndChar

StartChar: asciicircum
Encoding: 94 94 67
Width: 876
Flags: W
LayerCount: 2
Fore
SplineSet
53 729 m 1,0,-1
 352 1456 l 1,1,-1
 524 1456 l 1,2,-1
 822 729 l 1,3,-1
 616 729 l 1,4,-1
 438 1192 l 1,5,-1
 260 729 l 1,6,-1
 53 729 l 1,0,-1
EndSplineSet
EndChar

StartChar: underscore
Encoding: 95 95 68
Width: 924
Flags: W
LayerCount: 2
Fore
SplineSet
921 0 m 1,0,-1
 921 -192 l 1,1,-1
 3 -192 l 1,2,-1
 3 0 l 1,3,-1
 921 0 l 1,0,-1
EndSplineSet
EndChar

StartChar: grave
Encoding: 96 96 69
Width: 660
Flags: W
LayerCount: 2
Fore
SplineSet
326 1536 m 1,0,-1
 522 1234 l 1,1,-1
 320 1234 l 1,2,-1
 49 1536 l 1,3,-1
 326 1536 l 1,0,-1
EndSplineSet
EndChar

StartChar: a
Encoding: 97 97 70
Width: 1109
GlyphClass: 2
Flags: W
AnchorPoint: "Anchor-5" 1109 1290 basechar 0
AnchorPoint: "Anchor-4" 871 654 basechar 0
AnchorPoint: "Anchor-3" 1109 -407 basechar 0
AnchorPoint: "Anchor-2" 1109 1600 basechar 0
AnchorPoint: "Anchor-1" 489 8 basechar 0
AnchorPoint: "Anchor-0" 567 1290 basechar 0
LayerCount: 2
Fore
SplineSet
772 0 m 1,0,1
 754 37 754 37 744 102 c 1,2,3
 697 52 697 52 626 16 c 128,-1,4
 555 -20 555 -20 459 -20 c 0,5,6
 297 -20 297 -20 194 73 c 128,-1,7
 91 166 91 166 91 304 c 0,8,9
 91 477 91 477 220 569 c 128,-1,10
 349 661 349 661 583 661 c 2,11,-1
 736 661 l 1,12,-1
 736 732 l 2,13,14
 736 817 736 817 688.5 867.5 c 128,-1,15
 641 918 641 918 546 918 c 0,16,17
 459 918 459 918 407.5 875 c 128,-1,18
 356 832 356 832 356 770 c 1,19,-1
 114 770 l 1,20,21
 114 898 114 898 234.5 1000 c 128,-1,22
 355 1102 355 1102 560 1102 c 0,23,24
 742 1102 742 1102 860.5 1009 c 128,-1,25
 979 916 979 916 979 730 c 2,26,-1
 979 250 l 2,27,28
 979 104 979 104 1020 17 c 1,29,-1
 1020 0 l 1,30,-1
 772 0 l 1,0,1
505 175 m 256,31,32
 589 175 589 175 650 215.5 c 128,-1,33
 711 256 711 256 736 305 c 1,34,-1
 736 509 l 1,35,-1
 605 509 l 2,36,37
 333 509 333 509 333 328 c 0,38,39
 333 263 333 263 377 219 c 128,-1,40
 421 175 421 175 505 175 c 256,31,32
EndSplineSet
Substitution2: "'unic' Unicase lookup 2 subtable" A.unic
Substitution2: "'smcp' Lowercase to Small Capitals lookup 1 subtable" A.smcp
EndChar

StartChar: b
Encoding: 98 98 71
Width: 1153
GlyphClass: 2
Flags: W
AnchorPoint: "Anchor-5" 1153 1607 basechar 0
AnchorPoint: "Anchor-3" 1153 -407 basechar 0
AnchorPoint: "Anchor-2" 1153 1600 basechar 0
AnchorPoint: "Anchor-1" 628 -10 basechar 0
AnchorPoint: "Anchor-0" 653 1607 basechar 0
LayerCount: 2
Fore
SplineSet
1074 530 m 2,0,1
 1074 291 1074 291 966.5 135.5 c 128,-1,2
 859 -20 859 -20 653 -20 c 0,3,4
 464 -20 464 -20 356 118 c 1,5,-1
 345 0 l 1,6,-1
 125 0 l 1,7,-1
 125 1536 l 1,8,-1
 367 1536 l 1,9,-1
 367 978 l 1,10,11
 473 1102 473 1102 651 1102 c 0,12,13
 860 1102 860 1102 967 948.5 c 128,-1,14
 1074 795 1074 795 1074 551 c 2,15,-1
 1074 530 l 2,0,1
589 904 m 0,16,17
 504 904 504 904 450.5 865.5 c 128,-1,18
 397 827 397 827 367 764 c 1,19,-1
 367 320 l 1,20,21
 397 258 397 258 451 218.5 c 128,-1,22
 505 179 505 179 591 179 c 0,23,24
 726 179 726 179 779 280.5 c 128,-1,25
 832 382 832 382 832 530 c 2,26,-1
 832 551 l 2,27,28
 832 694 832 694 780 799 c 128,-1,29
 728 904 728 904 589 904 c 0,16,17
EndSplineSet
Substitution2: "'ss06' Style Set 6 lookup 25 subtable" b.ss06
Substitution2: "'unic' Unicase lookup 2 subtable" B
Substitution2: "'smcp' Lowercase to Small Capitals lookup 1 subtable" B.smcp
EndChar

StartChar: c
Encoding: 99 99 72
Width: 1073
GlyphClass: 2
Flags: W
AnchorPoint: "Anchor-5" 1073 1290 basechar 0
AnchorPoint: "Anchor-3" 1073 -407 basechar 0
AnchorPoint: "Anchor-2" 1073 1600 basechar 0
AnchorPoint: "Anchor-1" 542 -7 basechar 0
AnchorPoint: "Anchor-0" 533 1290 basechar 0
LayerCount: 2
Fore
SplineSet
570 175 m 0,0,1
 658 175 658 175 719 226.5 c 128,-1,2
 780 278 780 278 785 358 c 1,3,-1
 1013 358 l 1,4,5
 1008 201 1008 201 880.5 90.5 c 128,-1,6
 753 -20 753 -20 572 -20 c 0,7,8
 322 -20 322 -20 201 140 c 128,-1,9
 80 300 80 300 80 523 c 2,10,-1
 80 559 l 2,11,12
 80 781 80 781 201.5 941.5 c 128,-1,13
 323 1102 323 1102 572 1102 c 0,14,15
 768 1102 768 1102 888 988 c 128,-1,16
 1008 874 1008 874 1013 695 c 1,17,-1
 785 695 l 1,18,19
 780 782 780 782 724 844.5 c 128,-1,20
 668 907 668 907 569 907 c 0,21,22
 421 907 421 907 371.5 797.5 c 128,-1,23
 322 688 322 688 322 559 c 2,24,-1
 322 523 l 2,25,26
 322 392 322 392 371 283.5 c 128,-1,27
 420 175 420 175 570 175 c 0,0,1
EndSplineSet
Substitution2: "'ss06' Style Set 6 lookup 25 subtable" c.ss06
Substitution2: "'unic' Unicase lookup 2 subtable" C
Substitution2: "'smcp' Lowercase to Small Capitals lookup 1 subtable" C.smcp
EndChar

StartChar: d
Encoding: 100 100 73
Width: 1157
GlyphClass: 2
Flags: W
AnchorPoint: "Anchor-5" 1157 1607 basechar 0
AnchorPoint: "Anchor-3" 1157 -407 basechar 0
AnchorPoint: "Anchor-2" 1157 1600 basechar 0
AnchorPoint: "Anchor-1" 605 0 basechar 0
AnchorPoint: "Anchor-0" 525 1607 basechar 0
LayerCount: 2
Fore
SplineSet
807 0 m 1,0,-1
 796 112 l 1,1,2
 688 -20 688 -20 505 -20 c 0,3,4
 310 -20 310 -20 195 136.5 c 128,-1,5
 80 293 80 293 80 529 c 2,6,-1
 80 550 l 2,7,8
 80 797 80 797 194.5 949.5 c 128,-1,9
 309 1102 309 1102 507 1102 c 0,10,11
 679 1102 679 1102 785 983 c 1,12,-1
 785 1536 l 1,13,-1
 1028 1536 l 1,14,-1
 1028 0 l 1,15,-1
 807 0 l 1,0,-1
322 529 m 2,16,17
 322 384 322 384 379 281.5 c 128,-1,18
 436 179 436 179 567 179 c 0,19,20
 649 179 649 179 701.5 216 c 128,-1,21
 754 253 754 253 785 313 c 1,22,-1
 785 774 l 1,23,24
 754 833 754 833 701 868.5 c 128,-1,25
 648 904 648 904 569 904 c 0,26,27
 437 904 437 904 379.5 800 c 128,-1,28
 322 696 322 696 322 550 c 2,29,-1
 322 529 l 2,16,17
EndSplineSet
Substitution2: "'ss06' Style Set 6 lookup 25 subtable" d.ss06
Substitution2: "'unic' Unicase lookup 2 subtable" D
Substitution2: "'smcp' Lowercase to Small Capitals lookup 1 subtable" D.smcp
EndChar

StartChar: e
Encoding: 101 101 74
Width: 1099
GlyphClass: 2
Flags: W
AnchorPoint: "Anchor-5" 1099 1290 basechar 0
AnchorPoint: "Anchor-4" 914 654 basechar 0
AnchorPoint: "Anchor-3" 1099 -407 basechar 0
AnchorPoint: "Anchor-2" 1099 1600 basechar 0
AnchorPoint: "Anchor-1" 569 0 basechar 0
AnchorPoint: "Anchor-0" 555 1290 basechar 0
LayerCount: 2
Fore
SplineSet
1018 184 m 1,0,1
 966 108 966 108 864.5 44 c 128,-1,2
 763 -20 763 -20 601 -20 c 0,3,4
 360 -20 360 -20 222 130 c 128,-1,5
 84 280 84 280 84 503 c 2,6,-1
 84 544 l 2,7,8
 84 800 84 800 225.5 951 c 128,-1,9
 367 1102 367 1102 573 1102 c 0,10,11
 809 1102 809 1102 922.5 952 c 128,-1,12
 1036 802 1036 802 1036 568 c 2,13,-1
 1036 465 l 1,14,-1
 329 465 l 1,15,16
 339 340 339 340 413.5 257.5 c 128,-1,17
 488 175 488 175 616 175 c 0,18,19
 704 175 704 175 771 210.5 c 128,-1,20
 838 246 838 246 887 309 c 1,21,-1
 1018 184 l 1,0,1
573 907 m 0,22,23
 473 907 473 907 412 837 c 128,-1,24
 351 767 351 767 333 643 c 1,25,-1
 795 643 l 1,26,-1
 795 661 l 1,27,28
 790 756 790 756 742 831.5 c 128,-1,29
 694 907 694 907 573 907 c 0,22,23
EndSplineSet
Substitution2: "'ss07' Style Set 7 lookup 26 subtable" e.ss07
Substitution2: "'unic' Unicase lookup 2 subtable" E.unic
Substitution2: "'smcp' Lowercase to Small Capitals lookup 1 subtable" E.smcp
EndChar

StartChar: f
Encoding: 102 102 75
Width: 726
GlyphClass: 2
Flags: W
AnchorPoint: "Anchor-5" 726 1726 basechar 0
AnchorPoint: "Anchor-3" 726 -407 basechar 0
AnchorPoint: "Anchor-2" 726 1600 basechar 0
AnchorPoint: "Anchor-1" 330 10 basechar 0
AnchorPoint: "Anchor-0" 480 1726 basechar 0
LayerCount: 2
Fore
SplineSet
673 903 m 1,0,-1
 454 903 l 1,1,-1
 454 0 l 1,2,-1
 210 0 l 1,3,-1
 210 903 l 1,4,-1
 45 903 l 1,5,-1
 45 1082 l 1,6,-1
 210 1082 l 1,7,-1
 210 1185 l 2,8,9
 210 1366 210 1366 312 1461.5 c 128,-1,10
 414 1557 414 1557 590 1557 c 0,11,12
 657 1557 657 1557 727 1539 c 1,13,-1
 721 1349 l 1,14,15
 679 1357 679 1357 627 1357 c 0,16,17
 454 1357 454 1357 454 1185 c 2,18,-1
 454 1082 l 1,19,-1
 673 1082 l 1,20,-1
 673 903 l 1,0,-1
EndSplineSet
Substitution2: "'unic' Unicase lookup 2 subtable" F
Substitution2: "'smcp' Lowercase to Small Capitals lookup 1 subtable" F.smcp
EndChar

StartChar: g
Encoding: 103 103 76
Width: 1161
GlyphClass: 2
Flags: W
AnchorPoint: "Anchor-5" 1161 1290 basechar 0
AnchorPoint: "Anchor-3" 1161 -407 basechar 0
AnchorPoint: "Anchor-2" 1161 1600 basechar 0
AnchorPoint: "Anchor-1" 554 -447 basechar 0
AnchorPoint: "Anchor-0" 555 1290 basechar 0
LayerCount: 2
Fore
SplineSet
1037 30 m 2,0,1
 1037 -189 1037 -189 900.5 -307.5 c 128,-1,2
 764 -426 764 -426 546 -426 c 0,3,4
 457 -426 457 -426 335 -385.5 c 128,-1,5
 213 -345 213 -345 141 -247 c 1,6,-1
 256 -102 l 1,7,8
 316 -172 316 -172 386.5 -203.5 c 128,-1,9
 457 -235 457 -235 532 -235 c 0,10,11
 653 -235 653 -235 723.5 -168.5 c 128,-1,12
 794 -102 794 -102 794 25 c 2,13,-1
 794 98 l 1,14,15
 688 -20 688 -20 514 -20 c 0,16,17
 315 -20 315 -20 198.5 136.5 c 128,-1,18
 82 293 82 293 82 529 c 2,19,-1
 82 550 l 2,20,21
 82 797 82 797 198.5 949.5 c 128,-1,22
 315 1102 315 1102 516 1102 c 0,23,24
 702 1102 702 1102 807 975 c 1,25,-1
 817 1082 l 1,26,-1
 1037 1082 l 1,27,-1
 1037 30 l 2,0,1
325 529 m 2,28,29
 325 384 325 384 385 281.5 c 128,-1,30
 445 179 445 179 576 179 c 0,31,32
 658 179 658 179 710.5 214 c 128,-1,33
 763 249 763 249 794 307 c 1,34,-1
 794 780 l 1,35,36
 763 837 763 837 710 870.5 c 128,-1,37
 657 904 657 904 578 904 c 0,38,39
 446 904 446 904 385.5 800 c 128,-1,40
 325 696 325 696 325 550 c 2,41,-1
 325 529 l 2,28,29
EndSplineSet
Substitution2: "'ss07' Style Set 7 lookup 26 subtable" g.ss07
Substitution2: "'ss06' Style Set 6 lookup 25 subtable" g.ss06
Substitution2: "'ss01' Style Set 1 lookup 20 subtable" g.alt
Substitution2: "'salt' Stylistic Alternatives lookup 19 subtable" g.alt
Substitution2: "'unic' Unicase lookup 2 subtable" G
Substitution2: "'smcp' Lowercase to Small Capitals lookup 1 subtable" G.smcp
EndChar

StartChar: h
Encoding: 104 104 77
Width: 1137
GlyphClass: 2
Flags: W
AnchorPoint: "Anchor-5" 1137 1640 basechar 0
AnchorPoint: "Anchor-3" 1137 -407 basechar 0
AnchorPoint: "Anchor-2" 1137 1600 basechar 0
AnchorPoint: "Anchor-1" 587 10 basechar 0
AnchorPoint: "Anchor-0" 514 1640 basechar 0
LayerCount: 2
Fore
SplineSet
583 904 m 0,0,1
 436 904 436 904 364 773 c 1,2,-1
 364 0 l 1,3,-1
 122 0 l 1,4,-1
 122 1536 l 1,5,-1
 364 1536 l 1,6,-1
 364 963 l 1,7,8
 482 1102 482 1102 665 1102 c 0,9,10
 825 1102 825 1102 921 1010 c 128,-1,11
 1017 918 1017 918 1017 697 c 2,12,-1
 1017 0 l 1,13,-1
 774 0 l 1,14,-1
 774 699 l 2,15,16
 774 812 774 812 725 858 c 128,-1,17
 676 904 676 904 583 904 c 0,0,1
EndSplineSet
Substitution2: "'unic' Unicase lookup 2 subtable" H
Substitution2: "'smcp' Lowercase to Small Capitals lookup 1 subtable" H.smcp
EndChar

StartChar: i
Encoding: 105 105 78
Width: 524
GlyphClass: 2
Flags: W
AnchorPoint: "Anchor-5" 524 1600 basechar 0
AnchorPoint: "Anchor-4" 308 654 basechar 0
AnchorPoint: "Anchor-3" 524 -407 basechar 0
AnchorPoint: "Anchor-2" 524 1600 basechar 0
AnchorPoint: "Anchor-1" 262 10 basechar 0
AnchorPoint: "Anchor-0" 263 1600 basechar 0
LayerCount: 2
Fore
SplineSet
125 1364 m 256,0,1
 125 1420 125 1420 161.5 1456.5 c 128,-1,2
 198 1493 198 1493 263 1493 c 256,3,4
 328 1493 328 1493 364.5 1456.5 c 128,-1,5
 401 1420 401 1420 401 1364 c 256,6,7
 401 1308 401 1308 364.5 1271.5 c 128,-1,8
 328 1235 328 1235 263 1235 c 256,9,10
 198 1235 198 1235 161.5 1271.5 c 128,-1,11
 125 1308 125 1308 125 1364 c 256,0,1
383 1082 m 1,12,-1
 383 0 l 1,13,-1
 140 0 l 1,14,-1
 140 1082 l 1,15,-1
 383 1082 l 1,12,-1
EndSplineSet
Substitution2: "Single Substitution lookup 5 subtable" uni0069.ccmp
Substitution2: "'unic' Unicase lookup 2 subtable" I
Substitution2: "'smcp' Lowercase to Small Capitals lookup 1 subtable" I.smcp
EndChar

StartChar: j
Encoding: 106 106 79
Width: 513
GlyphClass: 2
Flags: W
AnchorPoint: "Anchor-5" 513 1600 basechar 0
AnchorPoint: "Anchor-3" 513 -407 basechar 0
AnchorPoint: "Anchor-2" 513 1600 basechar 0
AnchorPoint: "Anchor-1" 190 -459 basechar 0
AnchorPoint: "Anchor-0" 223 1600 basechar 0
LayerCount: 2
Fore
SplineSet
114 1364 m 256,0,1
 114 1420 114 1420 150.5 1456.5 c 128,-1,2
 187 1493 187 1493 252 1493 c 256,3,4
 317 1493 317 1493 353.5 1456.5 c 128,-1,5
 390 1420 390 1420 390 1364 c 256,6,7
 390 1308 390 1308 353.5 1271.5 c 128,-1,8
 317 1235 317 1235 252 1235 c 256,9,10
 187 1235 187 1235 150.5 1271.5 c 128,-1,11
 114 1308 114 1308 114 1364 c 256,0,1
135 1082 m 1,12,-1
 378 1082 l 1,13,-1
 378 -96 l 2,14,15
 378 -437 378 -437 54 -437 c 0,16,17
 -14 -437 -14 -437 -76 -420 c 1,18,-1
 -76 -229 l 1,19,20
 -30 -237 -30 -237 12 -237 c 0,21,22
 135 -237 135 -237 135 -96 c 2,23,-1
 135 1082 l 1,12,-1
EndSplineSet
Substitution2: "Single Substitution lookup 5 subtable" uni006A.ccmp
Substitution2: "'unic' Unicase lookup 2 subtable" J
Substitution2: "'smcp' Lowercase to Small Capitals lookup 1 subtable" J.smcp
EndChar

StartChar: k
Encoding: 107 107 80
Width: 1069
GlyphClass: 2
Flags: W
AnchorPoint: "Anchor-5" 939 1607 basechar 0
AnchorPoint: "Anchor-3" 1069 -407 basechar 0
AnchorPoint: "Anchor-2" 1069 1600 basechar 0
AnchorPoint: "Anchor-1" 546 54 basechar 0
AnchorPoint: "Anchor-0" 599 1607 basechar 0
LayerCount: 2
Fore
SplineSet
798 0 m 1,0,-1
 477 466 l 1,1,-1
 368 354 l 1,2,-1
 368 0 l 1,3,-1
 125 0 l 1,4,-1
 125 1536 l 1,5,-1
 368 1536 l 1,6,-1
 368 650 l 1,7,-1
 445 746 l 1,8,-1
 744 1082 l 1,9,-1
 1036 1082 l 1,10,-1
 633 632 l 1,11,-1
 1079 0 l 1,12,-1
 798 0 l 1,0,-1
EndSplineSet
Substitution2: "'ss05' Style Set 5 lookup 24 subtable" k.alt2
Substitution2: "'ss04' Style Set 4 lookup 23 subtable" k.alt
Substitution2: "'unic' Unicase lookup 2 subtable" K
Substitution2: "'smcp' Lowercase to Small Capitals lookup 1 subtable" K.smcp
EndChar

StartChar: l
Encoding: 108 108 81
Width: 524
GlyphClass: 2
Flags: W
AnchorPoint: "Anchor-5" 524 1691 basechar 0
AnchorPoint: "Anchor-3" 524 -407 basechar 0
AnchorPoint: "Anchor-2" 524 1600 basechar 0
AnchorPoint: "Anchor-1" 262 10 basechar 0
AnchorPoint: "Anchor-0" 262 1691 basechar 0
LayerCount: 2
Fore
SplineSet
383 1536 m 1,0,-1
 383 0 l 1,1,-1
 140 0 l 1,2,-1
 140 1536 l 1,3,-1
 383 1536 l 1,0,-1
EndSplineSet
Substitution2: "'unic' Unicase lookup 2 subtable" L
Substitution2: "'smcp' Lowercase to Small Capitals lookup 1 subtable" L.smcp
EndChar

StartChar: m
Encoding: 109 109 82
Width: 1783
GlyphClass: 2
Flags: W
AnchorPoint: "Anchor-5" 1783 1290 basechar 0
AnchorPoint: "Anchor-3" 1783 -407 basechar 0
AnchorPoint: "Anchor-2" 1783 1600 basechar 0
AnchorPoint: "Anchor-1" 899 10 basechar 0
AnchorPoint: "Anchor-0" 908 1290 basechar 0
LayerCount: 2
Fore
SplineSet
575 904 m 0,0,1
 497 904 497 904 446 871.5 c 128,-1,2
 395 839 395 839 367 784 c 1,3,-1
 367 0 l 1,4,-1
 125 0 l 1,5,-1
 125 1082 l 1,6,-1
 353 1082 l 1,7,-1
 360 969 l 1,8,9
 475 1102 475 1102 673 1102 c 0,10,11
 772 1102 772 1102 849.5 1062.5 c 128,-1,12
 927 1023 927 1023 969 937 c 1,13,14
 1023 1012 1023 1012 1106 1057 c 128,-1,15
 1189 1102 1189 1102 1302 1102 c 0,16,17
 1468 1102 1468 1102 1563 1009 c 128,-1,18
 1658 916 1658 916 1658 701 c 2,19,-1
 1658 0 l 1,20,-1
 1415 0 l 1,21,-1
 1415 702 l 2,22,23
 1415 822 1415 822 1362.5 863 c 128,-1,24
 1310 904 1310 904 1220 904 c 0,25,26
 1137 904 1137 904 1084.5 859 c 128,-1,27
 1032 814 1032 814 1012 742 c 0,28,29
 1012 732 1012 732 1012 721 c 2,30,-1
 1012 0 l 1,31,-1
 769 0 l 1,32,-1
 769 700 l 2,33,34
 769 814 769 814 717 859 c 128,-1,35
 665 904 665 904 575 904 c 0,0,1
EndSplineSet
Substitution2: "'unic' Unicase lookup 2 subtable" M.unic
Substitution2: "'smcp' Lowercase to Small Capitals lookup 1 subtable" M.smcp
EndChar

StartChar: n
Encoding: 110 110 83
Width: 1139
GlyphClass: 2
Flags: W
AnchorPoint: "Anchor-5" 1139 1290 basechar 0
AnchorPoint: "Anchor-3" 1139 -407 basechar 0
AnchorPoint: "Anchor-2" 1139 1600 basechar 0
AnchorPoint: "Anchor-1" 567 10 basechar 0
AnchorPoint: "Anchor-0" 574 1290 basechar 0
LayerCount: 2
Fore
SplineSet
583 904 m 0,0,1
 438 904 438 904 365 772 c 1,2,-1
 365 0 l 1,3,-1
 122 0 l 1,4,-1
 122 1082 l 1,5,-1
 351 1082 l 1,6,-1
 359 958 l 1,7,8
 478 1102 478 1102 672 1102 c 0,9,10
 829 1102 829 1102 923 1011 c 128,-1,11
 1017 920 1017 920 1017 700 c 2,12,-1
 1017 0 l 1,13,-1
 774 0 l 1,14,-1
 774 702 l 2,15,16
 774 814 774 814 725.5 859 c 128,-1,17
 677 904 677 904 583 904 c 0,0,1
EndSplineSet
Substitution2: "'unic' Unicase lookup 2 subtable" N.unic
Substitution2: "'smcp' Lowercase to Small Capitals lookup 1 subtable" N.smcp
EndChar

StartChar: o
Encoding: 111 111 84
Width: 1166
GlyphClass: 2
Flags: W
AnchorPoint: "Anchor-5" 1166 1290 basechar 0
AnchorPoint: "Anchor-4" 982 654 basechar 0
AnchorPoint: "Anchor-3" 1166 -407 basechar 0
AnchorPoint: "Anchor-2" 1166 1600 basechar 0
AnchorPoint: "Anchor-1" 583 -4 basechar 0
AnchorPoint: "Anchor-0" 576 1290 basechar 0
LayerCount: 2
Fore
SplineSet
80 530 m 2,0,-1
 80 551 l 2,1,2
 80 786 80 786 213 944 c 128,-1,3
 346 1102 346 1102 582 1102 c 0,4,5
 820 1102 820 1102 953 944 c 128,-1,6
 1086 786 1086 786 1086 551 c 2,7,-1
 1086 530 l 2,8,9
 1086 294 1086 294 953.5 137 c 128,-1,10
 821 -20 821 -20 584 -20 c 0,11,12
 346 -20 346 -20 213 137 c 128,-1,13
 80 294 80 294 80 530 c 2,0,-1
322 551 m 2,14,-1
 322 530 l 2,15,16
 322 384 322 384 384.5 279.5 c 128,-1,17
 447 175 447 175 584 175 c 0,18,19
 718 175 718 175 780.5 279.5 c 128,-1,20
 843 384 843 384 843 530 c 2,21,-1
 843 551 l 2,22,23
 843 694 843 694 780.5 800.5 c 128,-1,24
 718 907 718 907 582 907 c 0,25,26
 447 907 447 907 384.5 800.5 c 128,-1,27
 322 694 322 694 322 551 c 2,14,-1
EndSplineSet
Substitution2: "'ss06' Style Set 6 lookup 25 subtable" o.ss06
Substitution2: "'unic' Unicase lookup 2 subtable" O
Substitution2: "'smcp' Lowercase to Small Capitals lookup 1 subtable" O.smcp
EndChar

StartChar: p
Encoding: 112 112 85
Width: 1153
GlyphClass: 2
Flags: W
AnchorPoint: "Anchor-5" 1153 1280 basechar 0
AnchorPoint: "Anchor-3" 1153 -407 basechar 0
AnchorPoint: "Anchor-2" 1153 1600 basechar 0
AnchorPoint: "Anchor-1" 244 -407 basechar 0
AnchorPoint: "Anchor-0" 648 1280 basechar 0
LayerCount: 2
Fore
SplineSet
652 -20 m 0,0,1
 475 -20 475 -20 367 97 c 1,2,-1
 367 -416 l 1,3,-1
 125 -416 l 1,4,-1
 125 1082 l 1,5,-1
 348 1082 l 1,6,-1
 358 973 l 1,7,8
 467 1102 467 1102 650 1102 c 0,9,10
 856 1102 856 1102 964.5 950 c 128,-1,11
 1073 798 1073 798 1073 551 c 2,12,-1
 1073 530 l 2,13,14
 1073 294 1073 294 964 137 c 128,-1,15
 855 -20 855 -20 652 -20 c 0,0,1
582 904 m 0,16,17
 502 904 502 904 449.5 870.5 c 128,-1,18
 397 837 397 837 367 779 c 1,19,-1
 367 302 l 1,20,21
 397 245 397 245 449 210 c 128,-1,22
 501 175 501 175 584 175 c 0,23,24
 714 175 714 175 772 280.5 c 128,-1,25
 830 386 830 386 830 530 c 2,26,-1
 830 551 l 2,27,28
 830 697 830 697 771.5 800.5 c 128,-1,29
 713 904 713 904 582 904 c 0,16,17
EndSplineSet
Substitution2: "'ss06' Style Set 6 lookup 25 subtable" p.ss06
Substitution2: "'unic' Unicase lookup 2 subtable" P
Substitution2: "'smcp' Lowercase to Small Capitals lookup 1 subtable" P.smcp
EndChar

StartChar: q
Encoding: 113 113 86
Width: 1163
GlyphClass: 2
Flags: W
AnchorPoint: "Anchor-5" 1163 1290 basechar 0
AnchorPoint: "Anchor-3" 1163 -407 basechar 0
AnchorPoint: "Anchor-2" 1163 1600 basechar 0
AnchorPoint: "Anchor-1" 908 -407 basechar 0
AnchorPoint: "Anchor-0" 537 1290 basechar 0
LayerCount: 2
Fore
SplineSet
1027 1082 m 1,0,-1
 1027 -416 l 1,1,-1
 784 -416 l 1,2,-1
 784 93 l 1,3,4
 678 -20 678 -20 508 -20 c 0,5,6
 306 -20 306 -20 193 137 c 128,-1,7
 80 294 80 294 80 530 c 2,8,-1
 80 551 l 2,9,10
 80 798 80 798 192 950 c 128,-1,11
 304 1102 304 1102 510 1102 c 0,12,13
 690 1102 690 1102 797 976 c 1,14,-1
 810 1082 l 1,15,-1
 1027 1082 l 1,0,-1
322 530 m 2,16,17
 322 385 322 385 380 280 c 128,-1,18
 438 175 438 175 569 175 c 0,19,20
 649 175 649 175 701 209 c 128,-1,21
 753 243 753 243 784 299 c 1,22,-1
 784 789 l 1,23,24
 752 843 752 843 700 875 c 128,-1,25
 648 907 648 907 571 907 c 0,26,27
 440 907 440 907 381 801.5 c 128,-1,28
 322 696 322 696 322 551 c 2,29,-1
 322 530 l 2,16,17
EndSplineSet
Substitution2: "'ss06' Style Set 6 lookup 25 subtable" q.ss06
Substitution2: "'unic' Unicase lookup 2 subtable" Q
Substitution2: "'smcp' Lowercase to Small Capitals lookup 1 subtable" Q.smcp
EndChar

StartChar: r
Encoding: 114 114 87
Width: 720
GlyphClass: 2
Flags: W
AnchorPoint: "Anchor-5" 720 1290 basechar 0
AnchorPoint: "Anchor-3" 720 -407 basechar 0
AnchorPoint: "Anchor-2" 720 1600 basechar 0
AnchorPoint: "Anchor-1" 256 10 basechar 0
AnchorPoint: "Anchor-0" 409 1290 basechar 0
LayerCount: 2
Fore
SplineSet
593 868 m 0,0,1
 424 868 424 868 367 740 c 1,2,-1
 367 0 l 1,3,-1
 125 0 l 1,4,-1
 125 1082 l 1,5,-1
 357 1082 l 1,6,-1
 363 960 l 1,7,8
 403 1026 403 1026 464 1064 c 128,-1,9
 525 1102 525 1102 607 1102 c 0,10,11
 656 1102 656 1102 693 1089 c 1,12,-1
 691 860 l 1,13,14
 641 868 641 868 593 868 c 0,0,1
EndSplineSet
Substitution2: "'unic' Unicase lookup 2 subtable" R
Substitution2: "'smcp' Lowercase to Small Capitals lookup 1 subtable" R.smcp
EndChar

StartChar: s
Encoding: 115 115 88
Width: 1058
GlyphClass: 2
Flags: W
AnchorPoint: "Anchor-5" 1058 1290 basechar 0
AnchorPoint: "Anchor-3" 1058 -407 basechar 0
AnchorPoint: "Anchor-2" 1058 1600 basechar 0
AnchorPoint: "Anchor-1" 549 -10 basechar 0
AnchorPoint: "Anchor-0" 549 1290 basechar 0
LayerCount: 2
Fore
SplineSet
732 294 m 0,0,1
 732 346 732 346 689 385 c 128,-1,2
 646 424 646 424 500 454 c 0,3,4
 327 491 327 491 219.5 564.5 c 128,-1,5
 112 638 112 638 112 774 c 0,6,7
 112 907 112 907 224 1004.5 c 128,-1,8
 336 1102 336 1102 529 1102 c 0,9,10
 732 1102 732 1102 847.5 1003 c 128,-1,11
 963 904 963 904 963 758 c 1,12,-1
 720 758 l 1,13,14
 720 821 720 821 672 870.5 c 128,-1,15
 624 920 624 920 529 920 c 0,16,17
 437 920 437 920 393 879 c 128,-1,18
 349 838 349 838 349 784 c 0,19,20
 349 731 349 731 394.5 699 c 128,-1,21
 440 667 440 667 571 639 c 0,22,23
 759 598 759 598 864.5 525.5 c 128,-1,24
 970 453 970 453 970 308 c 0,25,26
 970 164 970 164 851 72 c 128,-1,27
 732 -20 732 -20 533 -20 c 0,28,29
 310 -20 310 -20 193 94 c 128,-1,30
 76 208 76 208 76 342 c 1,31,-1
 312 342 l 1,32,33
 316 242 316 242 385.5 202 c 128,-1,34
 455 162 455 162 535 162 c 0,35,36
 631 162 631 162 681.5 199 c 128,-1,37
 732 236 732 236 732 294 c 0,0,1
EndSplineSet
Substitution2: "'unic' Unicase lookup 2 subtable" S
Substitution2: "'smcp' Lowercase to Small Capitals lookup 1 subtable" S.smcp
EndChar

StartChar: t
Encoding: 116 116 89
Width: 682
GlyphClass: 2
Flags: W
AnchorPoint: "Anchor-5" 682 1476 basechar 0
AnchorPoint: "Anchor-3" 682 -407 basechar 0
AnchorPoint: "Anchor-2" 682 1600 basechar 0
AnchorPoint: "Anchor-1" 446 0 basechar 0
AnchorPoint: "Anchor-0" 326 1476 basechar 0
LayerCount: 2
Fore
SplineSet
627 4 m 1,0,1
 598 -6 598 -6 559 -13 c 128,-1,2
 520 -20 520 -20 467 -20 c 0,3,4
 346 -20 346 -20 266.5 48.5 c 128,-1,5
 187 117 187 117 187 284 c 2,6,-1
 187 903 l 1,7,-1
 8 903 l 1,8,-1
 8 1082 l 1,9,-1
 187 1082 l 1,10,-1
 187 1345 l 1,11,-1
 429 1345 l 1,12,-1
 429 1082 l 1,13,-1
 620 1082 l 1,14,-1
 620 903 l 1,15,-1
 429 903 l 1,16,-1
 429 298 l 2,17,18
 429 225 429 225 460.5 203.5 c 128,-1,19
 492 182 492 182 542 182 c 0,20,21
 566 182 566 182 590 185.5 c 128,-1,22
 614 189 614 189 627 192 c 1,23,-1
 627 4 l 1,0,1
EndSplineSet
Substitution2: "'unic' Unicase lookup 2 subtable" T
Substitution2: "'smcp' Lowercase to Small Capitals lookup 1 subtable" T.smcp
EndChar

StartChar: u
Encoding: 117 117 90
Width: 1138
GlyphClass: 2
Flags: W
AnchorPoint: "Anchor-5" 1138 1290 basechar 0
AnchorPoint: "Anchor-4" 924 654 basechar 0
AnchorPoint: "Anchor-3" 1138 -407 basechar 0
AnchorPoint: "Anchor-2" 1138 1600 basechar 0
AnchorPoint: "Anchor-1" 567 0 basechar 0
AnchorPoint: "Anchor-0" 569 1290 basechar 0
LayerCount: 2
Fore
SplineSet
786 0 m 1,0,-1
 780 106 l 1,1,2
 674 -20 674 -20 476 -20 c 0,3,4
 317 -20 317 -20 218 74 c 128,-1,5
 119 168 119 168 119 383 c 2,6,-1
 119 1082 l 1,7,-1
 362 1082 l 1,8,-1
 362 381 l 2,9,10
 362 264 362 264 413.5 221.5 c 128,-1,11
 465 179 465 179 534 179 c 0,12,13
 627 179 627 179 685 213 c 128,-1,14
 743 247 743 247 772 304 c 1,15,-1
 772 1082 l 1,16,-1
 1015 1082 l 1,17,-1
 1015 0 l 1,18,-1
 786 0 l 1,0,-1
EndSplineSet
Substitution2: "'unic' Unicase lookup 2 subtable" U.unic
Substitution2: "'smcp' Lowercase to Small Capitals lookup 1 subtable" U.smcp
EndChar

StartChar: v
Encoding: 118 118 91
Width: 1014
GlyphClass: 2
Flags: W
AnchorPoint: "Anchor-5" 1014 1280 basechar 0
AnchorPoint: "Anchor-3" 1014 -407 basechar 0
AnchorPoint: "Anchor-2" 1014 1600 basechar 0
AnchorPoint: "Anchor-1" 513 10 basechar 0
AnchorPoint: "Anchor-0" 513 1280 basechar 0
LayerCount: 2
Fore
SplineSet
987 1082 m 1,0,-1
 612 0 l 1,1,-1
 401 0 l 1,2,-1
 23 1082 l 1,3,-1
 274 1082 l 1,4,-1
 508 309 l 1,5,-1
 736 1082 l 1,6,-1
 987 1082 l 1,0,-1
EndSplineSet
Substitution2: "'unic' Unicase lookup 2 subtable" V
Substitution2: "'smcp' Lowercase to Small Capitals lookup 1 subtable" V.smcp
EndChar

StartChar: w
Encoding: 119 119 92
Width: 1522
GlyphClass: 2
Flags: W
AnchorPoint: "Anchor-5" 1522 1290 basechar 0
AnchorPoint: "Anchor-3" 1522 -407 basechar 0
AnchorPoint: "Anchor-2" 1522 1600 basechar 0
AnchorPoint: "Anchor-1" 760 10 basechar 0
AnchorPoint: "Anchor-0" 757 1290 basechar 0
LayerCount: 2
Fore
SplineSet
1485 1082 m 1,0,-1
 1189 0 l 1,1,-1
 989 0 l 1,2,-1
 757 742 l 1,3,-1
 529 0 l 1,4,-1
 330 0 l 1,5,-1
 34 1082 l 1,6,-1
 271 1082 l 1,7,-1
 446 344 l 1,8,-1
 667 1082 l 1,9,-1
 851 1082 l 1,10,-1
 1076 334 l 1,11,-1
 1248 1082 l 1,12,-1
 1485 1082 l 1,0,-1
EndSplineSet
Substitution2: "'unic' Unicase lookup 2 subtable" W
Substitution2: "'smcp' Lowercase to Small Capitals lookup 1 subtable" W.smcp
EndChar

StartChar: x
Encoding: 120 120 93
Width: 1031
GlyphClass: 2
Flags: W
AnchorPoint: "Anchor-5" 1031 1280 basechar 0
AnchorPoint: "Anchor-3" 1031 -407 basechar 0
AnchorPoint: "Anchor-2" 1031 1600 basechar 0
AnchorPoint: "Anchor-1" 517 10 basechar 0
AnchorPoint: "Anchor-0" 516 1280 basechar 0
LayerCount: 2
Fore
SplineSet
312 1082 m 1,0,-1
 514 726 l 1,1,-1
 720 1082 l 1,2,-1
 989 1082 l 1,3,-1
 659 550 l 1,4,-1
 1001 0 l 1,5,-1
 732 0 l 1,6,-1
 516 370 l 1,7,-1
 301 0 l 1,8,-1
 31 0 l 1,9,-1
 373 550 l 1,10,-1
 43 1082 l 1,11,-1
 312 1082 l 1,0,-1
EndSplineSet
Substitution2: "'unic' Unicase lookup 2 subtable" X
Substitution2: "'smcp' Lowercase to Small Capitals lookup 1 subtable" X.smcp
EndChar

StartChar: y
Encoding: 121 121 94
Width: 997
GlyphClass: 2
Flags: W
AnchorPoint: "Anchor-5" 997 1290 basechar 0
AnchorPoint: "Anchor-4" 765 654 basechar 0
AnchorPoint: "Anchor-3" 997 -407 basechar 0
AnchorPoint: "Anchor-2" 997 1600 basechar 0
AnchorPoint: "Anchor-1" 752 -135 basechar 0
AnchorPoint: "Anchor-0" 514 1290 basechar 0
LayerCount: 2
Fore
SplineSet
552 -164 m 2,0,1
 532 -218 532 -218 494.5 -282 c 128,-1,2
 457 -346 457 -346 390 -391.5 c 128,-1,3
 323 -437 323 -437 217 -437 c 0,4,5
 186 -437 186 -437 155 -431.5 c 128,-1,6
 124 -426 124 -426 100 -420 c 1,7,-1
 100 -232 l 1,8,9
 109 -233 109 -233 123.5 -234 c 128,-1,10
 138 -235 138 -235 146 -235 c 0,11,12
 236 -235 236 -235 283 -202.5 c 128,-1,13
 330 -170 330 -170 357 -89 c 2,14,-1
 392 5 l 1,15,-1
 12 1082 l 1,16,-1
 275 1082 l 1,17,-1
 504 347 l 1,18,-1
 724 1082 l 1,19,-1
 983 1082 l 1,20,-1
 552 -164 l 2,0,1
EndSplineSet
Substitution2: "'unic' Unicase lookup 2 subtable" Y
Substitution2: "'smcp' Lowercase to Small Capitals lookup 1 subtable" Y.smcp
EndChar

StartChar: z
Encoding: 122 122 95
Width: 1031
GlyphClass: 2
Flags: W
AnchorPoint: "Anchor-5" 1031 1290 basechar 0
AnchorPoint: "Anchor-3" 1031 -407 basechar 0
AnchorPoint: "Anchor-2" 1031 1600 basechar 0
AnchorPoint: "Anchor-1" 525 10 basechar 0
AnchorPoint: "Anchor-0" 519 1290 basechar 0
LayerCount: 2
Fore
SplineSet
93 886 m 1,0,-1
 93 1082 l 1,1,-1
 939 1082 l 1,2,-1
 939 929 l 1,3,-1
 385 195 l 1,4,-1
 960 195 l 1,5,-1
 960 0 l 1,6,-1
 82 0 l 1,7,-1
 82 159 l 1,8,-1
 632 886 l 1,9,-1
 93 886 l 1,0,-1
EndSplineSet
Substitution2: "'unic' Unicase lookup 2 subtable" Z
Substitution2: "'smcp' Lowercase to Small Capitals lookup 1 subtable" Z.smcp
EndChar

StartChar: braceleft
Encoding: 123 123 96
Width: 687
Flags: W
LayerCount: 2
Fore
SplineSet
250 309 m 2,0,1
 250 410 250 410 204.5 470 c 128,-1,2
 159 530 159 530 56 530 c 1,3,-1
 56 708 l 1,4,5
 159 708 159 708 204.5 768 c 128,-1,6
 250 828 250 828 250 929 c 2,7,-1
 250 1132 l 2,8,9
 250 1290 250 1290 327 1414.5 c 128,-1,10
 404 1539 404 1539 610 1597 c 1,11,-1
 658 1457 l 1,12,13
 554 1422 554 1422 516 1334 c 128,-1,14
 478 1246 478 1246 478 1132 c 2,15,-1
 478 929 l 2,16,17
 478 830 478 830 437 748 c 128,-1,18
 396 666 396 666 306 619 c 1,19,20
 396 572 396 572 437 490 c 128,-1,21
 478 408 478 408 478 309 c 2,22,-1
 478 106 l 2,23,24
 478 -8 478 -8 516 -96 c 128,-1,25
 554 -184 554 -184 658 -219 c 1,26,-1
 610 -360 l 1,27,28
 404 -302 404 -302 327 -177 c 128,-1,29
 250 -52 250 -52 250 106 c 2,30,-1
 250 309 l 2,0,1
EndSplineSet
EndChar

StartChar: bar
Encoding: 124 124 97
Width: 514
Flags: W
LayerCount: 2
Fore
SplineSet
342 1456 m 1,0,-1
 342 -270 l 1,1,-1
 174 -270 l 1,2,-1
 174 1456 l 1,3,-1
 342 1456 l 1,0,-1
EndSplineSet
EndChar

StartChar: braceright
Encoding: 125 125 98
Width: 687
Flags: W
LayerCount: 2
Fore
SplineSet
436 929 m 2,0,1
 436 828 436 828 481.5 768 c 128,-1,2
 527 708 527 708 630 708 c 1,3,-1
 630 530 l 1,4,5
 527 530 527 530 481.5 470 c 128,-1,6
 436 410 436 410 436 309 c 2,7,-1
 436 106 l 2,8,9
 436 -52 436 -52 359.5 -177 c 128,-1,10
 283 -302 283 -302 76 -360 c 1,11,-1
 28 -219 l 1,12,13
 132 -184 132 -184 169.5 -96 c 128,-1,14
 207 -8 207 -8 207 106 c 2,15,-1
 207 309 l 2,16,17
 207 411 207 411 250.5 492.5 c 128,-1,18
 294 574 294 574 389 619 c 1,19,20
 294 664 294 664 250.5 745.5 c 128,-1,21
 207 827 207 827 207 929 c 2,22,-1
 207 1132 l 2,23,24
 207 1246 207 1246 169.5 1334 c 128,-1,25
 132 1422 132 1422 28 1457 c 1,26,-1
 76 1597 l 1,27,28
 283 1539 283 1539 359.5 1414.5 c 128,-1,29
 436 1290 436 1290 436 1132 c 2,30,-1
 436 929 l 2,0,1
EndSplineSet
EndChar

StartChar: asciitilde
Encoding: 126 126 99
Width: 1361
Flags: W
LayerCount: 2
Fore
SplineSet
1057 786 m 1,0,-1
 1244 787 l 1,1,2
 1244 614 1244 614 1150.5 501 c 128,-1,3
 1057 388 1057 388 913 388 c 0,4,5
 828 388 828 388 763 421.5 c 128,-1,6
 698 455 698 455 624 523 c 0,7,8
 578 566 578 566 538.5 589.5 c 128,-1,9
 499 613 499 613 455 613 c 0,10,11
 388 613 388 613 349.5 561 c 128,-1,12
 311 509 311 509 311 425 c 1,13,-1
 118 425 l 1,14,15
 118 600 118 600 210.5 708 c 128,-1,16
 303 816 303 816 448 816 c 0,17,18
 531 816 531 816 599 781 c 128,-1,19
 667 746 667 746 738 681 c 0,20,21
 832 591 832 591 906 591 c 0,22,23
 973 591 973 591 1015 646 c 128,-1,24
 1057 701 1057 701 1057 786 c 1,0,-1
EndSplineSet
EndChar

StartChar: exclamdown
Encoding: 161 161 100
Width: 543
Flags: W
LayerCount: 2
Fore
SplineSet
410 971 m 256,0,1
 410 916 410 916 373.5 878 c 128,-1,2
 337 840 337 840 272 840 c 256,3,4
 207 840 207 840 170.5 878 c 128,-1,5
 134 916 134 916 134 971 c 256,6,7
 134 1026 134 1026 170.5 1063.5 c 128,-1,8
 207 1101 207 1101 272 1101 c 256,9,10
 337 1101 337 1101 373.5 1063.5 c 128,-1,11
 410 1026 410 1026 410 971 c 256,0,1
147 -365 m 1,12,-1
 170 662 l 1,13,-1
 379 662 l 1,14,-1
 403 -365 l 1,15,-1
 147 -365 l 1,12,-1
EndSplineSet
EndChar

StartChar: cent
Encoding: 162 162 101
Width: 1149
Flags: W
LayerCount: 2
Fore
SplineSet
1035 358 m 1,0,1
 1030 222 1030 222 932 119.5 c 128,-1,2
 834 17 834 17 688 -11 c 1,3,-1
 688 -245 l 1,4,-1
 488 -245 l 1,5,-1
 488 -11 l 1,6,7
 292 24 292 24 196.5 174.5 c 128,-1,8
 101 325 101 325 101 523 c 2,9,-1
 101 559 l 2,10,11
 101 756 101 756 196.5 907 c 128,-1,12
 292 1058 292 1058 488 1093 c 1,13,-1
 488 1318 l 1,14,-1
 688 1318 l 1,15,-1
 688 1094 l 1,16,17
 844 1067 844 1067 937 959.5 c 128,-1,18
 1030 852 1030 852 1035 695 c 1,19,-1
 806 695 l 1,20,21
 802 782 802 782 746 844.5 c 128,-1,22
 690 907 690 907 590 907 c 0,23,24
 442 907 442 907 393 797.5 c 128,-1,25
 344 688 344 688 344 559 c 2,26,-1
 344 523 l 2,27,28
 344 392 344 392 392.5 283.5 c 128,-1,29
 441 175 441 175 591 175 c 0,30,31
 680 175 680 175 741 226.5 c 128,-1,32
 802 278 802 278 806 358 c 1,33,-1
 1035 358 l 1,0,1
EndSplineSet
EndChar

StartChar: sterling
Encoding: 163 163 102
Width: 1206
Flags: W
LayerCount: 2
Fore
SplineSet
99 0 m 1,0,-1
 99 202 l 1,1,-1
 180 202 l 1,2,3
 230 215 230 215 246.5 283.5 c 128,-1,4
 263 352 263 352 263 414 c 2,5,-1
 257 599 l 1,6,-1
 95 599 l 1,7,-1
 95 798 l 1,8,-1
 250 798 l 1,9,-1
 242 1039 l 1,10,11
 242 1246 242 1246 369.5 1361 c 128,-1,12
 497 1476 497 1476 695 1476 c 0,13,14
 903 1476 903 1476 1016.5 1365 c 128,-1,15
 1130 1254 1130 1254 1130 1073 c 1,16,-1
 885 1073 l 1,17,18
 885 1183 885 1183 824.5 1228 c 128,-1,19
 764 1273 764 1273 685 1273 c 0,20,21
 605 1273 605 1273 549.5 1213 c 128,-1,22
 494 1153 494 1153 494 1039 c 1,23,-1
 503 798 l 1,24,-1
 814 798 l 1,25,-1
 814 599 l 1,26,-1
 510 599 l 1,27,-1
 517 422 l 1,28,29
 517 286 517 286 452 202 c 1,30,-1
 1148 202 l 1,31,-1
 1148 0 l 1,32,-1
 99 0 l 1,0,-1
EndSplineSet
Substitution2: "'c2sc' Capitals to Small Capitals lookup 0 subtable" sterling.smcp
Position2: "'cpsp' Capital Spacing lookup 0 subtable" dx=36 dy=0 dh=72 dv=0
EndChar

StartChar: currency
Encoding: 164 164 103
Width: 1438
Flags: W
LayerCount: 2
Fore
SplineSet
1359 118 m 1,0,-1
 1217 -27 l 1,1,-1
 1086 108 l 1,2,3
 927 -20 927 -20 724 -20 c 0,4,5
 522 -20 522 -20 363 106 c 1,6,-1
 234 -26 l 1,7,-1
 93 118 l 1,8,-1
 229 256 l 1,9,10
 128 413 128 413 128 608 c 0,11,12
 128 812 128 812 237 973 c 1,13,-1
 93 1120 l 1,14,-1
 234 1264 l 1,15,-1
 376 1119 l 1,16,17
 531 1234 531 1234 724 1234 c 0,18,19
 918 1234 918 1234 1073 1117 c 1,20,-1
 1217 1265 l 1,21,-1
 1359 1120 l 1,22,-1
 1212 970 l 1,23,24
 1318 809 1318 809 1318 608 c 0,25,26
 1318 416 1318 416 1220 259 c 1,27,-1
 1359 118 l 1,0,-1
314 608 m 256,28,29
 314 424 314 424 433.5 295 c 128,-1,30
 553 166 553 166 724 166 c 0,31,32
 894 166 894 166 1013.5 295 c 128,-1,33
 1133 424 1133 424 1133 608 c 256,34,35
 1133 792 1133 792 1013.5 920.5 c 128,-1,36
 894 1049 894 1049 724 1049 c 0,37,38
 553 1049 553 1049 433.5 920.5 c 128,-1,39
 314 792 314 792 314 608 c 256,28,29
EndSplineSet
EndChar

StartChar: yen
Encoding: 165 165 104
Width: 1089
Flags: W
LayerCount: 2
Fore
SplineSet
970 301 m 1,0,-1
 667 301 l 1,1,-1
 667 0 l 1,2,-1
 415 0 l 1,3,-1
 415 301 l 1,4,-1
 107 301 l 1,5,-1
 107 452 l 1,6,-1
 415 452 l 1,7,-1
 415 590 l 1,8,-1
 107 590 l 1,9,-1
 107 742 l 1,10,-1
 354 742 l 1,11,-1
 12 1456 l 1,12,-1
 284 1456 l 1,13,-1
 546 848 l 1,14,-1
 807 1456 l 1,15,-1
 1077 1456 l 1,16,-1
 735 742 l 1,17,-1
 970 742 l 1,18,-1
 970 590 l 1,19,-1
 667 590 l 1,20,-1
 667 452 l 1,21,-1
 970 452 l 1,22,-1
 970 301 l 1,0,-1
EndSplineSet
Substitution2: "'c2sc' Capitals to Small Capitals lookup 0 subtable" yen.smcp
Position2: "'cpsp' Capital Spacing lookup 0 subtable" dx=36 dy=0 dh=72 dv=0
EndChar

StartChar: brokenbar
Encoding: 166 166 105
Width: 509
Flags: W
LayerCount: 2
Fore
SplineSet
366 1456 m 1,0,-1
 366 698 l 1,1,-1
 137 698 l 1,2,-1
 137 1456 l 1,3,-1
 366 1456 l 1,0,-1
366 -270 m 1,4,-1
 137 -270 l 1,5,-1
 137 525 l 1,6,-1
 366 525 l 1,7,-1
 366 -270 l 1,4,-1
EndSplineSet
EndChar

StartChar: section
Encoding: 167 167 106
Width: 1273
Flags: W
LayerCount: 2
Fore
SplineSet
1129 -104 m 0,0,1
 1129 -282 1129 -282 991.5 -378.5 c 128,-1,2
 854 -475 854 -475 625 -475 c 0,3,4
 492 -475 492 -475 369.5 -436 c 128,-1,5
 247 -397 247 -397 168.5 -304.5 c 128,-1,6
 90 -212 90 -212 90 -50 c 1,7,-1
 333 -49 l 1,8,9
 333 -182 333 -182 427 -230.5 c 128,-1,10
 521 -279 521 -279 625 -279 c 0,11,12
 751 -279 751 -279 818.5 -230.5 c 128,-1,13
 886 -182 886 -182 886 -106 c 0,14,15
 886 -27 886 -27 818 18 c 128,-1,16
 750 63 750 63 565 118 c 1,17,18
 344 177 344 177 219 267.5 c 128,-1,19
 94 358 94 358 94 543 c 0,20,21
 94 727 94 727 264 816 c 1,22,23
 199 866 199 866 164.5 935 c 128,-1,24
 130 1004 130 1004 130 1102 c 0,25,26
 130 1272 130 1272 268 1374.5 c 128,-1,27
 406 1477 406 1477 636 1477 c 0,28,29
 872 1477 872 1477 1007.5 1366 c 128,-1,30
 1143 1255 1143 1255 1143 1048 c 1,31,-1
 900 1048 l 1,32,33
 900 1145 900 1145 833 1213.5 c 128,-1,34
 766 1282 766 1282 636 1282 c 0,35,36
 499 1282 499 1282 436 1229.5 c 128,-1,37
 373 1177 373 1177 373 1104 c 0,38,39
 373 1018 373 1018 435.5 975 c 128,-1,40
 498 932 498 932 691 880 c 0,41,42
 918 819 918 819 1041.5 729.5 c 128,-1,43
 1165 640 1165 640 1165 455 c 0,44,45
 1165 271 1165 271 995 183 c 1,46,47
 1060 133 1060 133 1094.5 64.5 c 128,-1,48
 1129 -4 1129 -4 1129 -104 c 0,0,1
654 324 m 0,49,50
 746 299 746 299 811 275 c 1,51,52
 924 322 924 322 924 440 c 0,53,54
 924 521 924 521 855.5 569.5 c 128,-1,55
 787 618 787 618 602 673 c 0,56,57
 509 699 509 699 444 723 c 1,58,59
 337 681 337 681 337 558 c 0,60,61
 337 470 337 470 399 424.5 c 128,-1,62
 461 379 461 379 654 324 c 0,49,50
EndSplineSet
EndChar

StartChar: dieresis
Encoding: 168 168 107
Width: 901
Flags: W
LayerCount: 2
Fore
SplineSet
94 1366 m 256,0,1
 94 1416 94 1416 128 1450.5 c 128,-1,2
 162 1485 162 1485 220 1485 c 256,3,4
 278 1485 278 1485 312.5 1450.5 c 128,-1,5
 347 1416 347 1416 347 1366 c 256,6,7
 347 1316 347 1316 312.5 1282.5 c 128,-1,8
 278 1249 278 1249 220 1249 c 256,9,10
 162 1249 162 1249 128 1282.5 c 128,-1,11
 94 1316 94 1316 94 1366 c 256,0,1
551 1365 m 0,12,13
 551 1415 551 1415 584.5 1449.5 c 128,-1,14
 618 1484 618 1484 677 1484 c 256,15,16
 736 1484 736 1484 770 1449.5 c 128,-1,17
 804 1415 804 1415 804 1365 c 0,18,19
 804 1316 804 1316 770 1282 c 128,-1,20
 736 1248 736 1248 677 1248 c 256,21,22
 618 1248 618 1248 584.5 1282 c 128,-1,23
 551 1316 551 1316 551 1365 c 0,12,13
EndSplineSet
EndChar

StartChar: copyright
Encoding: 169 169 108
Width: 1605
Flags: W
LayerCount: 2
Fore
SplineSet
87 729 m 256,0,1
 87 940 87 940 183 1109.5 c 128,-1,2
 279 1279 279 1279 440 1377.5 c 128,-1,3
 601 1476 601 1476 797 1476 c 0,4,5
 992 1476 992 1476 1153.5 1377.5 c 128,-1,6
 1315 1279 1315 1279 1411 1109.5 c 128,-1,7
 1507 940 1507 940 1507 729 c 256,8,9
 1507 518 1507 518 1411 348 c 128,-1,10
 1315 178 1315 178 1153.5 78.5 c 128,-1,11
 992 -21 992 -21 797 -21 c 0,12,13
 601 -21 601 -21 440 78.5 c 128,-1,14
 279 178 279 178 183 348 c 128,-1,15
 87 518 87 518 87 729 c 256,0,1
209 729 m 256,16,17
 209 552 209 552 288.5 410.5 c 128,-1,18
 368 269 368 269 501 186.5 c 128,-1,19
 634 104 634 104 797 104 c 0,20,21
 959 104 959 104 1092.5 186.5 c 128,-1,22
 1226 269 1226 269 1305 410.5 c 128,-1,23
 1384 552 1384 552 1384 729 c 256,24,25
 1384 906 1384 906 1305 1046.5 c 128,-1,26
 1226 1187 1226 1187 1092.5 1269 c 128,-1,27
 959 1351 959 1351 797 1351 c 0,28,29
 634 1351 634 1351 501 1269 c 128,-1,30
 368 1187 368 1187 288.5 1046.5 c 128,-1,31
 209 906 209 906 209 729 c 256,16,17
962 596 m 1,32,-1
 1118 596 l 1,33,34
 1118 438 1118 438 1028 360 c 128,-1,35
 938 282 938 282 783 282 c 0,36,37
 622 282 622 282 528 389 c 128,-1,38
 434 496 434 496 434 669 c 2,39,-1
 434 788 l 2,40,41
 434 960 434 960 528 1067.5 c 128,-1,42
 622 1175 622 1175 783 1175 c 0,43,44
 938 1175 938 1175 1028.5 1097 c 128,-1,45
 1119 1019 1119 1019 1119 862 c 1,46,-1
 963 862 l 1,47,48
 963 958 963 958 917.5 999 c 128,-1,49
 872 1040 872 1040 783 1040 c 0,50,51
 687 1040 687 1040 638 969.5 c 128,-1,52
 589 899 589 899 589 789 c 2,53,-1
 589 669 l 2,54,55
 589 557 589 557 638 487 c 128,-1,56
 687 417 687 417 783 417 c 0,57,58
 872 417 872 417 917 457.5 c 128,-1,59
 962 498 962 498 962 596 c 1,32,-1
EndSplineSet
EndChar

StartChar: ordfeminine
Encoding: 170 170 109
Width: 914
Flags: W
LayerCount: 2
Fore
SplineSet
609 706 m 1,0,1
 598 738 598 738 592 774 c 1,2,3
 561 741 561 741 511.5 716.5 c 128,-1,4
 462 692 462 692 391 692 c 0,5,6
 271 692 271 692 206.5 754 c 128,-1,7
 142 816 142 816 142 920 c 0,8,9
 142 1151 142 1151 483 1151 c 2,10,-1
 585 1151 l 1,11,-1
 585 1202 l 2,12,13
 585 1329 585 1329 469 1329 c 0,14,15
 331 1329 331 1329 331 1230 c 1,16,-1
 158 1244 l 1,17,18
 158 1345 158 1345 243 1411 c 128,-1,19
 328 1477 328 1477 469 1477 c 0,20,21
 600 1477 600 1477 680 1407.5 c 128,-1,22
 760 1338 760 1338 760 1201 c 2,23,-1
 760 887 l 2,24,25
 760 785 760 785 786 706 c 1,26,-1
 609 706 l 1,0,1
434 836 m 0,27,28
 474 836 474 836 516 854.5 c 128,-1,29
 558 873 558 873 585 898 c 1,30,-1
 585 1034 l 1,31,-1
 484 1034 l 2,32,33
 397 1034 397 1034 357 1001 c 128,-1,34
 317 968 317 968 317 924 c 0,35,36
 317 836 317 836 434 836 c 0,27,28
EndSplineSet
EndChar

StartChar: logicalnot
Encoding: 172 172 111
Width: 1134
Flags: W
LayerCount: 2
Fore
SplineSet
127 805 m 1,0,-1
 962 805 l 1,1,-1
 962 374 l 1,2,-1
 762 374 l 1,3,-1
 762 634 l 1,4,-1
 127 634 l 1,5,-1
 127 805 l 1,0,-1
EndSplineSet
EndChar

StartChar: registered
Encoding: 174 174 112
Width: 1605
Flags: W
LayerCount: 2
Fore
SplineSet
87 729 m 256,0,1
 87 940 87 940 183 1109.5 c 128,-1,2
 279 1279 279 1279 440 1377.5 c 128,-1,3
 601 1476 601 1476 797 1476 c 0,4,5
 992 1476 992 1476 1153.5 1377.5 c 128,-1,6
 1315 1279 1315 1279 1411 1109.5 c 128,-1,7
 1507 940 1507 940 1507 729 c 256,8,9
 1507 518 1507 518 1411 348 c 128,-1,10
 1315 178 1315 178 1153.5 78.5 c 128,-1,11
 992 -21 992 -21 797 -21 c 0,12,13
 601 -21 601 -21 440 78.5 c 128,-1,14
 279 178 279 178 183 348 c 128,-1,15
 87 518 87 518 87 729 c 256,0,1
209 729 m 256,16,17
 209 552 209 552 288.5 410.5 c 128,-1,18
 368 269 368 269 501 186.5 c 128,-1,19
 634 104 634 104 797 104 c 0,20,21
 959 104 959 104 1092.5 186.5 c 128,-1,22
 1226 269 1226 269 1305 410.5 c 128,-1,23
 1384 552 1384 552 1384 729 c 256,24,25
 1384 906 1384 906 1305 1046.5 c 128,-1,26
 1226 1187 1226 1187 1092.5 1269 c 128,-1,27
 959 1351 959 1351 797 1351 c 0,28,29
 634 1351 634 1351 501 1269 c 128,-1,30
 368 1187 368 1187 288.5 1046.5 c 128,-1,31
 209 906 209 906 209 729 c 256,16,17
811 653 m 2,32,-1
 653 653 l 1,33,-1
 653 316 l 1,34,-1
 502 316 l 1,35,-1
 502 1166 l 1,36,-1
 783 1166 l 2,37,38
 932 1166 932 1166 1020 1101 c 128,-1,39
 1108 1036 1108 1036 1108 907 c 0,40,41
 1108 790 1108 790 989 726 c 1,42,43
 1053 697 1053 697 1079 641.5 c 128,-1,44
 1105 586 1105 586 1105 515 c 2,45,-1
 1105 459 l 2,46,47
 1105 422 1105 422 1108.5 388 c 128,-1,48
 1112 354 1112 354 1122 332 c 1,49,-1
 1122 316 l 1,50,-1
 967 316 l 1,51,52
 957 342 957 342 955.5 390 c 128,-1,53
 954 438 954 438 954 460 c 2,54,-1
 954 514 l 2,55,56
 954 653 954 653 811 653 c 2,32,-1
653 1033 m 1,57,-1
 653 787 l 1,58,-1
 797 787 l 2,59,60
 861 788 861 788 909.5 817 c 128,-1,61
 958 846 958 846 958 903 c 0,62,63
 958 976 958 976 919 1004.5 c 128,-1,64
 880 1033 880 1033 783 1033 c 2,65,-1
 653 1033 l 1,57,-1
EndSplineSet
EndChar

StartChar: macron
Encoding: 175 175 113
Width: 988
Flags: W
LayerCount: 2
Fore
SplineSet
842 1450 m 1,0,-1
 842 1292 l 1,1,-1
 156 1292 l 1,2,-1
 156 1450 l 1,3,-1
 842 1450 l 1,0,-1
EndSplineSet
EndChar

StartChar: degree
Encoding: 176 176 114
Width: 779
Flags: W
LayerCount: 2
Fore
SplineSet
127 1208 m 256,0,1
 127 1318 127 1318 205 1397.5 c 128,-1,2
 283 1477 283 1477 392 1477 c 0,3,4
 499 1477 499 1477 575.5 1397.5 c 128,-1,5
 652 1318 652 1318 652 1208 c 256,6,7
 652 1098 652 1098 575.5 1020.5 c 128,-1,8
 499 943 499 943 392 943 c 0,9,10
 283 943 283 943 205 1020.5 c 128,-1,11
 127 1098 127 1098 127 1208 c 256,0,1
266 1208 m 0,12,13
 266 1155 266 1155 303.5 1119.5 c 128,-1,14
 341 1084 341 1084 392 1084 c 256,15,16
 443 1084 443 1084 478 1119.5 c 128,-1,17
 513 1155 513 1155 513 1208 c 0,18,19
 513 1263 513 1263 478 1299.5 c 128,-1,20
 443 1336 443 1336 392 1336 c 256,21,22
 341 1336 341 1336 303.5 1299.5 c 128,-1,23
 266 1263 266 1263 266 1208 c 0,12,13
EndSplineSet
EndChar

StartChar: plusminus
Encoding: 177 177 115
Width: 1099
Flags: W
LayerCount: 2
Fore
SplineSet
1011 700 m 1,0,-1
 668 700 l 1,1,-1
 668 312 l 1,2,-1
 453 312 l 1,3,-1
 453 700 l 1,4,-1
 95 700 l 1,5,-1
 95 899 l 1,6,-1
 453 899 l 1,7,-1
 453 1276 l 1,8,-1
 668 1276 l 1,9,-1
 668 899 l 1,10,-1
 1011 899 l 1,11,-1
 1011 700 l 1,0,-1
974 197 m 1,12,-1
 974 1 l 1,13,-1
 126 1 l 1,14,-1
 126 197 l 1,15,-1
 974 197 l 1,12,-1
EndSplineSet
EndChar

StartChar: twosuperior
Encoding: 178 178 116
Width: 758
Flags: W
LayerCount: 2
Fore
SplineSet
690 816 m 1,0,-1
 690 667 l 1,1,-1
 78 667 l 1,2,-1
 78 793 l 1,3,-1
 365 1056 l 2,4,5
 426 1111 426 1111 451.5 1153 c 128,-1,6
 477 1195 477 1195 477 1223 c 0,7,8
 477 1318 477 1318 371 1318 c 0,9,10
 307 1318 307 1318 277 1283 c 128,-1,11
 247 1248 247 1248 247 1199 c 1,12,-1
 60 1199 l 1,13,14
 60 1309 60 1309 141 1388 c 128,-1,15
 222 1467 222 1467 364 1467 c 256,16,17
 506 1467 506 1467 585 1402.5 c 128,-1,18
 664 1338 664 1338 664 1224 c 0,19,20
 664 1141 664 1141 611.5 1076.5 c 128,-1,21
 559 1012 559 1012 459 929 c 2,22,-1
 319 816 l 1,23,-1
 690 816 l 1,0,-1
EndSplineSet
EndChar

StartChar: threesuperior
Encoding: 179 179 117
Width: 758
Flags: W
LayerCount: 2
Fore
SplineSet
356 1005 m 2,0,-1
 269 1005 l 1,1,-1
 269 1133 l 1,2,-1
 356 1133 l 2,3,4
 481 1133 481 1133 481 1230 c 0,5,6
 481 1265 481 1265 454 1291.5 c 128,-1,7
 427 1318 427 1318 365 1318 c 0,8,9
 318 1318 318 1318 285.5 1298 c 128,-1,10
 253 1278 253 1278 253 1244 c 1,11,-1
 67 1244 l 1,12,13
 67 1350 67 1350 153.5 1408.5 c 128,-1,14
 240 1467 240 1467 361 1467 c 0,15,16
 498 1467 498 1467 583 1409.5 c 128,-1,17
 668 1352 668 1352 668 1242 c 0,18,19
 668 1123 668 1123 533 1072 c 1,20,21
 681 1031 681 1031 681 888 c 0,22,23
 681 777 681 777 589.5 716.5 c 128,-1,24
 498 656 498 656 361 656 c 0,25,26
 248 656 248 656 151.5 712 c 128,-1,27
 55 768 55 768 55 896 c 1,28,-1
 242 896 l 1,29,30
 242 859 242 859 276.5 832 c 128,-1,31
 311 805 311 805 370 805 c 0,32,33
 433 805 433 805 464 833 c 128,-1,34
 495 861 495 861 495 903 c 0,35,36
 495 1005 495 1005 356 1005 c 2,0,-1
EndSplineSet
EndChar

StartChar: acute
Encoding: 180 180 118
Width: 668
Flags: W
LayerCount: 2
Fore
SplineSet
113 1234 m 1,0,-1
 308 1536 l 1,1,-1
 585 1536 l 1,2,-1
 308 1234 l 1,3,-1
 113 1234 l 1,0,-1
EndSplineSet
EndChar

StartChar: mu
Encoding: 181 181 119
Width: 1211
Flags: W
LayerCount: 2
Fore
SplineSet
586 -21 m 0,0,1
 465 -21 465 -21 389 35 c 1,2,-1
 389 -416 l 1,3,-1
 147 -416 l 1,4,-1
 147 1082 l 1,5,-1
 389 1082 l 1,6,-1
 389 462 l 2,7,8
 389 283 389 283 444.5 229 c 128,-1,9
 500 175 500 175 585 175 c 0,10,11
 676 175 676 175 730.5 207.5 c 128,-1,12
 785 240 785 240 813 297 c 1,13,-1
 813 1082 l 1,14,-1
 1055 1082 l 1,15,-1
 1055 0 l 1,16,-1
 833 0 l 1,17,-1
 826 87 l 1,18,19
 736 -21 736 -21 586 -21 c 0,0,1
EndSplineSet
EndChar

StartChar: paragraph
Encoding: 182 182 120
Width: 1006
Flags: W
LayerCount: 2
Fore
SplineSet
854 0 m 1,0,-1
 645 0 l 1,1,-1
 645 520 l 1,2,-1
 562 520 l 2,3,4
 324 520 324 520 197 653 c 128,-1,5
 70 786 70 786 70 988 c 0,6,7
 70 1189 70 1189 197 1322.5 c 128,-1,8
 324 1456 324 1456 562 1456 c 2,9,-1
 854 1456 l 1,10,-1
 854 0 l 1,0,-1
EndSplineSet
EndChar

StartChar: periodcentered
Encoding: 183 183 121
Width: 578
Flags: W
LayerCount: 2
Fore
SplineSet
142 715 m 0,0,1
 142 772 142 772 179 811 c 128,-1,2
 216 850 216 850 284 850 c 0,3,4
 351 850 351 850 388.5 811 c 128,-1,5
 426 772 426 772 426 715 c 0,6,7
 426 659 426 659 388.5 620.5 c 128,-1,8
 351 582 351 582 284 582 c 0,9,10
 216 582 216 582 179 620.5 c 128,-1,11
 142 659 142 659 142 715 c 0,0,1
EndSplineSet
EndChar

StartChar: cedilla
Encoding: 184 184 122
Width: 529
GlyphClass: 2
Flags: W
AnchorPoint: "Anchor-11" 225 -451 basemark 0
LayerCount: 2
Fore
SplineSet
141 4 m 1,0,-1
 319 4 l 1,1,-1
 307 -51 l 1,2,3
 363 -61 363 -61 410 -99.5 c 128,-1,4
 457 -138 457 -138 457 -224 c 0,5,6
 457 -324 457 -324 374.5 -386 c 128,-1,7
 292 -448 292 -448 131 -448 c 1,8,-1
 124 -310 l 1,9,10
 182 -310 182 -310 221 -289.5 c 128,-1,11
 260 -269 260 -269 260 -221 c 0,12,13
 260 -176 260 -176 225 -159 c 128,-1,14
 190 -142 190 -142 110 -136 c 1,15,-1
 141 4 l 1,0,-1
EndSplineSet
EndChar

StartChar: onesuperior
Encoding: 185 185 123
Width: 758
Flags: W
LayerCount: 2
Fore
SplineSet
515 1455 m 1,0,-1
 515 667 l 1,1,-1
 329 667 l 1,2,-1
 329 1238 l 1,3,-1
 129 1189 l 1,4,-1
 129 1336 l 1,5,-1
 496 1455 l 1,6,-1
 515 1455 l 1,0,-1
EndSplineSet
EndChar

StartChar: ordmasculine
Encoding: 186 186 124
Width: 935
Flags: W
LayerCount: 2
Fore
SplineSet
119 1045 m 2,0,-1
 119 1122 l 2,1,2
 119 1277 119 1277 212.5 1377 c 128,-1,3
 306 1477 306 1477 465 1477 c 0,4,5
 626 1477 626 1477 719 1377 c 128,-1,6
 812 1277 812 1277 812 1122 c 2,7,-1
 812 1045 l 2,8,9
 812 890 812 890 719.5 790.5 c 128,-1,10
 627 691 627 691 467 691 c 0,11,12
 306 691 306 691 212.5 790.5 c 128,-1,13
 119 890 119 890 119 1045 c 2,0,-1
294 1122 m 2,14,-1
 294 1045 l 2,15,16
 294 956 294 956 336.5 896.5 c 128,-1,17
 379 837 379 837 467 837 c 0,18,19
 552 837 552 837 594.5 896.5 c 128,-1,20
 637 956 637 956 637 1045 c 2,21,-1
 637 1122 l 2,22,23
 637 1210 637 1210 594.5 1269.5 c 128,-1,24
 552 1329 552 1329 465 1329 c 0,25,26
 379 1329 379 1329 336.5 1269.5 c 128,-1,27
 294 1210 294 1210 294 1122 c 2,14,-1
EndSplineSet
EndChar

StartChar: questiondown
Encoding: 191 191 129
Width: 997
Flags: W
LayerCount: 2
Fore
SplineSet
651 972 m 256,0,1
 651 916 651 916 614.5 878.5 c 128,-1,2
 578 841 578 841 513 841 c 256,3,4
 448 841 448 841 411.5 878.5 c 128,-1,5
 375 916 375 916 375 972 c 256,6,7
 375 1028 375 1028 411.5 1065 c 128,-1,8
 448 1102 448 1102 513 1102 c 256,9,10
 578 1102 578 1102 614.5 1065 c 128,-1,11
 651 1028 651 1028 651 972 c 256,0,1
403 662 m 1,12,-1
 630 662 l 1,13,14
 629 520 629 520 593.5 444.5 c 128,-1,15
 558 369 558 369 469 278 c 0,16,17
 405 213 405 213 357.5 154.5 c 128,-1,18
 310 96 310 96 310 5 c 0,19,20
 310 -184 310 -184 496 -184 c 0,21,22
 571 -184 571 -184 630 -140 c 128,-1,23
 689 -96 689 -96 690 0 c 1,24,-1
 933 0 l 1,25,26
 931 -188 931 -188 806.5 -287 c 128,-1,27
 682 -386 682 -386 499 -386 c 0,28,29
 294 -386 294 -386 180.5 -285.5 c 128,-1,30
 67 -185 67 -185 67 1 c 0,31,32
 67 134 67 134 144.5 233 c 128,-1,33
 222 332 222 332 314 421 c 0,34,35
 367 472 367 472 384.5 529.5 c 128,-1,36
 402 587 402 587 403 662 c 1,12,-1
EndSplineSet
EndChar

StartChar: AE
Encoding: 198 198 130
Width: 1925
GlyphClass: 2
Flags: W
AnchorPoint: "Anchor-5" 1925 1612 basechar 0
AnchorPoint: "Anchor-2" 1925 1600 basechar 0
AnchorPoint: "Anchor-0" 935 1612 basechar 0
LayerCount: 2
Fore
SplineSet
1879 196 m 1,0,-1
 1879 0 l 1,1,-1
 982 0 l 1,2,-1
 968 341 l 1,3,-1
 464 341 l 1,4,-1
 280 0 l 1,5,-1
 -10 0 l 1,6,-1
 825 1456 l 1,7,-1
 1818 1456 l 1,8,-1
 1818 1260 l 1,9,-1
 1171 1260 l 1,10,-1
 1188 851 l 1,11,-1
 1737 851 l 1,12,-1
 1737 655 l 1,13,-1
 1197 655 l 1,14,-1
 1216 196 l 1,15,-1
 1879 196 l 1,0,-1
580 555 m 1,16,-1
 959 555 l 1,17,-1
 932 1205 l 1,18,-1
 580 555 l 1,16,-1
EndSplineSet
Substitution2: "'c2sc' Capitals to Small Capitals lookup 0 subtable" AE.smcp
Position2: "'cpsp' Capital Spacing lookup 0 subtable" dx=36 dy=0 dh=72 dv=0
EndChar

StartChar: multiply
Encoding: 215 215 131
Width: 1093
Flags: W
LayerCount: 2
Fore
SplineSet
1004 364 m 1,0,-1
 856 215 l 1,1,-1
 540 537 l 1,2,-1
 225 215 l 1,3,-1
 77 364 l 1,4,-1
 393 686 l 1,5,-1
 77 1009 l 1,6,-1
 225 1158 l 1,7,-1
 540 836 l 1,8,-1
 856 1158 l 1,9,-1
 1004 1009 l 1,10,-1
 688 686 l 1,11,-1
 1004 364 l 1,0,-1
EndSplineSet
EndChar

StartChar: Oslash
Encoding: 216 216 132
Width: 1413
GlyphClass: 2
Flags: W
AnchorPoint: "Anchor-5" 1413 1674 basechar 0
AnchorPoint: "Anchor-2" 1413 1600 basechar 0
AnchorPoint: "Anchor-0" 715 1674 basechar 0
LayerCount: 2
Fore
SplineSet
712 -20 m 0,0,1
 546 -20 546 -20 415 55 c 1,2,-1
 324 -95 l 1,3,-1
 156 -95 l 1,4,-1
 300 143 l 1,5,6
 209 235 209 235 157.5 373.5 c 128,-1,7
 106 512 106 512 106 691 c 2,8,-1
 106 764 l 2,9,10
 106 1096 106 1096 274.5 1286 c 128,-1,11
 443 1476 443 1476 710 1476 c 0,12,13
 905 1476 905 1476 1049 1375 c 1,14,-1
 1136 1518 l 1,15,-1
 1303 1518 l 1,16,-1
 1156 1276 l 1,17,18
 1314 1084 1314 1084 1314 764 c 2,19,-1
 1314 691 l 2,20,21
 1314 359 1314 359 1148.5 169.5 c 128,-1,22
 983 -20 983 -20 712 -20 c 0,0,1
359 691 m 2,23,24
 359 484 359 484 430 356 c 1,25,-1
 932 1182 l 1,26,27
 846 1267 846 1267 710 1267 c 0,28,29
 547 1267 547 1267 453 1139 c 128,-1,30
 359 1011 359 1011 359 766 c 2,31,-1
 359 691 l 2,23,24
1061 766 m 2,32,33
 1061 932 1061 932 1017 1047 c 1,34,-1
 529 242 l 1,35,36
 606 188 606 188 712 188 c 0,37,38
 879 188 879 188 970 317 c 128,-1,39
 1061 446 1061 446 1061 691 c 2,40,-1
 1061 766 l 2,32,33
EndSplineSet
Substitution2: "'c2sc' Capitals to Small Capitals lookup 0 subtable" Oslash.smcp
Position2: "'cpsp' Capital Spacing lookup 0 subtable" dx=36 dy=0 dh=72 dv=0
EndChar

StartChar: Thorn
Encoding: 222 222 133
Width: 1227
Flags: W
LayerCount: 2
Fore
SplineSet
637 300 m 2,0,-1
 392 300 l 1,1,-1
 392 0 l 1,2,-1
 149 0 l 1,3,-1
 149 1456 l 1,4,-1
 392 1456 l 1,5,-1
 392 1177 l 1,6,-1
 637 1177 l 2,7,8
 886 1177 886 1177 1018.5 1052.5 c 128,-1,9
 1151 928 1151 928 1151 738 c 256,10,11
 1151 548 1151 548 1018.5 424 c 128,-1,12
 886 300 886 300 637 300 c 2,0,-1
392 982 m 1,13,-1
 392 495 l 1,14,-1
 637 495 l 2,15,16
 782 495 782 495 845 569.5 c 128,-1,17
 908 644 908 644 908 736 c 0,18,19
 908 830 908 830 845 906 c 128,-1,20
 782 982 782 982 637 982 c 2,21,-1
 392 982 l 1,13,-1
EndSplineSet
Substitution2: "'c2sc' Capitals to Small Capitals lookup 0 subtable" Thorn.smcp
Position2: "'cpsp' Capital Spacing lookup 0 subtable" dx=36 dy=0 dh=72 dv=0
EndChar

StartChar: germandbls
Encoding: 223 223 134
Width: 1256
Flags: W
LayerCount: 2
Fore
SplineSet
378 1103 m 2,0,-1
 378 0 l 1,1,-1
 136 0 l 1,2,-1
 136 1106 l 2,3,4
 136 1330 136 1330 255.5 1444 c 128,-1,5
 375 1558 375 1558 572 1558 c 0,6,7
 743 1558 743 1558 858.5 1470.5 c 128,-1,8
 974 1383 974 1383 974 1202 c 0,9,10
 974 1098 974 1098 944 1042.5 c 128,-1,11
 914 987 914 987 884.5 941.5 c 128,-1,12
 855 896 855 896 855 825 c 0,13,14
 855 765 855 765 904 716.5 c 128,-1,15
 953 668 953 668 1017.5 616.5 c 128,-1,16
 1082 565 1082 565 1131 498 c 128,-1,17
 1180 431 1180 431 1180 336 c 0,18,19
 1180 160 1180 160 1068.5 70 c 128,-1,20
 957 -20 957 -20 765 -20 c 0,21,22
 685 -20 685 -20 600 -1 c 128,-1,23
 515 18 515 18 476 44 c 1,24,-1
 525 239 l 1,25,26
 557 220 557 220 619 197.5 c 128,-1,27
 681 175 681 175 751 175 c 0,28,29
 848 175 848 175 892.5 218 c 128,-1,30
 937 261 937 261 937 328 c 0,31,32
 937 394 937 394 888 442.5 c 128,-1,33
 839 491 839 491 775 540 c 128,-1,34
 711 589 711 589 662 654.5 c 128,-1,35
 613 720 613 720 613 820 c 0,36,37
 613 904 613 904 644.5 956.5 c 128,-1,38
 676 1009 676 1009 707.5 1059.5 c 128,-1,39
 739 1110 739 1110 739 1186 c 0,40,41
 739 1272 739 1272 690.5 1317.5 c 128,-1,42
 642 1363 642 1363 567 1363 c 0,43,44
 478 1363 478 1363 428 1302 c 128,-1,45
 378 1241 378 1241 378 1103 c 2,0,-1
EndSplineSet
Substitution2: "'smcp' Lowercase to Small Capitals lookup 1 subtable" Germandbls.smcp
EndChar

StartChar: ae
Encoding: 230 230 135
Width: 1729
GlyphClass: 2
Flags: W
AnchorPoint: "Anchor-5" 1729 1291 basechar 0
AnchorPoint: "Anchor-2" 1729 1600 basechar 0
AnchorPoint: "Anchor-0" 860 1291 basechar 0
LayerCount: 2
Fore
SplineSet
1646 100 m 1,0,1
 1606 68 1606 68 1506 23.5 c 128,-1,2
 1406 -21 1406 -21 1255 -21 c 0,3,4
 1125 -21 1125 -21 1026.5 22 c 128,-1,5
 928 65 928 65 862 141 c 1,6,7
 809 79 809 79 706.5 29 c 128,-1,8
 604 -21 604 -21 448 -21 c 0,9,10
 266 -21 266 -21 169 69.5 c 128,-1,11
 72 160 72 160 72 312 c 0,12,13
 72 470 72 470 192 556.5 c 128,-1,14
 312 643 312 643 544 643 c 2,15,-1
 734 643 l 1,16,-1
 734 713 l 2,17,18
 734 803 734 803 687 855 c 128,-1,19
 640 907 640 907 552 907 c 0,20,21
 457 907 457 907 401 861 c 128,-1,22
 345 815 345 815 345 752 c 1,23,-1
 103 771 l 1,24,25
 103 915 103 915 226.5 1008.5 c 128,-1,26
 350 1102 350 1102 553 1102 c 0,27,28
 779 1102 779 1102 888 970 c 1,29,30
 1018 1103 1018 1103 1219 1102 c 0,31,32
 1435 1102 1435 1102 1552 970 c 128,-1,33
 1669 838 1669 838 1669 612 c 2,34,-1
 1669 471 l 1,35,-1
 973 471 l 1,36,37
 982 345 982 345 1052.5 259.5 c 128,-1,38
 1123 174 1123 174 1269 174 c 0,39,40
 1382 174 1382 174 1451.5 204.5 c 128,-1,41
 1521 235 1521 235 1574 266 c 1,42,-1
 1646 100 l 1,0,1
1219 907 m 0,43,44
 1112 907 1112 907 1052 832.5 c 128,-1,45
 992 758 992 758 977 643 c 1,46,-1
 1428 643 l 1,47,-1
 1428 672 l 2,48,49
 1428 771 1428 771 1380 839 c 128,-1,50
 1332 907 1332 907 1219 907 c 0,43,44
496 165 m 0,51,52
 559 165 559 165 625 195.5 c 128,-1,53
 691 226 691 226 734 266 c 1,54,-1
 734 476 l 1,55,-1
 546 476 l 2,56,57
 432 476 432 476 373.5 425 c 128,-1,58
 315 374 315 374 315 308 c 0,59,60
 315 246 315 246 359 205.5 c 128,-1,61
 403 165 403 165 496 165 c 0,51,52
EndSplineSet
Substitution2: "'unic' Unicase lookup 2 subtable" AE
Substitution2: "'smcp' Lowercase to Small Capitals lookup 1 subtable" AE.smcp
EndChar

StartChar: eth
Encoding: 240 240 136
Width: 1191
Flags: W
LayerCount: 2
Fore
SplineSet
1089 555 m 2,0,1
 1089 299 1089 299 948.5 139.5 c 128,-1,2
 808 -20 808 -20 593 -20 c 0,3,4
 376 -20 376 -20 240 122 c 128,-1,5
 104 264 104 264 104 468 c 0,6,7
 104 696 104 696 228 834.5 c 128,-1,8
 352 973 352 973 555 973 c 0,9,10
 702 973 702 973 814 883 c 1,11,12
 787 972 787 972 742.5 1044.5 c 128,-1,13
 698 1117 698 1117 639 1174 c 1,14,-1
 434 1038 l 1,15,-1
 356 1147 l 1,16,-1
 529 1262 l 1,17,18
 464 1305 464 1305 390.5 1335.5 c 128,-1,19
 317 1366 317 1366 240 1385 c 1,20,-1
 315 1580 l 1,21,22
 553 1531 553 1531 731 1396 c 1,23,-1
 911 1515 l 1,24,-1
 988 1406 l 1,25,-1
 835 1304 l 1,26,27
 954 1181 954 1181 1021.5 1013 c 128,-1,28
 1089 845 1089 845 1089 642 c 2,29,-1
 1089 555 l 2,0,1
346 468 m 0,30,31
 346 356 346 356 411.5 265.5 c 128,-1,32
 477 175 477 175 597 175 c 0,33,34
 716 175 716 175 781 279.5 c 128,-1,35
 846 384 846 384 846 541 c 2,36,-1
 846 644 l 2,37,38
 846 662 846 662 845 680 c 1,39,40
 818 722 818 722 759.5 753.5 c 128,-1,41
 701 785 701 785 611 785 c 0,42,43
 484 785 484 785 415 700 c 128,-1,44
 346 615 346 615 346 468 c 0,30,31
EndSplineSet
Substitution2: "'unic' Unicase lookup 2 subtable" Eth
Substitution2: "'smcp' Lowercase to Small Capitals lookup 1 subtable" Eth.smcp
EndChar

StartChar: divide
Encoding: 247 247 137
Width: 1170
Flags: W
LayerCount: 2
Fore
SplineSet
435 1095 m 0,0,1
 435 1153 435 1153 472.5 1191 c 128,-1,2
 510 1229 510 1229 577 1229 c 256,3,4
 644 1229 644 1229 681.5 1191 c 128,-1,5
 719 1153 719 1153 719 1095 c 0,6,7
 719 1039 719 1039 681.5 1001.5 c 128,-1,8
 644 964 644 964 577 964 c 256,9,10
 510 964 510 964 472.5 1001.5 c 128,-1,11
 435 1039 435 1039 435 1095 c 0,0,1
1080 795 m 1,12,-1
 1080 583 l 1,13,-1
 68 583 l 1,14,-1
 68 795 l 1,15,-1
 1080 795 l 1,12,-1
435 279 m 0,16,17
 435 336 435 336 472.5 374 c 128,-1,18
 510 412 510 412 577 412 c 256,19,20
 644 412 644 412 681.5 374 c 128,-1,21
 719 336 719 336 719 279 c 0,22,23
 719 223 719 223 681.5 185 c 128,-1,24
 644 147 644 147 577 147 c 256,25,26
 510 147 510 147 472.5 185 c 128,-1,27
 435 223 435 223 435 279 c 0,16,17
EndSplineSet
EndChar

StartChar: oslash
Encoding: 248 248 138
Width: 1161
GlyphClass: 2
Flags: W
AnchorPoint: "Anchor-5" 1161 1287 basechar 0
AnchorPoint: "Anchor-2" 1161 1600 basechar 0
AnchorPoint: "Anchor-0" 540 1287 basechar 0
LayerCount: 2
Fore
SplineSet
584 -20 m 0,0,1
 485 -20 485 -20 401 10 c 1,2,-1
 328 -138 l 1,3,-1
 184 -138 l 1,4,-1
 286 70 l 1,5,6
 80 220 80 220 80 530 c 2,7,-1
 80 551 l 2,8,9
 80 786 80 786 213 944 c 128,-1,10
 346 1102 346 1102 582 1102 c 0,11,12
 687 1102 687 1102 776 1068 c 1,13,-1
 847 1212 l 1,14,-1
 991 1212 l 1,15,-1
 889 1005 l 1,16,17
 1086 853 1086 853 1086 551 c 2,18,-1
 1086 530 l 2,19,20
 1086 294 1086 294 953.5 137 c 128,-1,21
 821 -20 821 -20 584 -20 c 0,0,1
322 530 m 2,22,23
 322 370 322 370 387 276 c 1,24,-1
 686 885 l 1,25,26
 640 907 640 907 582 907 c 0,27,28
 447 907 447 907 384.5 800.5 c 128,-1,29
 322 694 322 694 322 551 c 2,30,-1
 322 530 l 2,22,23
843 551 m 2,31,32
 843 699 843 699 785 793 c 1,33,-1
 490 192 l 1,34,35
 533 175 533 175 584 175 c 0,36,37
 718 175 718 175 780.5 279.5 c 128,-1,38
 843 384 843 384 843 530 c 2,39,-1
 843 551 l 2,31,32
EndSplineSet
Substitution2: "'unic' Unicase lookup 2 subtable" Oslash
Substitution2: "'smcp' Lowercase to Small Capitals lookup 1 subtable" Oslash.smcp
EndChar

StartChar: thorn
Encoding: 254 254 139
Width: 1175
Flags: W
LayerCount: 2
Fore
SplineSet
658 -20 m 0,0,1
 482 -20 482 -20 374 96 c 1,2,-1
 374 -416 l 1,3,-1
 131 -416 l 1,4,-1
 131 1536 l 1,5,-1
 374 1536 l 1,6,-1
 374 984 l 1,7,8
 481 1102 481 1102 656 1102 c 0,9,10
 862 1102 862 1102 970.5 950 c 128,-1,11
 1079 798 1079 798 1079 551 c 2,12,-1
 1079 530 l 2,13,14
 1079 294 1079 294 970 137 c 128,-1,15
 861 -20 861 -20 658 -20 c 0,0,1
588 904 m 0,16,17
 509 904 509 904 456.5 871 c 128,-1,18
 404 838 404 838 374 781 c 1,19,-1
 374 300 l 1,20,21
 404 244 404 244 456 209.5 c 128,-1,22
 508 175 508 175 590 175 c 0,23,24
 720 175 720 175 778 280.5 c 128,-1,25
 836 386 836 386 836 530 c 2,26,-1
 836 551 l 2,27,28
 836 697 836 697 777.5 800.5 c 128,-1,29
 719 904 719 904 588 904 c 0,16,17
EndSplineSet
Substitution2: "'unic' Unicase lookup 2 subtable" Thorn
Substitution2: "'smcp' Lowercase to Small Capitals lookup 1 subtable" Thorn.smcp
EndChar

StartChar: dcroat
Encoding: 273 273 140
Width: 1262
GlyphClass: 2
Flags: W
AnchorPoint: "Anchor-8" 869 1311 basechar 0
AnchorPoint: "Anchor-5" 1262 1607 basechar 0
AnchorPoint: "Anchor-3" 1157 -407 basechar 0
AnchorPoint: "Anchor-2" 1157 1600 basechar 0
AnchorPoint: "Anchor-1" 605 0 basechar 0
AnchorPoint: "Anchor-0" 525 1607 basechar 0
LayerCount: 2
Fore
SplineSet
807 0 m 1,0,-1
 796 112 l 1,1,2
 688 -20 688 -20 505 -20 c 0,3,4
 310 -20 310 -20 195 136.5 c 128,-1,5
 80 293 80 293 80 529 c 2,6,-1
 80 550 l 2,7,8
 80 797 80 797 194.5 949.5 c 128,-1,9
 309 1102 309 1102 507 1102 c 0,10,11
 679 1102 679 1102 785 983 c 1,12,-1
 785 1224 l 1,13,-1
 533 1224 l 1,14,-1
 533 1395 l 1,15,-1
 785 1395 l 1,16,-1
 785 1536 l 1,17,-1
 1028 1536 l 1,18,-1
 1028 1395 l 1,19,-1
 1203 1395 l 1,20,-1
 1203 1224 l 1,21,-1
 1028 1224 l 1,22,-1
 1028 0 l 1,23,-1
 807 0 l 1,0,-1
322 529 m 2,24,25
 322 384 322 384 379 281.5 c 128,-1,26
 436 179 436 179 567 179 c 0,27,28
 649 179 649 179 701.5 216 c 128,-1,29
 754 253 754 253 785 313 c 1,30,-1
 785 774 l 1,31,32
 754 833 754 833 701 868.5 c 128,-1,33
 648 904 648 904 569 904 c 0,34,35
 437 904 437 904 379.5 800 c 128,-1,36
 322 696 322 696 322 550 c 2,37,-1
 322 529 l 2,24,25
EndSplineSet
Substitution2: "'unic' Unicase lookup 2 subtable" Dcroat
Substitution2: "'smcp' Lowercase to Small Capitals lookup 1 subtable" Dcroat.smcp
EndChar

StartChar: Hbar
Encoding: 294 294 141
Width: 1456
GlyphClass: 2
Flags: W
AnchorPoint: "Anchor-5" 1456 1608 basechar 0
AnchorPoint: "Anchor-1" 735 10 basechar 0
AnchorPoint: "Anchor-0" 735 1608 basechar 0
LayerCount: 2
Fore
SplineSet
1059 0 m 1,0,-1
 1059 648 l 1,1,-1
 408 648 l 1,2,-1
 408 0 l 1,3,-1
 155 0 l 1,4,-1
 155 1037 l 1,5,-1
 32 1037 l 1,6,-1
 32 1198 l 1,7,-1
 155 1198 l 1,8,-1
 155 1456 l 1,9,-1
 408 1456 l 1,10,-1
 408 1198 l 1,11,-1
 1059 1198 l 1,12,-1
 1059 1456 l 1,13,-1
 1311 1456 l 1,14,-1
 1311 1198 l 1,15,-1
 1438 1198 l 1,16,-1
 1438 1037 l 1,17,-1
 1311 1037 l 1,18,-1
 1311 0 l 1,19,-1
 1059 0 l 1,0,-1
408 850 m 1,20,-1
 1059 850 l 1,21,-1
 1059 1037 l 1,22,-1
 408 1037 l 1,23,-1
 408 850 l 1,20,-1
EndSplineSet
Substitution2: "'c2sc' Capitals to Small Capitals lookup 0 subtable" Hbar.smcp
Position2: "'cpsp' Capital Spacing lookup 0 subtable" dx=36 dy=0 dh=72 dv=0
EndChar

StartChar: dotlessi
Encoding: 305 305 142
Width: 539
GlyphClass: 2
Flags: W
AnchorPoint: "Anchor-5" 539 1283 basechar 0
AnchorPoint: "Anchor-4" 308 654 basechar 0
AnchorPoint: "Anchor-1" 262 10 basechar 0
AnchorPoint: "Anchor-0" 268 1283 basechar 0
LayerCount: 2
Fore
SplineSet
387 1082 m 1,0,-1
 387 0 l 1,1,-1
 144 0 l 1,2,-1
 144 1082 l 1,3,-1
 387 1082 l 1,0,-1
EndSplineSet
Substitution2: "'smcp' Lowercase to Small Capitals lookup 1 subtable" I.smcp
EndChar

StartChar: kgreenlandic
Encoding: 312 312 143
Width: 1176
GlyphClass: 2
Flags: W
AnchorPoint: "Anchor-5" 1176 1290 basechar 0
AnchorPoint: "Anchor-1" 596 10 basechar 0
AnchorPoint: "Anchor-0" 596 1290 basechar 0
LayerCount: 2
Fore
SplineSet
822 0 m 1,0,-1
 494 429 l 1,1,-1
 385 429 l 1,2,-1
 385 0 l 1,3,-1
 142 0 l 1,4,-1
 142 1082 l 1,5,-1
 385 1082 l 1,6,-1
 385 651 l 1,7,-1
 469 651 l 1,8,-1
 805 1082 l 1,9,-1
 1106 1082 l 1,10,-1
 691 558 l 1,11,-1
 1131 0 l 1,12,-1
 822 0 l 1,0,-1
EndSplineSet
EndChar

StartChar: Lslash
Encoding: 321 321 144
Width: 1124
GlyphClass: 2
Flags: W
AnchorPoint: "Anchor-5" 1124 1600 basechar 0
AnchorPoint: "Anchor-1" 611 10 basechar 0
AnchorPoint: "Anchor-0" 287 1600 basechar 0
LayerCount: 2
Fore
SplineSet
1078 202 m 1,0,-1
 1078 0 l 1,1,-1
 165 0 l 1,2,-1
 165 649 l 1,3,-1
 34 609 l 1,4,-1
 34 756 l 1,5,-1
 165 796 l 1,6,-1
 165 1456 l 1,7,-1
 417 1456 l 1,8,-1
 417 872 l 1,9,-1
 652 943 l 1,10,-1
 652 796 l 1,11,-1
 417 725 l 1,12,-1
 417 202 l 1,13,-1
 1078 202 l 1,0,-1
EndSplineSet
Substitution2: "'c2sc' Capitals to Small Capitals lookup 0 subtable" Lslash.smcp
Position2: "'cpsp' Capital Spacing lookup 0 subtable" dx=36 dy=0 dh=72 dv=0
EndChar

StartChar: lslash
Encoding: 322 322 145
Width: 591
GlyphClass: 2
Flags: W
AnchorPoint: "Anchor-5" 591 1691 basechar 0
AnchorPoint: "Anchor-1" 296 10 basechar 0
AnchorPoint: "Anchor-0" 296 1691 basechar 0
LayerCount: 2
Fore
SplineSet
559 797 m 1,0,-1
 411 744 l 1,1,-1
 411 0 l 1,2,-1
 168 0 l 1,3,-1
 168 658 l 1,4,-1
 34 610 l 1,5,-1
 34 756 l 1,6,-1
 168 804 l 1,7,-1
 168 1536 l 1,8,-1
 411 1536 l 1,9,-1
 411 890 l 1,10,-1
 559 943 l 1,11,-1
 559 797 l 1,0,-1
EndSplineSet
Substitution2: "'smcp' Lowercase to Small Capitals lookup 1 subtable" Lslash.smcp
EndChar

StartChar: Eng
Encoding: 330 330 146
Width: 1428
GlyphClass: 2
Flags: W
AnchorPoint: "Anchor-5" 1428 1600 basechar 0
AnchorPoint: "Anchor-1" 721 7 basechar 0
AnchorPoint: "Anchor-0" 726 1600 basechar 0
LayerCount: 2
Fore
SplineSet
144 0 m 1,0,-1
 144 1456 l 1,1,-1
 396 1456 l 1,2,-1
 1036 412 l 1,3,-1
 1036 1456 l 1,4,-1
 1289 1456 l 1,5,-1
 1289 -57 l 2,6,7
 1289 -242 1289 -242 1193.5 -339.5 c 128,-1,8
 1098 -437 1098 -437 930 -437 c 0,9,10
 860 -437 860 -437 800 -420 c 1,11,-1
 814 -221 l 1,12,13
 856 -234 856 -234 913 -234 c 0,14,15
 1036 -234 1036 -234 1036 -57 c 2,16,-1
 1036 0 l 1,17,-1
 396 1047 l 1,18,-1
 396 0 l 1,19,-1
 144 0 l 1,0,-1
EndSplineSet
Substitution2: "'c2sc' Capitals to Small Capitals lookup 0 subtable" Eng.smcp
Position2: "'cpsp' Capital Spacing lookup 0 subtable" dx=36 dy=0 dh=72 dv=0
EndChar

StartChar: eng
Encoding: 331 331 147
Width: 1161
GlyphClass: 2
Flags: W
AnchorPoint: "Anchor-7" 795 -306 basechar 0
AnchorPoint: "Anchor-5" 1161 1290 basechar 0
AnchorPoint: "Anchor-1" 567 10 basechar 0
AnchorPoint: "Anchor-0" 574 1290 basechar 0
LayerCount: 2
Fore
SplineSet
1030 -63 m 2,0,1
 1030 -244 1030 -244 936.5 -340.5 c 128,-1,2
 843 -437 843 -437 678 -437 c 0,3,4
 609 -437 609 -437 551 -420 c 1,5,-1
 565 -223 l 1,6,7
 584 -229 584 -229 614 -232 c 128,-1,8
 644 -235 644 -235 664 -235 c 0,9,10
 787 -235 787 -235 787 -63 c 2,11,-1
 787 672 l 2,12,13
 787 802 787 802 736.5 853 c 128,-1,14
 686 904 686 904 590 904 c 0,15,16
 443 904 443 904 369 800 c 1,17,-1
 369 0 l 1,18,-1
 127 0 l 1,19,-1
 127 1082 l 1,20,-1
 349 1082 l 1,21,-1
 362 932 l 1,22,23
 475 1102 475 1102 673 1102 c 0,24,25
 835 1102 835 1102 932.5 1003 c 128,-1,26
 1030 904 1030 904 1030 674 c 2,27,-1
 1030 -63 l 2,0,1
EndSplineSet
Substitution2: "'unic' Unicase lookup 2 subtable" Eng
Substitution2: "'smcp' Lowercase to Small Capitals lookup 1 subtable" Eng.smcp
EndChar

StartChar: OE
Encoding: 338 338 148
Width: 1972
GlyphClass: 2
Flags: W
AnchorPoint: "Anchor-5" 1972 1600 basechar 0
AnchorPoint: "Anchor-3" 1972 -407 basechar 0
AnchorPoint: "Anchor-2" 1972 1600 basechar 0
AnchorPoint: "Anchor-1" 969 0 basechar 0
AnchorPoint: "Anchor-0" 969 1600 basechar 0
LayerCount: 2
Fore
SplineSet
1837 202 m 1,0,-1
 1837 0 l 1,1,-1
 971 0 l 1,2,3
 904 -8 904 -8 831.5 -14.5 c 128,-1,4
 759 -21 759 -21 683 -21 c 0,5,6
 424 -21 424 -21 262.5 145 c 128,-1,7
 101 311 101 311 101 576 c 2,8,-1
 101 880 l 2,9,10
 101 1145 101 1145 261.5 1311 c 128,-1,11
 422 1477 422 1477 681 1477 c 0,12,13
 757 1477 757 1477 830.5 1470.5 c 128,-1,14
 904 1464 904 1464 971 1456 c 1,15,-1
 1831 1456 l 1,16,-1
 1831 1253 l 1,17,-1
 1138 1253 l 1,18,-1
 1138 850 l 1,19,-1
 1736 850 l 1,20,-1
 1736 651 l 1,21,-1
 1138 651 l 1,22,-1
 1138 202 l 1,23,-1
 1837 202 l 1,0,-1
343 576 m 2,24,25
 343 376 343 376 435 275 c 128,-1,26
 527 174 527 174 683 174 c 0,27,28
 736 174 736 174 787 178 c 128,-1,29
 838 182 838 182 886 188 c 1,30,-1
 886 1268 l 1,31,32
 838 1274 838 1274 786.5 1278 c 128,-1,33
 735 1282 735 1282 681 1282 c 0,34,35
 525 1282 525 1282 434 1181.5 c 128,-1,36
 343 1081 343 1081 343 882 c 2,37,-1
 343 576 l 2,24,25
EndSplineSet
Substitution2: "'c2sc' Capitals to Small Capitals lookup 0 subtable" OE.smcp
Position2: "'cpsp' Capital Spacing lookup 0 subtable" dx=36 dy=0 dh=72 dv=0
EndChar

StartChar: oe
Encoding: 339 339 149
Width: 1851
GlyphClass: 2
Flags: W
AnchorPoint: "Anchor-5" 1851 1290 basechar 0
AnchorPoint: "Anchor-3" 1851 -407 basechar 0
AnchorPoint: "Anchor-2" 1851 1600 basechar 0
AnchorPoint: "Anchor-1" 935 -4 basechar 0
AnchorPoint: "Anchor-0" 935 1290 basechar 0
LayerCount: 2
Fore
SplineSet
1752 108 m 1,0,1
 1699 62 1699 62 1600 20.5 c 128,-1,2
 1501 -21 1501 -21 1356 -21 c 0,3,4
 1230 -21 1230 -21 1132 25.5 c 128,-1,5
 1034 72 1034 72 968 154 c 1,6,7
 905 72 905 72 809 25.5 c 128,-1,8
 713 -21 713 -21 588 -21 c 0,9,10
 351 -21 351 -21 221 136.5 c 128,-1,11
 91 294 91 294 91 530 c 2,12,-1
 91 551 l 2,13,14
 91 786 91 786 220.5 944 c 128,-1,15
 350 1102 350 1102 586 1102 c 0,16,17
 712 1102 712 1102 809 1055 c 128,-1,18
 906 1008 906 1008 969 926 c 1,19,20
 1033 1009 1033 1009 1125.5 1056 c 128,-1,21
 1218 1103 1218 1103 1327 1102 c 0,22,23
 1553 1102 1553 1102 1666 967 c 128,-1,24
 1779 832 1779 832 1779 615 c 2,25,-1
 1779 471 l 1,26,-1
 1097 471 l 1,27,28
 1107 347 1107 347 1174.5 260.5 c 128,-1,29
 1242 174 1242 174 1370 174 c 0,30,31
 1477 174 1477 174 1547.5 201.5 c 128,-1,32
 1618 229 1618 229 1673 267 c 1,33,-1
 1752 108 l 1,0,1
1327 907 m 0,34,35
 1235 907 1235 907 1177 833.5 c 128,-1,36
 1119 760 1119 760 1102 649 c 1,37,-1
 1538 649 l 1,38,-1
 1538 675 l 2,39,40
 1538 770 1538 770 1488.5 838.5 c 128,-1,41
 1439 907 1439 907 1327 907 c 0,34,35
334 551 m 2,42,-1
 334 530 l 2,43,44
 334 384 334 384 393 279 c 128,-1,45
 452 174 452 174 588 174 c 0,46,47
 723 174 723 174 782 279 c 128,-1,48
 841 384 841 384 841 530 c 2,49,-1
 841 551 l 2,50,51
 841 694 841 694 781.5 800.5 c 128,-1,52
 722 907 722 907 586 907 c 0,53,54
 451 907 451 907 392.5 800.5 c 128,-1,55
 334 694 334 694 334 551 c 2,42,-1
EndSplineSet
Substitution2: "'unic' Unicase lookup 2 subtable" OE
Substitution2: "'smcp' Lowercase to Small Capitals lookup 1 subtable" OE.smcp
EndChar

StartChar: longs
Encoding: 383 383 150
Width: 525
GlyphClass: 2
Flags: W
AnchorPoint: "Anchor-5" 525 1726 basechar 0
AnchorPoint: "Anchor-1" 262 10 basechar 0
AnchorPoint: "Anchor-0" 411 1726 basechar 0
LayerCount: 2
Fore
SplineSet
382 0 m 1,0,-1
 139 0 l 1,1,-1
 139 1185 l 2,2,3
 139 1366 139 1366 237.5 1461.5 c 128,-1,4
 336 1557 336 1557 510 1557 c 0,5,6
 548 1557 548 1557 585.5 1551 c 128,-1,7
 623 1545 623 1545 662 1536 c 1,8,-1
 637 1351 l 1,9,10
 618 1356 618 1356 596 1359 c 128,-1,11
 574 1362 574 1362 545 1362 c 0,12,13
 382 1362 382 1362 382 1185 c 2,14,-1
 382 0 l 1,0,-1
EndSplineSet
EndChar

StartChar: Bhook
Encoding: 385 385 152
Width: 1546
Flags: W
LayerCount: 2
Fore
SplineSet
34 1132 m 0,0,1
 34 1290 34 1290 129.5 1373 c 128,-1,2
 225 1456 225 1456 403 1456 c 1,3,-1
 403 1456 l 1,4,-1
 901 1456 l 2,5,6
 1139 1456 1139 1456 1273 1361 c 128,-1,7
 1407 1266 1407 1266 1407 1062 c 0,8,9
 1407 963 1407 963 1353 882.5 c 128,-1,10
 1299 802 1299 802 1196 759 c 1,11,12
 1321 726 1321 726 1381 632.5 c 128,-1,13
 1441 539 1441 539 1441 425 c 0,14,15
 1441 216 1441 216 1306.5 108 c 128,-1,16
 1172 0 1172 0 937 0 c 2,17,-1
 403 0 l 1,18,-1
 403 1253 l 1,19,20
 312 1252 312 1252 276 1202.5 c 128,-1,21
 240 1153 240 1153 240 1077 c 0,22,23
 240 1040 240 1040 249 1002 c 1,24,-1
 51 1002 l 1,25,26
 34 1059 34 1059 34 1132 c 0,0,1
656 1253 m 1,27,-1
 656 844 l 1,28,-1
 904 844 l 2,29,30
 1022 844 1022 844 1088.5 897.5 c 128,-1,31
 1155 951 1155 951 1155 1048 c 0,32,33
 1155 1253 1155 1253 901 1253 c 2,34,-1
 656 1253 l 1,27,-1
1189 426 m 0,35,36
 1189 533 1189 533 1132.5 595 c 128,-1,37
 1076 657 1076 657 947 657 c 2,38,-1
 656 657 l 1,39,-1
 656 202 l 1,40,-1
 937 202 l 2,41,42
 1062 202 1062 202 1125.5 264 c 128,-1,43
 1189 326 1189 326 1189 426 c 0,35,36
EndSplineSet
EndChar

StartChar: btopbar
Encoding: 387 387 154
Width: 1153
Flags: W
LayerCount: 2
Fore
SplineSet
125 0 m 1,0,-1
 125 1536 l 1,1,-1
 859 1536 l 1,2,-1
 859 1365 l 1,3,-1
 367 1365 l 1,4,-1
 367 978 l 1,5,6
 473 1102 473 1102 651 1102 c 0,7,8
 860 1102 860 1102 967 948.5 c 128,-1,9
 1074 795 1074 795 1074 551 c 2,10,-1
 1074 530 l 2,11,12
 1074 291 1074 291 966.5 135.5 c 128,-1,13
 859 -20 859 -20 653 -20 c 0,14,15
 464 -20 464 -20 356 118 c 1,16,-1
 345 0 l 1,17,-1
 125 0 l 1,0,-1
589 904 m 0,18,19
 504 904 504 904 450.5 865.5 c 128,-1,20
 397 827 397 827 367 764 c 1,21,-1
 367 320 l 1,22,23
 397 258 397 258 451 218.5 c 128,-1,24
 505 179 505 179 591 179 c 0,25,26
 726 179 726 179 779 280.5 c 128,-1,27
 832 382 832 382 832 530 c 2,28,-1
 832 551 l 2,29,30
 832 694 832 694 780 799 c 128,-1,31
 728 904 728 904 589 904 c 0,18,19
EndSplineSet
EndChar

StartChar: Tonesix
Encoding: 388 388 155
Width: 1400
Flags: W
LayerCount: 2
Fore
SplineSet
1331 454 m 0,0,1
 1331 254 1331 254 1193 127 c 128,-1,2
 1055 0 1055 0 807 0 c 2,3,-1
 258 0 l 1,4,-1
 258 967 l 1,5,-1
 85 1157 l 1,6,-1
 85 1265 l 1,7,-1
 258 1456 l 1,8,-1
 511 1456 l 1,9,-1
 511 899 l 1,10,-1
 807 899 l 2,11,12
 1055 899 1055 899 1193 777.5 c 128,-1,13
 1331 656 1331 656 1331 454 c 0,0,1
511 202 m 1,14,-1
 807 202 l 2,15,16
 948 202 948 202 1013 278.5 c 128,-1,17
 1078 355 1078 355 1078 456 c 0,18,19
 1078 556 1078 556 1013 626 c 128,-1,20
 948 696 948 696 807 696 c 2,21,-1
 511 696 l 1,22,-1
 511 202 l 1,14,-1
EndSplineSet
EndChar

StartChar: tonesix
Encoding: 389 389 156
Width: 1280
Flags: W
LayerCount: 2
Fore
SplineSet
1202 530 m 2,0,1
 1202 291 1202 291 1094 135.5 c 128,-1,2
 986 -20 986 -20 780 -20 c 0,3,4
 592 -20 592 -20 484 117 c 1,5,-1
 472 0 l 1,6,-1
 252 0 l 1,7,-1
 252 1047 l 1,8,-1
 79 1237 l 1,9,-1
 79 1345 l 1,10,-1
 252 1536 l 1,11,-1
 495 1536 l 1,12,-1
 495 979 l 1,13,14
 601 1102 601 1102 778 1102 c 0,15,16
 987 1102 987 1102 1094.5 948.5 c 128,-1,17
 1202 795 1202 795 1202 551 c 2,18,-1
 1202 530 l 2,0,1
717 904 m 0,19,20
 632 904 632 904 578.5 866 c 128,-1,21
 525 828 525 828 495 765 c 1,22,-1
 495 320 l 1,23,24
 525 257 525 257 579 218 c 128,-1,25
 633 179 633 179 719 179 c 0,26,27
 853 179 853 179 906 280.5 c 128,-1,28
 959 382 959 382 959 530 c 2,29,-1
 959 551 l 2,30,31
 959 694 959 694 907.5 799 c 128,-1,32
 856 904 856 904 717 904 c 0,19,20
EndSplineSet
EndChar

StartChar: Oopen
Encoding: 390 390 157
Width: 1337
Flags: W
LayerCount: 2
Fore
SplineSet
77 481 m 1,0,-1
 329 481 l 1,1,2
 346 342 346 342 413 263 c 128,-1,3
 480 184 480 184 637 184 c 0,4,5
 809 184 809 184 895 311 c 128,-1,6
 981 438 981 438 981 668 c 2,7,-1
 981 788 l 2,8,9
 981 1006 981 1006 903 1139 c 128,-1,10
 825 1272 825 1272 648 1272 c 0,11,12
 485 1272 485 1272 416.5 1197 c 128,-1,13
 348 1122 348 1122 330 982 c 1,14,-1
 78 982 l 1,15,16
 98 1194 98 1194 239 1335 c 128,-1,17
 380 1476 380 1476 648 1476 c 0,18,19
 917 1476 917 1476 1076 1289 c 128,-1,20
 1235 1102 1235 1102 1235 788 c 2,21,-1
 1235 670 l 2,22,23
 1235 355 1235 355 1073.5 167.5 c 128,-1,24
 912 -20 912 -20 637 -20 c 0,25,26
 375 -20 375 -20 237 121.5 c 128,-1,27
 99 263 99 263 77 481 c 1,0,-1
EndSplineSet
EndChar

StartChar: Chook
Encoding: 391 391 158
Width: 1465
Flags: W
LayerCount: 2
Fore
SplineSet
1444 1330 m 0,0,1
 1368 1330 1368 1330 1314 1298 c 128,-1,2
 1260 1266 1260 1266 1260 1166 c 2,3,-1
 1260 975 l 1,4,-1
 1008 975 l 1,5,6
 992 1114 992 1114 924.5 1193 c 128,-1,7
 857 1272 857 1272 701 1272 c 0,8,9
 528 1272 528 1272 442.5 1145 c 128,-1,10
 357 1018 357 1018 357 789 c 2,11,-1
 357 669 l 2,12,13
 357 451 357 451 434.5 317.5 c 128,-1,14
 512 184 512 184 689 184 c 0,15,16
 852 184 852 184 920.5 259 c 128,-1,17
 989 334 989 334 1007 474 c 1,18,-1
 1259 474 l 1,19,20
 1240 262 1240 262 1098.5 121 c 128,-1,21
 957 -20 957 -20 689 -20 c 0,22,23
 420 -20 420 -20 261 167 c 128,-1,24
 102 354 102 354 102 669 c 2,25,-1
 102 787 l 2,26,27
 102 1101 102 1101 264 1288.5 c 128,-1,28
 426 1476 426 1476 701 1476 c 0,29,30
 825 1476 825 1476 921.5 1442 c 128,-1,31
 1018 1408 1018 1408 1086 1347 c 1,32,33
 1160 1540 1160 1540 1389 1540 c 0,34,35
 1457 1540 1457 1540 1519 1523 c 1,36,-1
 1519 1322 l 1,37,38
 1486 1330 1486 1330 1444 1330 c 0,0,1
EndSplineSet
EndChar

StartChar: chook
Encoding: 392 392 159
Width: 1223
Flags: W
LayerCount: 2
Fore
SplineSet
1171 1006 m 0,0,1
 1106 1006 1106 1006 1059.5 975 c 128,-1,2
 1013 944 1013 944 1013 858 c 2,3,-1
 1013 695 l 1,4,-1
 785 695 l 1,5,6
 780 782 780 782 724 844.5 c 128,-1,7
 668 907 668 907 569 907 c 0,8,9
 421 907 421 907 371.5 797.5 c 128,-1,10
 322 688 322 688 322 559 c 2,11,-1
 322 523 l 2,12,13
 322 392 322 392 371 283.5 c 128,-1,14
 420 175 420 175 570 175 c 0,15,16
 658 175 658 175 719 226.5 c 128,-1,17
 780 278 780 278 785 358 c 1,18,-1
 1013 358 l 1,19,20
 1008 201 1008 201 880.5 90.5 c 128,-1,21
 753 -20 753 -20 572 -20 c 0,22,23
 322 -20 322 -20 201 140 c 128,-1,24
 80 300 80 300 80 523 c 2,25,-1
 80 559 l 2,26,27
 80 781 80 781 201.5 941.5 c 128,-1,28
 323 1102 323 1102 572 1102 c 0,29,30
 750 1102 750 1102 868 1006 c 1,31,32
 926 1177 926 1177 1124 1177 c 0,33,34
 1184 1177 1184 1177 1235 1162 c 1,35,-1
 1235 999 l 1,36,37
 1206 1006 1206 1006 1171 1006 c 0,0,1
EndSplineSet
EndChar

StartChar: Dhook
Encoding: 394 394 161
Width: 1593
Flags: W
LayerCount: 2
Fore
SplineSet
34 1132 m 0,0,1
 34 1456 34 1456 404 1456 c 1,2,-1
 404 1456 l 1,3,-1
 833 1456 l 2,4,5
 1126 1456 1126 1456 1307.5 1267.5 c 128,-1,6
 1489 1079 1489 1079 1489 764 c 2,7,-1
 1489 691 l 2,8,9
 1489 376 1489 376 1306.5 188 c 128,-1,10
 1124 0 1124 0 822 0 c 2,11,-1
 404 0 l 1,12,-1
 404 1253 l 1,13,14
 312 1252 312 1252 276 1203 c 128,-1,15
 240 1154 240 1154 240 1077 c 0,16,17
 240 1040 240 1040 249 1002 c 1,18,-1
 51 1002 l 1,19,20
 34 1059 34 1059 34 1132 c 0,0,1
833 1253 m 2,21,-1
 656 1253 l 1,22,-1
 656 202 l 1,23,-1
 822 202 l 2,24,25
 1028 202 1028 202 1132 332.5 c 128,-1,26
 1236 463 1236 463 1236 691 c 2,27,-1
 1236 766 l 2,28,29
 1236 1002 1236 1002 1132.5 1127.5 c 128,-1,30
 1029 1253 1029 1253 833 1253 c 2,21,-1
EndSplineSet
EndChar

StartChar: Dtopbar
Encoding: 395 395 162
Width: 1288
Flags: W
LayerCount: 2
Fore
SplineSet
1151 0 m 1,0,-1
 602 0 l 2,1,2
 354 0 354 0 216 127 c 128,-1,3
 78 254 78 254 78 454 c 0,4,5
 78 656 78 656 216 777.5 c 128,-1,6
 354 899 354 899 602 899 c 2,7,-1
 899 899 l 1,8,-1
 899 1253 l 1,9,-1
 227 1253 l 1,10,-1
 227 1456 l 1,11,-1
 1151 1456 l 1,12,-1
 1151 0 l 1,0,-1
899 202 m 1,13,-1
 899 696 l 1,14,-1
 602 696 l 2,15,16
 461 696 461 696 396 626 c 128,-1,17
 331 556 331 556 331 456 c 0,18,19
 331 355 331 355 396 278.5 c 128,-1,20
 461 202 461 202 602 202 c 2,21,-1
 899 202 l 1,13,-1
EndSplineSet
EndChar

StartChar: dtopbar
Encoding: 396 396 163
Width: 1157
Flags: W
LayerCount: 2
Fore
SplineSet
294 1365 m 1,0,-1
 294 1536 l 1,1,-1
 1028 1536 l 1,2,-1
 1028 0 l 1,3,-1
 807 0 l 1,4,-1
 796 112 l 1,5,6
 688 -20 688 -20 505 -20 c 0,7,8
 310 -20 310 -20 195 136.5 c 128,-1,9
 80 293 80 293 80 529 c 2,10,-1
 80 550 l 2,11,12
 80 797 80 797 194.5 949.5 c 128,-1,13
 309 1102 309 1102 507 1102 c 0,14,15
 679 1102 679 1102 785 983 c 1,16,-1
 785 1365 l 1,17,-1
 294 1365 l 1,0,-1
322 529 m 2,18,19
 322 384 322 384 379 281.5 c 128,-1,20
 436 179 436 179 567 179 c 0,21,22
 649 179 649 179 701.5 216 c 128,-1,23
 754 253 754 253 785 313 c 1,24,-1
 785 774 l 1,25,26
 754 833 754 833 701 868.5 c 128,-1,27
 648 904 648 904 569 904 c 0,28,29
 437 904 437 904 379.5 800 c 128,-1,30
 322 696 322 696 322 550 c 2,31,-1
 322 529 l 2,18,19
EndSplineSet
EndChar

StartChar: deltaturn
Encoding: 397 397 164
Width: 1161
Flags: W
LayerCount: 2
Fore
SplineSet
944 -376 m 1,0,-1
 196 -376 l 1,1,-1
 196 -183 l 1,2,-1
 624 -183 l 1,3,4
 597 -156 597 -156 543.5 -110.5 c 128,-1,5
 490 -65 490 -65 437 -22 c 0,6,7
 284 108 284 108 183.5 244 c 128,-1,8
 83 380 83 380 83 549 c 2,9,-1
 83 570 l 2,10,11
 83 797 83 797 212.5 949 c 128,-1,12
 342 1101 342 1101 579 1101 c 256,13,14
 816 1101 816 1101 946 953 c 128,-1,15
 1076 805 1076 805 1076 584 c 2,16,-1
 1076 563 l 2,17,18
 1076 372 1076 372 959.5 238 c 128,-1,19
 843 104 843 104 647 77 c 0,20,21
 638 76 638 76 631 76 c 128,-1,22
 624 76 624 76 614 75 c 1,23,24
 693 4 693 4 787 -82 c 128,-1,25
 881 -168 881 -168 944 -239 c 1,26,-1
 944 -376 l 1,0,-1
833 549 m 2,27,-1
 833 570 l 2,28,29
 833 708 833 708 774.5 807 c 128,-1,30
 716 906 716 906 579 906 c 0,31,32
 444 906 444 906 385 807 c 128,-1,33
 326 708 326 708 326 570 c 2,34,-1
 326 549 l 2,35,36
 326 434 326 434 377 349.5 c 128,-1,37
 428 265 428 265 494 222 c 1,38,39
 523 214 523 214 568 214 c 0,40,41
 710 214 710 214 771.5 314 c 128,-1,42
 833 414 833 414 833 549 c 2,27,-1
EndSplineSet
EndChar

StartChar: Eturn
Encoding: 398 398 165
Width: 1158
Flags: W
LayerCount: 2
Fore
SplineSet
58 1254 m 1,0,-1
 58 1456 l 1,1,-1
 1010 1456 l 1,2,-1
 1010 0 l 1,3,-1
 65 0 l 1,4,-1
 65 203 l 1,5,-1
 757 203 l 1,6,-1
 757 606 l 1,7,-1
 159 606 l 1,8,-1
 159 805 l 1,9,-1
 757 805 l 1,10,-1
 757 1254 l 1,11,-1
 58 1254 l 1,0,-1
EndSplineSet
EndChar

StartChar: Schwa
Encoding: 399 399 166
Width: 1417
GlyphClass: 2
Flags: W
AnchorPoint: "Anchor-5" 1417 1600 basechar 0
AnchorPoint: "Anchor-1" 696 0 basechar 0
AnchorPoint: "Anchor-0" 671 1600 basechar 0
LayerCount: 2
Fore
SplineSet
1310 667 m 2,0,1
 1310 464 1310 464 1228 309 c 128,-1,2
 1146 154 1146 154 1007 67 c 128,-1,3
 868 -20 868 -20 696 -20 c 0,4,5
 392 -20 392 -20 236.5 163 c 128,-1,6
 81 346 81 346 81 656 c 2,7,-1
 81 798 l 1,8,-1
 1058 798 l 1,9,10
 1055 991 1055 991 956 1126.5 c 128,-1,11
 857 1262 857 1262 626 1262 c 0,12,13
 495 1262 495 1262 404 1238 c 128,-1,14
 313 1214 313 1214 256 1192 c 1,15,-1
 207 1389 l 1,16,17
 239 1408 239 1408 352.5 1442 c 128,-1,18
 466 1476 466 1476 633 1476 c 0,19,20
 962 1476 962 1476 1136 1282 c 128,-1,21
 1310 1088 1310 1088 1310 784 c 2,22,-1
 1310 667 l 2,0,1
696 193 m 0,23,24
 857 193 857 193 948.5 310.5 c 128,-1,25
 1040 428 1040 428 1055 600 c 1,26,-1
 334 600 l 1,27,-1
 334 569 l 2,28,29
 334 412 334 412 414 302.5 c 128,-1,30
 494 193 494 193 696 193 c 0,23,24
EndSplineSet
EndChar

StartChar: Epsilon1
Encoding: 400 400 167
Width: 1238
GlyphClass: 2
Flags: W
AnchorPoint: "Anchor-5" 1238 1600 basechar 0
AnchorPoint: "Anchor-1" 626 0 basechar 0
AnchorPoint: "Anchor-0" 626 1600 basechar 0
LayerCount: 2
Fore
SplineSet
622 842 m 2,0,-1
 792 842 l 1,1,-1
 792 643 l 1,2,-1
 622 643 l 2,3,4
 481 643 481 643 410 587.5 c 128,-1,5
 339 532 339 532 339 408 c 0,6,7
 339 291 339 291 420.5 236.5 c 128,-1,8
 502 182 502 182 638 182 c 0,9,10
 765 182 765 182 838.5 246 c 128,-1,11
 912 310 912 310 912 404 c 1,12,-1
 1164 404 l 1,13,14
 1164 255 1164 255 1086 161 c 128,-1,15
 1008 67 1008 67 887 23 c 128,-1,16
 766 -21 766 -21 638 -21 c 0,17,18
 399 -21 399 -21 242.5 80 c 128,-1,19
 86 181 86 181 86 408 c 0,20,21
 86 657 86 657 335 746 c 1,22,23
 230 790 230 790 169 870.5 c 128,-1,24
 108 951 108 951 108 1061 c 0,25,26
 108 1265 108 1265 253.5 1371 c 128,-1,27
 399 1477 399 1477 638 1477 c 0,28,29
 843 1477 843 1477 993 1368 c 128,-1,30
 1143 1259 1143 1259 1143 1070 c 1,31,-1
 891 1070 l 1,32,33
 891 1163 891 1163 819.5 1218 c 128,-1,34
 748 1273 748 1273 638 1273 c 0,35,36
 492 1273 492 1273 426.5 1212 c 128,-1,37
 361 1151 361 1151 361 1061 c 0,38,39
 361 963 361 963 420.5 902.5 c 128,-1,40
 480 842 480 842 622 842 c 2,0,-1
EndSplineSet
EndChar

StartChar: Fhook
Encoding: 401 401 168
Width: 1209
Flags: W
LayerCount: 2
Fore
SplineSet
1156 1253 m 1,0,-1
 484 1253 l 1,1,-1
 484 819 l 1,2,-1
 1070 819 l 1,3,-1
 1070 617 l 1,4,-1
 484 617 l 1,5,-1
 484 -63 l 2,6,7
 484 -244 484 -244 388 -340.5 c 128,-1,8
 292 -437 292 -437 127 -437 c 0,9,10
 58 -437 58 -437 0 -420 c 1,11,-1
 14 -215 l 1,12,13
 64 -228 64 -228 109 -228 c 0,14,15
 232 -228 232 -228 232 -63 c 2,16,-1
 232 1456 l 1,17,-1
 1156 1456 l 1,18,-1
 1156 1253 l 1,0,-1
EndSplineSet
EndChar

StartChar: florin
Encoding: 402 402 169
Width: 721
Flags: W
LayerCount: 2
Fore
SplineSet
644 1082 m 1,0,-1
 644 903 l 1,1,-1
 444 903 l 1,2,-1
 444 -70 l 2,3,4
 444 -248 444 -248 352 -342.5 c 128,-1,5
 260 -437 260 -437 99 -437 c 0,6,7
 30 -437 30 -437 -28 -420 c 1,8,-1
 -14 -229 l 1,9,10
 1 -235 1 -235 33.5 -238.5 c 128,-1,11
 66 -242 66 -242 81 -242 c 0,12,13
 201 -242 201 -242 201 -70 c 2,14,-1
 201 903 l 1,15,-1
 36 903 l 1,16,-1
 36 1082 l 1,17,-1
 201 1082 l 1,18,-1
 201 1185 l 2,19,20
 201 1366 201 1366 299.5 1461.5 c 128,-1,21
 398 1557 398 1557 571 1557 c 0,22,23
 610 1557 610 1557 647.5 1551 c 128,-1,24
 685 1545 685 1545 723 1536 c 1,25,-1
 699 1348 l 1,26,27
 656 1358 656 1358 601 1358 c 0,28,29
 444 1358 444 1358 444 1185 c 2,30,-1
 444 1082 l 1,31,-1
 644 1082 l 1,0,-1
EndSplineSet
EndChar

StartChar: Ghook
Encoding: 403 403 170
Width: 1468
Flags: W
LayerCount: 2
Fore
SplineSet
1265 1166 m 2,0,-1
 1265 1011 l 1,1,-1
 1016 1011 l 1,2,3
 997 1124 997 1124 927.5 1198.5 c 128,-1,4
 858 1273 858 1273 710 1273 c 0,5,6
 532 1273 532 1273 446.5 1143 c 128,-1,7
 361 1013 361 1013 361 777 c 2,8,-1
 361 680 l 2,9,10
 361 440 361 440 461 311 c 128,-1,11
 561 182 561 182 736 182 c 0,12,13
 867 182 867 182 926.5 212 c 128,-1,14
 986 242 986 242 1012 270 c 1,15,-1
 1012 556 l 1,16,-1
 713 556 l 1,17,-1
 713 747 l 1,18,-1
 1264 747 l 1,19,-1
 1264 190 l 1,20,21
 1218 128 1218 128 1095 54 c 128,-1,22
 972 -20 972 -20 728 -20 c 0,23,24
 453 -20 453 -20 279.5 163 c 128,-1,25
 106 346 106 346 106 680 c 2,26,-1
 106 775 l 2,27,28
 106 1109 106 1109 265 1292.5 c 128,-1,29
 424 1476 424 1476 706 1476 c 0,30,31
 834 1476 834 1476 930.5 1444 c 128,-1,32
 1027 1412 1027 1412 1095 1354 c 1,33,34
 1169 1540 1169 1540 1393 1540 c 0,35,36
 1463 1540 1463 1540 1523 1523 c 1,37,-1
 1523 1326 l 1,38,39
 1487 1335 1487 1335 1449 1335 c 0,40,41
 1373 1335 1373 1335 1319 1300.5 c 128,-1,42
 1265 1266 1265 1266 1265 1166 c 2,0,-1
EndSplineSet
EndChar

StartChar: Gamma1
Encoding: 404 404 171
Width: 1328
Flags: W
LayerCount: 2
Fore
SplineSet
970 -179 m 0,0,1
 970 -308 970 -308 884.5 -372.5 c 128,-1,2
 799 -437 799 -437 664 -437 c 0,3,4
 528 -437 528 -437 441 -372.5 c 128,-1,5
 354 -308 354 -308 354 -179 c 0,6,7
 354 -113 354 -113 409.5 5 c 128,-1,8
 465 123 465 123 543 305 c 1,9,-1
 24 1456 l 1,10,-1
 309 1456 l 1,11,-1
 662 594 l 1,12,-1
 1019 1456 l 1,13,-1
 1305 1456 l 1,14,-1
 784 300 l 1,15,16
 860 121 860 121 915 4 c 128,-1,17
 970 -113 970 -113 970 -179 c 0,0,1
601 -174 m 0,18,19
 601 -205 601 -205 614.5 -227 c 128,-1,20
 628 -249 628 -249 664 -249 c 0,21,22
 701 -249 701 -249 714 -226.5 c 128,-1,23
 727 -204 727 -204 727 -174 c 0,24,25
 727 -112 727 -112 664 34 c 1,26,27
 601 -113 601 -113 601 -174 c 0,18,19
EndSplineSet
EndChar

StartChar: hv
Encoding: 405 405 172
Width: 1725
Flags: W
LayerCount: 2
Fore
SplineSet
665 1102 m 0,0,1
 873 1102 873 1102 945 981 c 128,-1,2
 1017 860 1017 860 1017 690 c 2,3,-1
 1017 434 l 2,4,5
 1017 286 1017 286 1068.5 232.5 c 128,-1,6
 1120 179 1120 179 1189 179 c 0,7,8
 1257 179 1257 179 1308.5 232.5 c 128,-1,9
 1360 286 1360 286 1360 434 c 2,10,-1
 1360 1082 l 1,11,-1
 1603 1082 l 1,12,-1
 1603 436 l 2,13,14
 1603 193 1603 193 1497.5 86.5 c 128,-1,15
 1392 -20 1392 -20 1189 -20 c 0,16,17
 985 -20 985 -20 879.5 86.5 c 128,-1,18
 774 193 774 193 774 436 c 2,19,-1
 774 690 l 2,20,21
 774 784 774 784 737 844 c 128,-1,22
 700 904 700 904 583 904 c 0,23,24
 436 904 436 904 364 773 c 1,25,-1
 364 0 l 1,26,-1
 122 0 l 1,27,-1
 122 1536 l 1,28,-1
 364 1536 l 1,29,-1
 364 963 l 1,30,31
 482 1102 482 1102 665 1102 c 0,0,1
EndSplineSet
EndChar

StartChar: Khook
Encoding: 408 408 174
Width: 1291
Flags: W
LayerCount: 2
Fore
SplineSet
1004 0 m 1,0,-1
 569 626 l 1,1,-1
 401 438 l 1,2,-1
 401 0 l 1,3,-1
 149 0 l 1,4,-1
 149 1456 l 1,5,-1
 401 1456 l 1,6,-1
 401 757 l 1,7,-1
 542 946 l 1,8,-1
 774 1247 l 2,9,10
 850 1350 850 1350 915 1413 c 128,-1,11
 980 1476 980 1476 1087 1476 c 0,12,13
 1153 1476 1153 1476 1205 1456.5 c 128,-1,14
 1257 1437 1257 1437 1302 1407 c 1,15,-1
 1213 1230 l 1,16,17
 1192 1243 1192 1243 1171 1250 c 128,-1,18
 1150 1257 1150 1257 1119 1257 c 0,19,20
 1078 1257 1078 1257 1048 1227 c 128,-1,21
 1018 1197 1018 1197 978 1142 c 2,22,-1
 731 815 l 1,23,-1
 1304 0 l 1,24,-1
 1004 0 l 1,0,-1
EndSplineSet
EndChar

StartChar: khook
Encoding: 409 409 175
Width: 1069
Flags: W
LayerCount: 2
Fore
SplineSet
525 1386 m 0,0,1
 460 1386 460 1386 414 1355 c 128,-1,2
 368 1324 368 1324 368 1238 c 2,3,-1
 368 650 l 1,4,-1
 445 746 l 1,5,-1
 744 1082 l 1,6,-1
 1036 1082 l 1,7,-1
 633 632 l 1,8,-1
 1079 0 l 1,9,-1
 798 0 l 1,10,-1
 477 466 l 1,11,-1
 368 354 l 1,12,-1
 368 0 l 1,13,-1
 125 0 l 1,14,-1
 125 1238 l 2,15,16
 125 1395 125 1395 218.5 1476 c 128,-1,17
 312 1557 312 1557 466 1557 c 0,18,19
 492 1557 492 1557 528 1553.5 c 128,-1,20
 564 1550 564 1550 589 1542 c 1,21,-1
 589 1379 l 1,22,23
 560 1386 560 1386 525 1386 c 0,0,1
EndSplineSet
EndChar

StartChar: lambdabar
Encoding: 411 411 177
Width: 1130
Flags: W
AnchorPoint: "Anchor-5" 1006 1607 basechar 0
LayerCount: 2
Fore
SplineSet
1098 -9 m 1,0,1
 1058 -18 1058 -18 1004 -18 c 0,2,3
 898 -18 898 -18 837 26.5 c 128,-1,4
 776 71 776 71 731 194 c 2,5,-1
 535 714 l 1,6,-1
 287 0 l 1,7,-1
 22 0 l 1,8,-1
 408 1041 l 1,9,-1
 385 1097 l 1,10,-1
 197 1030 l 1,11,-1
 197 1212 l 1,12,-1
 318 1255 l 1,13,14
 280 1336 280 1336 201 1336 c 0,15,16
 184 1336 184 1336 148 1334 c 1,17,-1
 145 1515 l 1,18,19
 168 1522 168 1522 207 1527 c 128,-1,20
 246 1532 246 1532 275 1532 c 0,21,22
 385 1532 385 1532 445 1487.5 c 128,-1,23
 505 1443 505 1443 535 1362 c 2,24,-1
 545 1336 l 1,25,-1
 722 1399 l 1,26,-1
 722 1217 l 1,27,-1
 608 1176 l 1,28,-1
 961 277 l 2,29,30
 999 183 999 183 1060 183 c 0,31,32
 1084 183 1084 183 1095 185 c 1,33,-1
 1098 -9 l 1,0,1
EndSplineSet
EndChar

StartChar: mcapturn
Encoding: 412 412 178
Width: 1855
Flags: W
LayerCount: 2
Fore
SplineSet
1479 0 m 1,0,-1
 1469 116 l 1,1,2
 1361 -20 1361 -20 1163 -20 c 0,3,4
 1057 -20 1057 -20 976 22 c 128,-1,5
 895 64 895 64 852 165 c 1,6,7
 802 79 802 79 717.5 29.5 c 128,-1,8
 633 -20 633 -20 510 -20 c 0,9,10
 348 -20 348 -20 250.5 77.5 c 128,-1,11
 153 175 153 175 153 436 c 2,12,-1
 153 1456 l 1,13,-1
 396 1456 l 1,14,-1
 396 434 l 2,15,16
 396 286 396 286 447.5 232.5 c 128,-1,17
 499 179 499 179 567 179 c 0,18,19
 668 179 668 179 726 224.5 c 128,-1,20
 784 270 784 270 810 346 c 1,21,22
 806 388 806 388 806 436 c 2,23,-1
 806 1456 l 1,24,-1
 1049 1456 l 1,25,-1
 1049 434 l 2,26,27
 1049 286 1049 286 1100.5 232.5 c 128,-1,28
 1152 179 1152 179 1220 179 c 0,29,30
 1317 179 1317 179 1375 221.5 c 128,-1,31
 1433 264 1433 264 1459 335 c 1,32,-1
 1459 1456 l 1,33,-1
 1702 1456 l 1,34,-1
 1702 0 l 1,35,-1
 1479 0 l 1,0,-1
EndSplineSet
EndChar

StartChar: Nhook
Encoding: 413 413 179
Width: 1538
Flags: W
LayerCount: 2
Fore
SplineSet
1134 0 m 1,0,-1
 484 1033 l 1,1,-1
 484 -63 l 2,2,3
 484 -244 484 -244 388 -340.5 c 128,-1,4
 292 -437 292 -437 127 -437 c 0,5,6
 58 -437 58 -437 0 -420 c 1,7,-1
 14 -215 l 1,8,9
 64 -228 64 -228 109 -228 c 0,10,11
 232 -228 232 -228 232 -63 c 2,12,-1
 232 1456 l 1,13,-1
 484 1456 l 1,14,-1
 1136 420 l 1,15,-1
 1136 1456 l 1,16,-1
 1387 1456 l 1,17,-1
 1387 0 l 1,18,-1
 1134 0 l 1,0,-1
EndSplineSet
EndChar

StartChar: Ohorn
Encoding: 416 416 180
Width: 1418
GlyphClass: 2
Flags: W
AnchorPoint: "Anchor-5" 1418 1598 basechar 0
AnchorPoint: "Anchor-1" 688 0 basechar 0
AnchorPoint: "Anchor-0" 703 1598 basechar 0
LayerCount: 2
Fore
SplineSet
1296 691 m 2,0,1
 1296 359 1296 359 1130.5 169.5 c 128,-1,2
 965 -20 965 -20 694 -20 c 0,3,4
 428 -20 428 -20 258 169.5 c 128,-1,5
 88 359 88 359 88 691 c 2,6,-1
 88 764 l 2,7,8
 88 1096 88 1096 257 1286 c 128,-1,9
 426 1476 426 1476 692 1476 c 0,10,11
 947 1476 947 1476 1109 1309 c 1,12,13
 1194 1322 1194 1322 1228.5 1393.5 c 128,-1,14
 1263 1465 1263 1465 1263 1582 c 1,15,-1
 1450 1582 l 1,16,17
 1450 1245 1450 1245 1206 1174 c 1,18,19
 1296 1002 1296 1002 1296 764 c 2,20,-1
 1296 691 l 2,0,1
1044 691 m 2,21,-1
 1044 766 l 2,22,23
 1044 1011 1044 1011 951 1139 c 128,-1,24
 858 1267 858 1267 692 1267 c 0,25,26
 529 1267 529 1267 435 1139 c 128,-1,27
 341 1011 341 1011 341 766 c 2,28,-1
 341 691 l 2,29,30
 341 446 341 446 436 317 c 128,-1,31
 531 188 531 188 694 188 c 0,32,33
 861 188 861 188 952.5 317 c 128,-1,34
 1044 446 1044 446 1044 691 c 2,21,-1
EndSplineSet
EndChar

StartChar: ohorn
Encoding: 417 417 181
Width: 1183
GlyphClass: 2
Flags: W
AnchorPoint: "Anchor-5" 1183 1290 basechar 0
AnchorPoint: "Anchor-1" 580 -10 basechar 0
AnchorPoint: "Anchor-0" 580 1290 basechar 0
LayerCount: 2
Fore
SplineSet
1085 530 m 2,0,1
 1085 294 1085 294 952.5 137 c 128,-1,2
 820 -20 820 -20 583 -20 c 0,3,4
 345 -20 345 -20 212 137 c 128,-1,5
 79 294 79 294 79 530 c 2,6,-1
 79 551 l 2,7,8
 79 786 79 786 212 944 c 128,-1,9
 345 1102 345 1102 581 1102 c 0,10,11
 696 1102 696 1102 787.5 1063 c 128,-1,12
 879 1024 879 1024 943 954 c 1,13,14
 1006 976 1006 976 1025 1038.5 c 128,-1,15
 1044 1101 1044 1101 1044 1193 c 1,16,-1
 1212 1193 l 1,17,18
 1212 1060 1212 1060 1167.5 969.5 c 128,-1,19
 1123 879 1123 879 1020 843 c 1,20,21
 1085 716 1085 716 1085 551 c 2,22,-1
 1085 530 l 2,0,1
322 551 m 2,23,-1
 322 530 l 2,24,25
 322 384 322 384 384 279.5 c 128,-1,26
 446 175 446 175 583 175 c 0,27,28
 718 175 718 175 780.5 279.5 c 128,-1,29
 843 384 843 384 843 530 c 2,30,-1
 843 551 l 2,31,32
 843 694 843 694 780.5 800.5 c 128,-1,33
 718 907 718 907 581 907 c 0,34,35
 446 907 446 907 384 800.5 c 128,-1,36
 322 694 322 694 322 551 c 2,23,-1
EndSplineSet
EndChar

StartChar: OI
Encoding: 418 418 182
Width: 1793
Flags: W
LayerCount: 2
Fore
SplineSet
722 -20 m 0,0,1
 450 -20 450 -20 276 160 c 128,-1,2
 102 340 102 340 102 680 c 2,3,-1
 102 777 l 2,4,5
 102 1109 102 1109 275.5 1292.5 c 128,-1,6
 449 1476 449 1476 722 1476 c 0,7,8
 901 1476 901 1476 1011.5 1433 c 128,-1,9
 1122 1390 1122 1390 1184 1338 c 1,10,-1
 1456 1456 l 1,11,-1
 1641 1456 l 1,12,-1
 1641 -416 l 1,13,-1
 1399 -416 l 1,14,-1
 1399 1190 l 1,15,-1
 1254 1131 l 1,16,-1
 1254 191 l 1,17,18
 1208 130 1208 130 1087.5 55 c 128,-1,19
 967 -20 967 -20 722 -20 c 0,0,1
729 1274 m 0,20,21
 552 1274 552 1274 453.5 1146.5 c 128,-1,22
 355 1019 355 1019 355 777 c 2,23,-1
 355 680 l 2,24,25
 355 450 355 450 449.5 316 c 128,-1,26
 544 182 544 182 735 182 c 0,27,28
 866 182 866 182 925.5 213.5 c 128,-1,29
 985 245 985 245 1012 273 c 1,30,-1
 1012 1183 l 1,31,32
 982 1214 982 1214 921 1244 c 128,-1,33
 860 1274 860 1274 729 1274 c 0,20,21
EndSplineSet
EndChar

StartChar: oi
Encoding: 419 419 183
Width: 1436
Flags: W
LayerCount: 2
Fore
SplineSet
1064 787 m 1,0,-1
 952 730 l 1,1,-1
 952 164 l 1,2,3
 894 85 894 85 800 32.5 c 128,-1,4
 706 -20 706 -20 572 -20 c 0,5,6
 322 -20 322 -20 201 140 c 128,-1,7
 80 300 80 300 80 523 c 2,8,-1
 80 559 l 2,9,10
 80 781 80 781 201.5 941.5 c 128,-1,11
 323 1102 323 1102 572 1102 c 0,12,13
 679 1102 679 1102 762 1064 c 128,-1,14
 845 1026 845 1026 901 971 c 1,15,-1
 1129 1082 l 1,16,-1
 1307 1082 l 1,17,-1
 1307 -416 l 1,18,-1
 1064 -416 l 1,19,-1
 1064 787 l 1,0,-1
570 175 m 0,20,21
 653 175 653 175 709 220 c 1,22,-1
 709 856 l 1,23,24
 653 907 653 907 569 907 c 0,25,26
 421 907 421 907 371.5 797.5 c 128,-1,27
 322 688 322 688 322 559 c 2,28,-1
 322 523 l 2,29,30
 322 364 322 364 382 269.5 c 128,-1,31
 442 175 442 175 570 175 c 0,20,21
EndSplineSet
EndChar

StartChar: Phook
Encoding: 420 420 184
Width: 1564
Flags: W
LayerCount: 2
Fore
SplineSet
34 1132 m 0,0,1
 34 1290 34 1290 129.5 1373 c 128,-1,2
 225 1456 225 1456 403 1456 c 1,3,-1
 403 1456 l 1,4,-1
 960 1456 l 2,5,6
 1214 1456 1214 1456 1352 1325 c 128,-1,7
 1490 1194 1490 1194 1490 993 c 0,8,9
 1490 782 1490 782 1352 661.5 c 128,-1,10
 1214 541 1214 541 960 541 c 2,11,-1
 656 541 l 1,12,-1
 656 0 l 1,13,-1
 403 0 l 1,14,-1
 403 1253 l 1,15,16
 312 1252 312 1252 276 1202.5 c 128,-1,17
 240 1153 240 1153 240 1077 c 0,18,19
 240 1040 240 1040 249 1002 c 1,20,-1
 51 1002 l 1,21,22
 34 1059 34 1059 34 1132 c 0,0,1
656 1253 m 1,23,-1
 656 744 l 1,24,-1
 960 744 l 2,25,26
 1107 744 1107 744 1171.5 813 c 128,-1,27
 1236 882 1236 882 1236 991 c 0,28,29
 1236 1093 1236 1093 1171.5 1173 c 128,-1,30
 1107 1253 1107 1253 960 1253 c 2,31,-1
 656 1253 l 1,23,-1
EndSplineSet
EndChar

StartChar: phook
Encoding: 421 421 185
Width: 1153
Flags: W
LayerCount: 2
Fore
SplineSet
652 -20 m 0,0,1
 475 -20 475 -20 367 97 c 1,2,-1
 367 -416 l 1,3,-1
 125 -416 l 1,4,-1
 125 1082 l 1,5,-1
 125 1082 l 1,6,7
 128 1257 128 1257 234 1325.5 c 128,-1,8
 340 1394 340 1394 465 1394 c 0,9,10
 538 1394 538 1394 589 1379 c 1,11,-1
 589 1217 l 1,12,13
 552 1224 552 1224 525 1224 c 0,14,15
 460 1224 460 1224 413.5 1192 c 128,-1,16
 367 1160 367 1160 367 1075 c 2,17,-1
 367 983 l 1,18,19
 474 1102 474 1102 650 1102 c 0,20,21
 856 1102 856 1102 964.5 950 c 128,-1,22
 1073 798 1073 798 1073 551 c 2,23,-1
 1073 530 l 2,24,25
 1073 294 1073 294 964 137 c 128,-1,26
 855 -20 855 -20 652 -20 c 0,0,1
582 904 m 0,27,28
 502 904 502 904 449.5 870.5 c 128,-1,29
 397 837 397 837 367 779 c 1,30,-1
 367 302 l 1,31,32
 397 245 397 245 449 210 c 128,-1,33
 501 175 501 175 584 175 c 0,34,35
 714 175 714 175 772 280.5 c 128,-1,36
 830 386 830 386 830 530 c 2,37,-1
 830 551 l 2,38,39
 830 697 830 697 771.5 800.5 c 128,-1,40
 713 904 713 904 582 904 c 0,27,28
EndSplineSet
EndChar

StartChar: YR
Encoding: 422 422 186
Width: 1412
Flags: W
LayerCount: 2
Fore
SplineSet
401 0 m 1,0,-1
 149 0 l 1,1,-1
 149 1560 l 1,2,-1
 401 1560 l 1,3,-1
 401 1456 l 1,4,-1
 661 1456 l 2,5,6
 912 1456 912 1456 1049 1344 c 128,-1,7
 1186 1232 1186 1232 1186 1017 c 0,8,9
 1186 871 1186 871 1115 772 c 128,-1,10
 1044 673 1044 673 919 621 c 1,11,-1
 1434 -343 l 1,12,-1
 1434 -356 l 1,13,-1
 1163 -356 l 1,14,-1
 685 561 l 1,15,-1
 401 561 l 1,16,-1
 401 0 l 1,0,-1
401 1253 m 1,17,-1
 401 764 l 1,18,-1
 661 764 l 2,19,20
 797 764 797 764 865.5 832.5 c 128,-1,21
 934 901 934 901 934 1005 c 0,22,23
 934 1118 934 1118 869 1185.5 c 128,-1,24
 804 1253 804 1253 661 1253 c 2,25,-1
 401 1253 l 1,17,-1
EndSplineSet
EndChar

StartChar: Tonetwo
Encoding: 423 423 187
Width: 1237
Flags: W
LayerCount: 2
Fore
SplineSet
327 376 m 256,0,1
 327 288 327 288 394 234 c 128,-1,2
 461 180 461 180 592 180 c 0,3,4
 726 180 726 180 817.5 241 c 128,-1,5
 909 302 909 302 909 440 c 1,6,-1
 1162 440 l 1,7,8
 1162 286 1162 286 1078 184 c 128,-1,9
 994 82 994 82 863 31 c 128,-1,10
 732 -20 732 -20 592 -20 c 0,11,12
 356 -20 356 -20 215 87 c 128,-1,13
 74 194 74 194 74 378 c 0,14,15
 74 551 74 551 191.5 659 c 128,-1,16
 309 767 309 767 554 839 c 0,17,18
 711 884 711 884 787.5 938 c 128,-1,19
 864 992 864 992 864 1074 c 0,20,21
 864 1160 864 1160 800 1217.5 c 128,-1,22
 736 1275 736 1275 603 1275 c 0,23,24
 462 1275 462 1275 395 1206.5 c 128,-1,25
 328 1138 328 1138 328 1031 c 1,26,-1
 76 1031 l 1,27,28
 76 1213 76 1213 215 1344.5 c 128,-1,29
 354 1476 354 1476 601 1476 c 0,30,31
 832 1476 832 1476 974.5 1362.5 c 128,-1,32
 1117 1249 1117 1249 1117 1073 c 0,33,34
 1117 894 1117 894 981.5 793 c 128,-1,35
 846 692 846 692 638 629 c 0,36,37
 448 571 448 571 387.5 517.5 c 128,-1,38
 327 464 327 464 327 376 c 256,0,1
EndSplineSet
EndChar

StartChar: tonetwo
Encoding: 424 424 188
Width: 1058
Flags: W
LayerCount: 2
Fore
SplineSet
326 294 m 0,0,1
 326 236 326 236 376.5 199 c 128,-1,2
 427 162 427 162 522 162 c 0,3,4
 603 162 603 162 672 202 c 128,-1,5
 741 242 741 242 746 342 c 1,6,-1
 982 342 l 1,7,8
 982 208 982 208 865 94 c 128,-1,9
 748 -20 748 -20 525 -20 c 0,10,11
 326 -20 326 -20 206.5 72 c 128,-1,12
 87 164 87 164 87 308 c 0,13,14
 87 453 87 453 193 525.5 c 128,-1,15
 299 598 299 598 487 639 c 0,16,17
 618 667 618 667 663.5 699 c 128,-1,18
 709 731 709 731 709 784 c 0,19,20
 709 838 709 838 664.5 879 c 128,-1,21
 620 920 620 920 529 920 c 0,22,23
 434 920 434 920 386 870.5 c 128,-1,24
 338 821 338 821 338 758 c 1,25,-1
 95 758 l 1,26,27
 95 904 95 904 210.5 1003 c 128,-1,28
 326 1102 326 1102 528 1102 c 0,29,30
 721 1102 721 1102 833.5 1004.5 c 128,-1,31
 946 907 946 907 946 774 c 0,32,33
 946 638 946 638 838.5 564.5 c 128,-1,34
 731 491 731 491 557 454 c 0,35,36
 411 424 411 424 368.5 385 c 128,-1,37
 326 346 326 346 326 294 c 0,0,1
EndSplineSet
EndChar

StartChar: eshlooprev
Encoding: 426 426 190
Width: 1012
Flags: W
LayerCount: 2
Fore
SplineSet
976 -401 m 1,0,1
 916 -418 916 -418 847 -418 c 0,2,3
 523 -418 523 -418 523 -44 c 2,4,-1
 523 851 l 1,5,6
 462 829 462 829 396 829 c 0,7,8
 243 829 243 829 135 937 c 128,-1,9
 27 1045 27 1045 27 1197 c 0,10,11
 27 1350 27 1350 135 1458.5 c 128,-1,12
 243 1567 243 1567 396 1567 c 0,13,14
 548 1567 548 1567 657 1458.5 c 128,-1,15
 766 1350 766 1350 766 1197 c 2,16,-1
 766 -44 l 2,17,18
 766 -218 766 -218 902 -218 c 0,19,20
 940 -218 940 -218 976 -209 c 1,21,-1
 976 -401 l 1,0,1
397 1042 m 0,22,23
 459 1042 459 1042 502 1081.5 c 128,-1,24
 545 1121 545 1121 545 1199 c 256,25,26
 545 1277 545 1277 502 1317 c 128,-1,27
 459 1357 459 1357 397 1357 c 0,28,29
 333 1357 333 1357 289.5 1317 c 128,-1,30
 246 1277 246 1277 246 1199 c 256,31,32
 246 1121 246 1121 289.5 1081.5 c 128,-1,33
 333 1042 333 1042 397 1042 c 0,22,23
EndSplineSet
EndChar

StartChar: tpalatalhook
Encoding: 427 427 191
Width: 682
Flags: W
LayerCount: 2
Fore
SplineSet
542 182 m 0,0,1
 566 182 566 182 590 185.5 c 128,-1,2
 614 189 614 189 627 192 c 1,3,-1
 627 -60 l 2,4,5
 627 -380 627 -380 350 -380 c 0,6,7
 290 -380 290 -380 239 -365 c 1,8,-1
 239 -202 l 1,9,10
 268 -209 268 -209 303 -209 c 0,11,12
 368 -209 368 -209 414 -177.5 c 128,-1,13
 460 -146 460 -146 460 -60 c 2,14,-1
 460 -20 l 1,15,16
 341 -18 341 -18 264 50.5 c 128,-1,17
 187 119 187 119 187 284 c 2,18,-1
 187 903 l 1,19,-1
 8 903 l 1,20,-1
 8 1082 l 1,21,-1
 187 1082 l 1,22,-1
 187 1345 l 1,23,-1
 429 1345 l 1,24,-1
 429 1082 l 1,25,-1
 620 1082 l 1,26,-1
 620 903 l 1,27,-1
 429 903 l 1,28,-1
 429 298 l 2,29,30
 429 225 429 225 460.5 203.5 c 128,-1,31
 492 182 492 182 542 182 c 0,0,1
EndSplineSet
EndChar

StartChar: Thook
Encoding: 428 428 192
Width: 1360
Flags: W
LayerCount: 2
Fore
SplineSet
30 1132 m 0,0,1
 30 1456 30 1456 404 1456 c 2,2,-1
 1317 1456 l 1,3,-1
 1317 1253 l 1,4,-1
 863 1253 l 1,5,-1
 863 0 l 1,6,-1
 612 0 l 1,7,-1
 612 1253 l 1,8,-1
 404 1253 l 2,9,10
 310 1253 310 1253 273.5 1203.5 c 128,-1,11
 237 1154 237 1154 237 1077 c 0,12,13
 237 1042 237 1042 245 1002 c 1,14,-1
 47 1002 l 1,15,16
 30 1064 30 1064 30 1132 c 0,0,1
EndSplineSet
EndChar

StartChar: thook
Encoding: 429 429 193
Width: 714
Flags: W
LayerCount: 2
Fore
SplineSet
597 1397 m 0,0,1
 532 1397 532 1397 486 1365.5 c 128,-1,2
 440 1334 440 1334 440 1248 c 2,3,-1
 440 1082 l 1,4,-1
 631 1082 l 1,5,-1
 631 903 l 1,6,-1
 440 903 l 1,7,-1
 440 318 l 2,8,9
 440 237 440 237 471 209.5 c 128,-1,10
 502 182 502 182 552 182 c 0,11,12
 577 182 577 182 600.5 185.5 c 128,-1,13
 624 189 624 189 637 192 c 1,14,-1
 637 4 l 1,15,16
 608 -6 608 -6 569 -13 c 128,-1,17
 530 -20 530 -20 477 -20 c 0,18,19
 356 -20 356 -20 276.5 54.5 c 128,-1,20
 197 129 197 129 197 304 c 2,21,-1
 197 903 l 1,22,-1
 19 903 l 1,23,-1
 19 1082 l 1,24,-1
 197 1082 l 1,25,-1
 197 1248 l 2,26,27
 197 1426 197 1426 304 1496.5 c 128,-1,28
 411 1567 411 1567 537 1567 c 0,29,30
 610 1567 610 1567 661 1552 c 1,31,-1
 661 1390 l 1,32,33
 624 1397 624 1397 597 1397 c 0,0,1
EndSplineSet
EndChar

StartChar: Trthook
Encoding: 430 430 194
Width: 1244
Flags: W
LayerCount: 2
Fore
SplineSet
45 1253 m 1,0,-1
 45 1456 l 1,1,-1
 1200 1456 l 1,2,-1
 1200 1253 l 1,3,-1
 747 1253 l 1,4,-1
 747 -63 l 2,5,6
 747 -232 747 -232 863 -232 c 0,7,8
 886 -232 886 -232 914 -228 c 128,-1,9
 942 -224 942 -224 961 -219 c 1,10,-1
 975 -420 l 1,11,12
 917 -437 917 -437 848 -437 c 0,13,14
 684 -437 684 -437 589.5 -340.5 c 128,-1,15
 495 -244 495 -244 495 -63 c 2,16,-1
 495 1253 l 1,17,-1
 45 1253 l 1,0,-1
EndSplineSet
EndChar

StartChar: Uhorn
Encoding: 431 431 195
Width: 1445
GlyphClass: 2
Flags: W
AnchorPoint: "Anchor-5" 1445 1612 basechar 0
AnchorPoint: "Anchor-1" 706 -10 basechar 0
AnchorPoint: "Anchor-0" 706 1612 basechar 0
LayerCount: 2
Fore
SplineSet
1214 483 m 2,0,1
 1214 233 1214 233 1055 106.5 c 128,-1,2
 896 -20 896 -20 669 -20 c 0,3,4
 436 -20 436 -20 281 106.5 c 128,-1,5
 126 233 126 233 126 483 c 2,6,-1
 126 1456 l 1,7,-1
 377 1456 l 1,8,-1
 377 483 l 2,9,10
 377 327 377 327 456.5 254.5 c 128,-1,11
 536 182 536 182 669 182 c 0,12,13
 804 182 804 182 882.5 254.5 c 128,-1,14
 961 327 961 327 961 483 c 2,15,-1
 961 1456 l 1,16,-1
 1214 1456 l 1,17,-1
 1214 1237 l 1,18,19
 1341 1248 1341 1248 1379 1325.5 c 128,-1,20
 1417 1403 1417 1403 1417 1537 c 1,21,-1
 1597 1537 l 1,22,23
 1597 1329 1597 1329 1512 1213 c 128,-1,24
 1427 1097 1427 1097 1214 1086 c 1,25,-1
 1214 483 l 2,0,1
EndSplineSet
EndChar

StartChar: uhorn
Encoding: 432 432 196
Width: 1266
GlyphClass: 2
Flags: W
AnchorPoint: "Anchor-5" 1266 1269 basechar 0
AnchorPoint: "Anchor-1" 567 0 basechar 0
AnchorPoint: "Anchor-0" 578 1269 basechar 0
LayerCount: 2
Fore
SplineSet
786 0 m 1,0,-1
 780 106 l 1,1,2
 674 -20 674 -20 476 -20 c 0,3,4
 317 -20 317 -20 218 74 c 128,-1,5
 119 168 119 168 119 383 c 2,6,-1
 119 1082 l 1,7,-1
 362 1082 l 1,8,-1
 362 381 l 2,9,10
 362 264 362 264 413.5 221.5 c 128,-1,11
 465 179 465 179 534 179 c 0,12,13
 627 179 627 179 685 213 c 128,-1,14
 743 247 743 247 772 304 c 1,15,-1
 772 1082 l 1,16,-1
 1015 1082 l 1,17,-1
 1015 946 l 1,18,19
 1116 957 1116 957 1137.5 1012 c 128,-1,20
 1159 1067 1159 1067 1159 1172 c 1,21,-1
 1321 1172 l 1,22,23
 1321 1008 1321 1008 1256 919 c 128,-1,24
 1191 830 1191 830 1015 819 c 1,25,-1
 1015 0 l 1,26,-1
 786 0 l 1,0,-1
EndSplineSet
EndChar

StartChar: Upsilon2
Encoding: 433 433 197
Width: 1363
Flags: W
LayerCount: 2
Fore
SplineSet
979 705 m 2,0,1
 979 955 979 955 912 1086.5 c 128,-1,2
 845 1218 845 1218 733 1247 c 1,3,-1
 733 1456 l 1,4,-1
 1238 1456 l 1,5,-1
 1238 1253 l 1,6,-1
 1021 1253 l 1,7,8
 1123 1155 1123 1155 1186 1010.5 c 128,-1,9
 1249 866 1249 866 1249 705 c 2,10,-1
 1249 606 l 2,11,12
 1249 328 1249 328 1092 153.5 c 128,-1,13
 935 -21 935 -21 682 -21 c 256,14,15
 429 -21 429 -21 270 153.5 c 128,-1,16
 111 328 111 328 111 606 c 2,17,-1
 111 705 l 2,18,19
 111 866 111 866 173.5 1010.5 c 128,-1,20
 236 1155 236 1155 339 1253 c 1,21,-1
 125 1253 l 1,22,-1
 125 1456 l 1,23,-1
 622 1456 l 1,24,-1
 622 1247 l 1,25,26
 512 1218 512 1218 447 1085.5 c 128,-1,27
 382 953 382 953 382 705 c 2,28,-1
 382 604 l 2,29,30
 382 396 382 396 462.5 289.5 c 128,-1,31
 543 183 543 183 682 183 c 0,32,33
 819 183 819 183 899 289.5 c 128,-1,34
 979 396 979 396 979 604 c 2,35,-1
 979 705 l 2,0,1
EndSplineSet
EndChar

StartChar: Vcursive
Encoding: 434 434 198
Width: 1340
Flags: W
LayerCount: 2
Fore
SplineSet
670 -20 m 0,0,1
 436 -20 436 -20 281 106.5 c 128,-1,2
 126 233 126 233 126 483 c 2,3,-1
 126 1456 l 1,4,-1
 378 1456 l 1,5,-1
 378 483 l 2,6,7
 378 327 378 327 457 254.5 c 128,-1,8
 536 182 536 182 670 182 c 0,9,10
 805 182 805 182 883 254.5 c 128,-1,11
 961 327 961 327 961 483 c 2,12,-1
 961 1102 l 2,13,14
 961 1196 961 1196 923.5 1232.5 c 128,-1,15
 886 1269 886 1269 809 1269 c 0,16,17
 774 1269 774 1269 734 1261 c 1,18,-1
 734 1459 l 1,19,20
 796 1476 796 1476 864 1476 c 0,21,22
 1022 1476 1022 1476 1118 1380 c 128,-1,23
 1214 1284 1214 1284 1214 1102 c 2,24,-1
 1214 483 l 2,25,26
 1214 233 1214 233 1055 106.5 c 128,-1,27
 896 -20 896 -20 670 -20 c 0,0,1
EndSplineSet
EndChar

StartChar: Yhook
Encoding: 435 435 199
Width: 1369
Flags: W
LayerCount: 2
Fore
SplineSet
1000 1004 m 2,0,-1
 751 535 l 1,1,-1
 751 0 l 1,2,-1
 497 0 l 1,3,-1
 497 536 l 1,4,-1
 8 1456 l 1,5,-1
 290 1456 l 1,6,-1
 624 765 l 1,7,-1
 790 1106 l 2,8,9
 874 1282 874 1282 949.5 1379 c 128,-1,10
 1025 1476 1025 1476 1158 1476 c 0,11,12
 1228 1476 1228 1476 1285 1457 c 128,-1,13
 1342 1438 1342 1438 1389 1407 c 1,14,-1
 1300 1230 l 1,15,16
 1279 1243 1279 1243 1258.5 1250 c 128,-1,17
 1238 1257 1238 1257 1206 1257 c 0,18,19
 1143 1257 1143 1257 1105.5 1195.5 c 128,-1,20
 1068 1134 1068 1134 1000 1004 c 2,0,-1
EndSplineSet
EndChar

StartChar: yhook
Encoding: 436 436 200
Width: 1220
Flags: W
LayerCount: 2
Fore
SplineSet
552 -164 m 2,0,1
 534 -218 534 -218 496 -282 c 128,-1,2
 458 -346 458 -346 390.5 -391.5 c 128,-1,3
 323 -437 323 -437 217 -437 c 0,4,5
 186 -437 186 -437 155 -431 c 128,-1,6
 124 -425 124 -425 100 -420 c 1,7,-1
 100 -232 l 1,8,9
 109 -233 109 -233 123.5 -234 c 128,-1,10
 138 -235 138 -235 146 -235 c 0,11,12
 234 -235 234 -235 281 -202.5 c 128,-1,13
 328 -170 328 -170 359 -85 c 2,14,-1
 393 5 l 1,15,-1
 12 1082 l 1,16,-1
 275 1082 l 1,17,-1
 484 413 l 1,18,-1
 501 335 l 1,19,-1
 709 1016 l 2,20,21
 734 1096 734 1096 767.5 1176 c 128,-1,22
 801 1256 801 1256 862.5 1309 c 128,-1,23
 924 1362 924 1362 1031 1362 c 0,24,25
 1093 1362 1093 1362 1148.5 1339.5 c 128,-1,26
 1204 1317 1204 1317 1245 1284 c 1,27,-1
 1190 1135 l 1,28,29
 1163 1148 1163 1148 1136 1157.5 c 128,-1,30
 1109 1167 1109 1167 1082 1167 c 0,31,32
 1025 1167 1025 1167 990.5 1112 c 128,-1,33
 956 1057 956 1057 919 942 c 2,34,-1
 552 -164 l 2,0,1
EndSplineSet
EndChar

StartChar: Zbar
Encoding: 437 437 201
Width: 1234
GlyphClass: 2
Flags: W
AnchorPoint: "Anchor-5" 1234 1600 basechar 0
AnchorPoint: "Anchor-1" 618 10 basechar 0
AnchorPoint: "Anchor-0" 623 1600 basechar 0
LayerCount: 2
Fore
SplineSet
86 1253 m 1,0,-1
 86 1456 l 1,1,-1
 1140 1456 l 1,2,-1
 1140 1296 l 1,3,-1
 815 824 l 1,4,-1
 1097 824 l 1,5,-1
 1097 654 l 1,6,-1
 698 654 l 1,7,-1
 386 202 l 1,8,-1
 1164 202 l 1,9,-1
 1164 0 l 1,10,-1
 80 0 l 1,11,-1
 80 164 l 1,12,-1
 419 654 l 1,13,-1
 128 654 l 1,14,-1
 128 824 l 1,15,-1
 537 824 l 1,16,-1
 834 1253 l 1,17,-1
 86 1253 l 1,0,-1
EndSplineSet
EndChar

StartChar: zbar
Encoding: 438 438 202
Width: 1044
GlyphClass: 2
Flags: W
AnchorPoint: "Anchor-5" 1044 1290 basechar 0
AnchorPoint: "Anchor-1" 525 10 basechar 0
AnchorPoint: "Anchor-0" 519 1290 basechar 0
LayerCount: 2
Fore
SplineSet
100 886 m 1,0,-1
 100 1082 l 1,1,-1
 946 1082 l 1,2,-1
 946 929 l 1,3,-1
 723 634 l 1,4,-1
 894 634 l 1,5,-1
 894 464 l 1,6,-1
 595 464 l 1,7,-1
 392 195 l 1,8,-1
 967 195 l 1,9,-1
 967 0 l 1,10,-1
 89 0 l 1,11,-1
 89 159 l 1,12,-1
 320 464 l 1,13,-1
 141 464 l 1,14,-1
 141 634 l 1,15,-1
 448 634 l 1,16,-1
 639 886 l 1,17,-1
 100 886 l 1,0,-1
EndSplineSet
EndChar

StartChar: uni01B7
Encoding: 439 439 203
Width: 1331
Flags: W
LayerCount: 2
Fore
SplineSet
97 1253 m 1,0,-1
 97 1456 l 1,1,-1
 1145 1456 l 1,2,-1
 1145 1300 l 1,3,-1
 687 777 l 1,4,5
 937 763 937 763 1084 615.5 c 128,-1,6
 1231 468 1231 468 1231 178 c 0,7,8
 1231 -128 1231 -128 1070.5 -275.5 c 128,-1,9
 910 -423 910 -423 643 -423 c 256,10,11
 376 -423 376 -423 235 -282 c 128,-1,12
 94 -141 94 -141 74 70 c 1,13,-1
 327 70 l 1,14,15
 346 -73 346 -73 413 -147 c 128,-1,16
 480 -221 480 -221 643 -221 c 0,17,18
 822 -221 822 -221 900.5 -122.5 c 128,-1,19
 979 -24 979 -24 979 178 c 0,20,21
 979 402 979 402 892.5 493 c 128,-1,22
 806 584 806 584 630 584 c 2,23,-1
 387 584 l 1,24,-1
 387 746 l 1,25,-1
 835 1253 l 1,26,-1
 97 1253 l 1,0,-1
EndSplineSet
EndChar

StartChar: uni01B8
Encoding: 440 440 204
Width: 1331
Flags: W
LayerCount: 2
Fore
SplineSet
946 746 m 1,0,-1
 946 584 l 1,1,-1
 701 584 l 2,2,3
 525 584 525 584 438.5 493 c 128,-1,4
 352 402 352 402 352 178 c 0,5,6
 352 -24 352 -24 431 -122.5 c 128,-1,7
 510 -221 510 -221 688 -221 c 0,8,9
 852 -221 852 -221 919 -147 c 128,-1,10
 986 -73 986 -73 1005 70 c 1,11,-1
 1257 70 l 1,12,13
 1237 -141 1237 -141 1096 -282 c 128,-1,14
 955 -423 955 -423 688 -423 c 256,15,16
 421 -423 421 -423 260.5 -275.5 c 128,-1,17
 100 -128 100 -128 100 178 c 0,18,19
 100 468 100 468 247.5 615.5 c 128,-1,20
 395 763 395 763 646 777 c 1,21,-1
 188 1300 l 1,22,-1
 188 1456 l 1,23,-1
 1234 1456 l 1,24,-1
 1234 1253 l 1,25,-1
 498 1253 l 1,26,-1
 946 746 l 1,0,-1
EndSplineSet
EndChar

StartChar: uni01B9
Encoding: 441 441 205
Width: 1165
Flags: W
LayerCount: 2
Fore
SplineSet
422 886 m 1,0,-1
 770 485 l 1,1,-1
 770 314 l 1,2,-1
 628 314 l 2,3,4
 480 314 480 314 403 249 c 128,-1,5
 326 184 326 184 326 33 c 0,6,7
 326 -67 326 -67 397 -133.5 c 128,-1,8
 468 -200 468 -200 596 -200 c 0,9,10
 707 -200 707 -200 774 -132.5 c 128,-1,11
 841 -65 841 -65 841 29 c 1,12,-1
 1084 29 l 1,13,14
 1084 -120 1084 -120 1012 -213.5 c 128,-1,15
 940 -307 940 -307 828 -351 c 128,-1,16
 716 -395 716 -395 596 -395 c 0,17,18
 372 -395 372 -395 227.5 -283 c 128,-1,19
 83 -171 83 -171 83 33 c 0,20,21
 83 228 83 228 192 343.5 c 128,-1,22
 301 459 301 459 500 483 c 1,23,-1
 125 927 l 1,24,-1
 126 1082 l 1,25,-1
 1034 1082 l 1,26,-1
 1034 886 l 1,27,-1
 422 886 l 1,0,-1
EndSplineSet
EndChar

StartChar: uni01BA
Encoding: 442 442 206
Width: 1087
Flags: W
LayerCount: 2
Fore
SplineSet
691 368 m 0,0,1
 691 484 691 484 510 484 c 2,2,-1
 308 484 l 1,3,-1
 308 631 l 1,4,-1
 629 887 l 1,5,-1
 121 887 l 1,6,-1
 121 1082 l 1,7,-1
 994 1082 l 1,8,-1
 995 939 l 1,9,-1
 669 647 l 1,10,11
 791 615 791 615 859.5 537.5 c 128,-1,12
 928 460 928 460 928 358 c 0,13,14
 928 212 928 212 815 140.5 c 128,-1,15
 702 69 702 69 536 33 c 0,16,17
 395 4 395 4 351.5 -33.5 c 128,-1,18
 308 -71 308 -71 308 -122 c 0,19,20
 308 -255 308 -255 504 -255 c 0,21,22
 581 -255 581 -255 652 -215.5 c 128,-1,23
 723 -176 723 -176 728 -75 c 1,24,-1
 964 -75 l 1,25,26
 964 -208 964 -208 846.5 -322.5 c 128,-1,27
 729 -437 729 -437 507 -437 c 0,28,29
 308 -437 308 -437 188.5 -345 c 128,-1,30
 69 -253 69 -253 69 -109 c 0,31,32
 69 28 69 28 171 103.5 c 128,-1,33
 273 179 273 179 470 219 c 0,34,35
 596 244 596 244 643.5 275 c 128,-1,36
 691 306 691 306 691 368 c 0,0,1
EndSplineSet
EndChar

StartChar: uni01BB
Encoding: 443 443 207
Width: 1192
Flags: W
LayerCount: 2
Fore
SplineSet
1089 195 m 1,0,-1
 1089 0 l 1,1,-1
 109 0 l 1,2,-1
 109 168 l 1,3,-1
 549 647 l 1,4,-1
 278 647 l 1,5,-1
 278 818 l 1,6,-1
 695 818 l 1,7,8
 748 890 748 890 768.5 943.5 c 128,-1,9
 789 997 789 997 789 1050 c 0,10,11
 789 1150 789 1150 732.5 1215.5 c 128,-1,12
 676 1281 676 1281 572 1281 c 0,13,14
 448 1281 448 1281 386 1205.5 c 128,-1,15
 324 1130 324 1130 324 1013 c 1,16,-1
 81 1013 l 1,17,18
 81 1204 81 1204 210 1340 c 128,-1,19
 339 1476 339 1476 575 1476 c 0,20,21
 793 1476 793 1476 912.5 1367 c 128,-1,22
 1032 1258 1032 1258 1032 1076 c 0,23,24
 1032 1010 1032 1010 1011.5 946 c 128,-1,25
 991 882 991 882 954 818 c 1,26,-1
 1112 818 l 1,27,-1
 1112 647 l 1,28,-1
 831 647 l 1,29,30
 790 599 790 599 737 543 c 2,31,-1
 412 195 l 1,32,-1
 1089 195 l 1,0,-1
EndSplineSet
EndChar

StartChar: Tonefive
Encoding: 444 444 208
Width: 1199
Flags: W
LayerCount: 2
Fore
SplineSet
63 1247 m 1,0,-1
 63 1456 l 1,1,-1
 1073 1456 l 1,2,-1
 1073 1247 l 1,3,-1
 493 1247 l 1,4,-1
 453 899 l 1,5,6
 488 918 488 918 546.5 937 c 128,-1,7
 605 956 605 956 681 956 c 0,8,9
 888 956 888 956 1004 824.5 c 128,-1,10
 1120 693 1120 693 1120 466 c 0,11,12
 1120 264 1120 264 1001.5 122 c 128,-1,13
 883 -20 883 -20 641 -20 c 0,14,15
 459 -20 459 -20 319.5 85.5 c 128,-1,16
 180 191 180 191 167 394 c 1,17,-1
 402 394 l 1,18,19
 430 175 430 175 640 175 c 0,20,21
 758 175 758 175 817.5 258.5 c 128,-1,22
 877 342 877 342 877 473 c 0,23,24
 877 598 877 598 811.5 679 c 128,-1,25
 746 760 746 760 618 760 c 0,26,27
 533 760 533 760 489 735.5 c 128,-1,28
 445 711 445 711 406 674 c 1,29,-1
 212 722 l 1,30,-1
 269 1247 l 1,31,-1
 63 1247 l 1,0,-1
EndSplineSet
EndChar

StartChar: tonefive
Encoding: 445 445 209
Width: 1072
Flags: W
LayerCount: 2
Fore
SplineSet
46 883 m 1,0,-1
 46 1082 l 1,1,-1
 946 1082 l 1,2,-1
 946 883 l 1,3,-1
 438 883 l 1,4,-1
 409 670 l 1,5,6
 444 690 444 690 502 707 c 128,-1,7
 560 724 560 724 622 726 c 0,8,9
 805 728 805 728 907.5 630.5 c 128,-1,10
 1010 533 1010 533 1010 356 c 0,11,12
 1010 196 1010 196 905.5 90 c 128,-1,13
 801 -16 801 -16 563 -16 c 0,14,15
 458 -16 458 -16 356.5 19 c 128,-1,16
 255 54 255 54 188 126.5 c 128,-1,17
 121 199 121 199 121 312 c 1,18,-1
 358 329 l 1,19,20
 360 259 360 259 416 219 c 128,-1,21
 472 179 472 179 563 179 c 0,22,23
 670 179 670 179 718.5 230 c 128,-1,24
 767 281 767 281 767 363 c 0,25,26
 767 446 767 446 715.5 497.5 c 128,-1,27
 664 549 664 549 566 549 c 0,28,29
 488 549 488 549 444 523.5 c 128,-1,30
 400 498 400 498 377 466 c 1,31,-1
 164 479 l 1,32,-1
 213 883 l 1,33,-1
 46 883 l 1,0,-1
EndSplineSet
EndChar

StartChar: glottalstopbarinv
Encoding: 446 446 210
Width: 1058
Flags: W
LayerCount: 2
Fore
SplineSet
970 308 m 0,0,1
 970 164 970 164 851 72 c 128,-1,2
 732 -20 732 -20 533 -20 c 0,3,4
 310 -20 310 -20 193 94 c 128,-1,5
 76 208 76 208 76 342 c 1,6,-1
 312 342 l 1,7,8
 316 241 316 241 387 201.5 c 128,-1,9
 458 162 458 162 535 162 c 0,10,11
 629 162 629 162 680.5 198.5 c 128,-1,12
 732 235 732 235 732 294 c 0,13,14
 732 363 732 363 677 402 c 128,-1,15
 622 441 622 441 550 482 c 128,-1,16
 478 523 478 523 423 594 c 128,-1,17
 368 665 368 665 368 798 c 2,18,-1
 368 903 l 1,19,-1
 189 903 l 1,20,-1
 189 1082 l 1,21,-1
 368 1082 l 1,22,-1
 368 1345 l 1,23,-1
 610 1345 l 1,24,-1
 610 1082 l 1,25,-1
 802 1082 l 1,26,-1
 802 903 l 1,27,-1
 610 903 l 1,28,-1
 610 801 l 2,29,30
 610 702 610 702 664.5 655 c 128,-1,31
 719 608 719 608 790 573 c 128,-1,32
 861 538 861 538 915.5 481.5 c 128,-1,33
 970 425 970 425 970 308 c 0,0,1
EndSplineSet
EndChar

StartChar: wynn
Encoding: 447 447 211
Width: 1153
Flags: W
LayerCount: 2
Fore
SplineSet
1073 530 m 2,0,1
 1073 327 1073 327 986 196 c 128,-1,2
 899 65 899 65 740.5 -19.5 c 128,-1,3
 582 -104 582 -104 367 -166 c 1,4,-1
 367 -416 l 1,5,-1
 125 -416 l 1,6,-1
 125 1082 l 1,7,-1
 347 1082 l 1,8,-1
 358 972 l 1,9,10
 466 1102 466 1102 650 1102 c 0,11,12
 856 1102 856 1102 964.5 950 c 128,-1,13
 1073 798 1073 798 1073 551 c 2,14,-1
 1073 530 l 2,0,1
582 904 m 0,15,16
 502 904 502 904 449.5 870.5 c 128,-1,17
 397 837 397 837 367 779 c 1,18,-1
 367 26 l 1,19,20
 571 81 571 81 700.5 200 c 128,-1,21
 830 319 830 319 830 530 c 2,22,-1
 830 551 l 2,23,24
 830 697 830 697 771.5 800.5 c 128,-1,25
 713 904 713 904 582 904 c 0,15,16
EndSplineSet
EndChar

StartChar: pipe
Encoding: 448 448 212
Width: 501
Flags: W
LayerCount: 2
Fore
SplineSet
334 1456 m 1,0,-1
 334 0 l 1,1,-1
 167 0 l 1,2,-1
 167 1456 l 1,3,-1
 334 1456 l 1,0,-1
EndSplineSet
EndChar

StartChar: uni01C5
Encoding: 453 453 217
Width: 2262
Flags: W
LayerCount: 2
Fore
SplineSet
1613 1522 m 1,0,-1
 1753 1379 l 1,1,-1
 1892 1522 l 1,2,-1
 2100 1522 l 1,3,-1
 2100 1504 l 1,4,-1
 1831 1252 l 1,5,-1
 1674 1252 l 1,6,-1
 1407 1503 l 1,7,-1
 1407 1522 l 1,8,-1
 1613 1522 l 1,0,-1
149 0 m 1,9,-1
 149 1456 l 1,10,-1
 578 1456 l 2,11,12
 870 1456 870 1456 1052 1267.5 c 128,-1,13
 1234 1079 1234 1079 1234 764 c 2,14,-1
 1234 691 l 2,15,16
 1234 376 1234 376 1051.5 188 c 128,-1,17
 869 0 869 0 567 0 c 2,18,-1
 149 0 l 1,9,-1
578 1253 m 2,19,-1
 401 1253 l 1,20,-1
 401 202 l 1,21,-1
 567 202 l 2,22,23
 773 202 773 202 877 332.5 c 128,-1,24
 981 463 981 463 981 691 c 2,25,-1
 981 766 l 2,26,27
 981 1002 981 1002 877.5 1127.5 c 128,-1,28
 774 1253 774 1253 578 1253 c 2,19,-1
1323 886 m 1,29,-1
 1323 1082 l 1,30,-1
 2170 1082 l 1,31,-1
 2170 929 l 1,32,-1
 1616 195 l 1,33,-1
 2191 195 l 1,34,-1
 2191 0 l 1,35,-1
 1313 0 l 1,36,-1
 1313 159 l 1,37,-1
 1862 886 l 1,38,-1
 1323 886 l 1,29,-1
EndSplineSet
EndChar

StartChar: uni01C6
Encoding: 454 454 218
Width: 2072
Flags: W
LayerCount: 2
Fore
SplineSet
817 0 m 1,0,-1
 800 117 l 1,1,2
 691 -20 691 -20 505 -20 c 0,3,4
 310 -20 310 -20 195 136.5 c 128,-1,5
 80 293 80 293 80 529 c 2,6,-1
 80 550 l 2,7,8
 80 797 80 797 194.5 949.5 c 128,-1,9
 309 1102 309 1102 507 1102 c 0,10,11
 679 1102 679 1102 785 983 c 1,12,-1
 785 1560 l 1,13,-1
 1028 1560 l 1,14,-1
 1028 0 l 1,15,-1
 817 0 l 1,0,-1
1423 1522 m 1,16,-1
 1563 1379 l 1,17,-1
 1702 1522 l 1,18,-1
 1910 1522 l 1,19,-1
 1910 1504 l 1,20,-1
 1641 1252 l 1,21,-1
 1484 1252 l 1,22,-1
 1217 1503 l 1,23,-1
 1217 1522 l 1,24,-1
 1423 1522 l 1,16,-1
1133 886 m 1,25,-1
 1133 1082 l 1,26,-1
 1980 1082 l 1,27,-1
 1980 929 l 1,28,-1
 1426 195 l 1,29,-1
 2001 195 l 1,30,-1
 2001 0 l 1,31,-1
 1123 0 l 1,32,-1
 1123 159 l 1,33,-1
 1672 886 l 1,34,-1
 1133 886 l 1,25,-1
322 529 m 2,35,36
 322 384 322 384 379 281.5 c 128,-1,37
 436 179 436 179 567 179 c 0,38,39
 649 179 649 179 701.5 216 c 128,-1,40
 754 253 754 253 785 313 c 1,41,-1
 785 774 l 1,42,43
 754 833 754 833 701 868.5 c 128,-1,44
 648 904 648 904 569 904 c 0,45,46
 437 904 437 904 379.5 800 c 128,-1,47
 322 696 322 696 322 550 c 2,48,-1
 322 529 l 2,35,36
EndSplineSet
EndChar

StartChar: Gbar
Encoding: 484 484 219
Width: 1419
GlyphClass: 2
Flags: W
AnchorPoint: "Anchor-5" 1419 1621 basechar 0
AnchorPoint: "Anchor-1" 688 -7 basechar 0
AnchorPoint: "Anchor-0" 681 1621 basechar 0
LayerCount: 2
Fore
SplineSet
1264 190 m 1,0,1
 1218 128 1218 128 1095 54 c 128,-1,2
 972 -20 972 -20 728 -20 c 0,3,4
 453 -20 453 -20 279.5 163 c 128,-1,5
 106 346 106 346 106 680 c 2,6,-1
 106 775 l 2,7,8
 106 1109 106 1109 265 1292.5 c 128,-1,9
 424 1476 424 1476 706 1476 c 0,10,11
 973 1476 973 1476 1105.5 1345 c 128,-1,12
 1238 1214 1238 1214 1264 1011 c 1,13,-1
 1016 1011 l 1,14,15
 997 1124 997 1124 927.5 1198.5 c 128,-1,16
 858 1273 858 1273 710 1273 c 0,17,18
 532 1273 532 1273 446.5 1143 c 128,-1,19
 361 1013 361 1013 361 777 c 2,20,-1
 361 680 l 2,21,22
 361 440 361 440 461 311 c 128,-1,23
 561 182 561 182 736 182 c 0,24,25
 867 182 867 182 926.5 212 c 128,-1,26
 986 242 986 242 1012 270 c 1,27,-1
 1012 326 l 1,28,-1
 748 326 l 1,29,-1
 748 484 l 1,30,-1
 1012 484 l 1,31,-1
 1012 556 l 1,32,-1
 713 556 l 1,33,-1
 713 747 l 1,34,-1
 1264 747 l 1,35,-1
 1264 484 l 1,36,-1
 1417 484 l 1,37,-1
 1417 326 l 1,38,-1
 1264 326 l 1,39,-1
 1264 190 l 1,0,1
EndSplineSet
EndChar

StartChar: gbar
Encoding: 485 485 220
Width: 1161
GlyphClass: 2
Flags: W
AnchorPoint: "Anchor-9" 579 -119 basechar 0
AnchorPoint: "Anchor-5" 1161 1290 basechar 0
AnchorPoint: "Anchor-1" 563 -487 basechar 0
AnchorPoint: "Anchor-0" 564 1290 basechar 0
LayerCount: 2
Fore
SplineSet
1149 -179 m 1,0,-1
 1033 -179 l 1,1,2
 997 -340 997 -340 869 -426.5 c 128,-1,3
 741 -513 741 -513 555 -513 c 0,4,5
 466 -513 466 -513 349 -478.5 c 128,-1,6
 232 -444 232 -444 150 -345 c 1,7,-1
 258 -203 l 1,8,9
 320 -270 320 -270 393.5 -296 c 128,-1,10
 467 -322 467 -322 541 -322 c 0,11,12
 728 -322 728 -322 784 -179 c 1,13,-1
 37 -179 l 1,14,-1
 37 -52 l 1,15,-1
 803 -52 l 1,16,-1
 803 98 l 1,17,18
 697 -20 697 -20 523 -20 c 0,19,20
 325 -20 325 -20 208 136.5 c 128,-1,21
 91 293 91 293 91 529 c 2,22,-1
 91 550 l 2,23,24
 91 797 91 797 207.5 949.5 c 128,-1,25
 324 1102 324 1102 525 1102 c 0,26,27
 711 1102 711 1102 816 975 c 1,28,-1
 826 1082 l 1,29,-1
 1046 1082 l 1,30,-1
 1046 -52 l 1,31,-1
 1149 -52 l 1,32,-1
 1149 -179 l 1,0,-1
334 529 m 2,33,34
 334 384 334 384 394 281.5 c 128,-1,35
 454 179 454 179 585 179 c 0,36,37
 667 179 667 179 719.5 214 c 128,-1,38
 772 249 772 249 803 306 c 1,39,-1
 803 780 l 1,40,41
 772 837 772 837 719 870.5 c 128,-1,42
 666 904 666 904 587 904 c 0,43,44
 455 904 455 904 394.5 800 c 128,-1,45
 334 696 334 696 334 550 c 2,46,-1
 334 529 l 2,33,34
EndSplineSet
EndChar

StartChar: uni01EF
Encoding: 495 495 222
Width: 1191
Flags: W
LayerCount: 2
Fore
SplineSet
436 1522 m 1,0,-1
 575 1379 l 1,1,-1
 715 1522 l 1,2,-1
 922 1522 l 1,3,-1
 922 1504 l 1,4,-1
 654 1252 l 1,5,-1
 497 1252 l 1,6,-1
 230 1503 l 1,7,-1
 230 1522 l 1,8,-1
 436 1522 l 1,0,-1
550 314 m 2,9,-1
 408 314 l 1,10,-1
 408 485 l 1,11,-1
 756 886 l 1,12,-1
 143 886 l 1,13,-1
 143 1082 l 1,14,-1
 1052 1082 l 1,15,-1
 1053 927 l 1,16,-1
 678 483 l 1,17,18
 877 459 877 459 985.5 343.5 c 128,-1,19
 1094 228 1094 228 1094 33 c 0,20,21
 1094 -171 1094 -171 949.5 -283 c 128,-1,22
 805 -395 805 -395 582 -395 c 0,23,24
 462 -395 462 -395 350 -351 c 128,-1,25
 238 -307 238 -307 166 -213.5 c 128,-1,26
 94 -120 94 -120 94 29 c 1,27,-1
 337 29 l 1,28,29
 337 -65 337 -65 403.5 -132.5 c 128,-1,30
 470 -200 470 -200 582 -200 c 0,31,32
 710 -200 710 -200 781 -133.5 c 128,-1,33
 852 -67 852 -67 852 33 c 0,34,35
 852 184 852 184 774.5 249 c 128,-1,36
 697 314 697 314 550 314 c 2,9,-1
EndSplineSet
EndChar

StartChar: uni01F6
Encoding: 502 502 223
Width: 2208
Flags: W
LayerCount: 2
Fore
SplineSet
1052 1456 m 1,0,-1
 1305 1456 l 1,1,-1
 1305 483 l 2,2,3
 1305 182 1305 182 1568 182 c 0,4,5
 1834 182 1834 182 1834 483 c 2,6,-1
 1834 1081 l 1,7,-1
 2086 1081 l 1,8,-1
 2086 483 l 2,9,10
 2086 233 2086 233 1940 106.5 c 128,-1,11
 1794 -20 1794 -20 1568 -20 c 0,12,13
 1335 -20 1335 -20 1193.5 106.5 c 128,-1,14
 1052 233 1052 233 1052 483 c 2,15,-1
 1052 648 l 1,16,-1
 401 648 l 1,17,-1
 401 0 l 1,18,-1
 149 0 l 1,19,-1
 149 1456 l 1,20,-1
 401 1456 l 1,21,-1
 401 850 l 1,22,-1
 1052 850 l 1,23,-1
 1052 1456 l 1,0,-1
EndSplineSet
EndChar

StartChar: uni01F7
Encoding: 503 503 224
Width: 1359
Flags: W
LayerCount: 2
Fore
SplineSet
1255 803 m 2,0,1
 1255 579 1255 579 1148 386 c 128,-1,2
 1041 193 1041 193 849 52.5 c 128,-1,3
 657 -88 657 -88 401 -156 c 1,4,-1
 401 -416 l 1,5,-1
 149 -416 l 1,6,-1
 149 1456 l 1,7,-1
 401 1456 l 1,8,-1
 401 1421 l 1,9,10
 509 1476 509 1476 657 1476 c 0,11,12
 932 1476 932 1476 1093.5 1320 c 128,-1,13
 1255 1164 1255 1164 1255 855 c 2,14,-1
 1255 803 l 2,0,1
657 1273 m 0,15,16
 490 1273 490 1273 401 1159 c 1,17,-1
 401 53 l 1,18,19
 707 150 707 150 854.5 364 c 128,-1,20
 1002 578 1002 578 1002 803 c 2,21,-1
 1002 857 l 2,22,23
 1002 1062 1002 1062 922.5 1167.5 c 128,-1,24
 843 1273 843 1273 657 1273 c 0,15,16
EndSplineSet
EndChar

StartChar: uni021C
Encoding: 540 540 225
Width: 1231
Flags: W
LayerCount: 2
Fore
SplineSet
1135 333 m 0,0,1
 1135 102 1135 102 1010.5 -51 c 128,-1,2
 886 -204 886 -204 669 -296 c 128,-1,3
 452 -388 452 -388 176 -437 c 1,4,-1
 176 -235 l 1,5,6
 514 -167 514 -167 698 -34.5 c 128,-1,7
 882 98 882 98 882 337 c 0,8,9
 882 507 882 507 799 563 c 1,10,11
 679 484 679 484 521 422.5 c 128,-1,12
 363 361 363 361 176 315 c 1,13,-1
 175 502 l 1,14,15
 531 609 531 609 696.5 724.5 c 128,-1,16
 862 840 862 840 862 1046 c 0,17,18
 862 1140 862 1140 797 1206.5 c 128,-1,19
 732 1273 732 1273 584 1273 c 0,20,21
 482 1273 482 1273 406 1217.5 c 128,-1,22
 330 1162 330 1162 330 1068 c 1,23,-1
 78 1068 l 1,24,25
 78 1259 78 1259 229 1367.5 c 128,-1,26
 380 1476 380 1476 584 1476 c 0,27,28
 826 1476 826 1476 969.5 1370.5 c 128,-1,29
 1113 1265 1113 1265 1113 1061 c 0,30,31
 1113 852 1113 852 952 687 c 1,32,33
 1135 580 1135 580 1135 333 c 0,0,1
EndSplineSet
EndChar

StartChar: uni021D
Encoding: 541 541 226
Width: 1034
Flags: W
LayerCount: 2
Fore
SplineSet
942 188 m 0,0,1
 942 -80 942 -80 738 -229 c 128,-1,2
 534 -378 534 -378 172 -437 c 1,3,-1
 172 -251 l 1,4,5
 422 -182 422 -182 560 -87 c 128,-1,6
 698 8 698 8 698 198 c 0,7,8
 698 305 698 305 649 371 c 1,9,10
 554 310 554 310 432 264 c 128,-1,11
 310 218 310 218 172 186 c 1,12,-1
 172 364 l 1,13,14
 306 402 306 402 421.5 454 c 128,-1,15
 537 506 537 506 608 582 c 128,-1,16
 679 658 679 658 679 767 c 0,17,18
 679 825 679 825 640.5 869.5 c 128,-1,19
 602 914 602 914 504 914 c 0,20,21
 423 914 423 914 368.5 875 c 128,-1,22
 314 836 314 836 314 775 c 1,23,-1
 72 775 l 1,24,25
 72 926 72 926 197 1013.5 c 128,-1,26
 322 1101 322 1101 497 1101 c 0,27,28
 694 1101 694 1101 808 1020.5 c 128,-1,29
 922 940 922 940 922 786 c 0,30,31
 922 620 922 620 793 486 c 1,32,33
 942 389 942 389 942 188 c 0,0,1
EndSplineSet
EndChar

StartChar: uni0220
Encoding: 544 544 227
Width: 1337
Flags: W
LayerCount: 2
Fore
SplineSet
1211 1003 m 2,0,-1
 1211 -416 l 1,1,-1
 967 -416 l 1,2,-1
 967 1003 l 2,3,4
 967 1146 967 1146 891.5 1212 c 128,-1,5
 816 1278 816 1278 683 1278 c 0,6,7
 521 1278 521 1278 392 1200 c 1,8,-1
 392 0 l 1,9,-1
 149 0 l 1,10,-1
 149 1456 l 1,11,-1
 392 1456 l 1,12,-1
 392 1398 l 1,13,14
 455 1432 455 1432 532.5 1454 c 128,-1,15
 610 1476 610 1476 698 1476 c 0,16,17
 905 1476 905 1476 1058 1356 c 128,-1,18
 1211 1236 1211 1236 1211 1003 c 2,0,-1
EndSplineSet
EndChar

StartChar: uni0221
Encoding: 545 545 228
Width: 1490
Flags: W
LayerCount: 2
Fore
SplineSet
785 1536 m 1,0,-1
 1028 1536 l 1,1,-1
 1028 92 l 1,2,3
 1088 106 1088 106 1152 106 c 0,4,5
 1291 106 1291 106 1375.5 35 c 128,-1,6
 1460 -36 1460 -36 1460 -164 c 0,7,8
 1460 -284 1460 -284 1373 -360.5 c 128,-1,9
 1286 -437 1286 -437 1132 -437 c 0,10,11
 998 -437 998 -437 922.5 -386.5 c 128,-1,12
 847 -336 847 -336 815 -259 c 1,13,-1
 666 -402 l 1,14,-1
 542 -255 l 1,15,-1
 785 -31 l 1,16,-1
 785 99 l 1,17,18
 678 -20 678 -20 505 -20 c 0,19,20
 310 -20 310 -20 195 136.5 c 128,-1,21
 80 293 80 293 80 529 c 2,22,-1
 80 550 l 2,23,24
 80 797 80 797 194.5 949.5 c 128,-1,25
 309 1102 309 1102 507 1102 c 0,26,27
 679 1102 679 1102 785 983 c 1,28,-1
 785 1536 l 1,0,-1
322 529 m 2,29,30
 322 384 322 384 379 281.5 c 128,-1,31
 436 179 436 179 567 179 c 0,32,33
 649 179 649 179 701.5 216 c 128,-1,34
 754 253 754 253 785 313 c 1,35,-1
 785 774 l 1,36,37
 754 833 754 833 701 868.5 c 128,-1,38
 648 904 648 904 569 904 c 0,39,40
 437 904 437 904 379.5 800 c 128,-1,41
 322 696 322 696 322 550 c 2,42,-1
 322 529 l 2,29,30
1028 -151 m 2,43,44
 1028 -199 1028 -199 1053.5 -230.5 c 128,-1,45
 1079 -262 1079 -262 1135 -262 c 0,46,47
 1232 -262 1232 -262 1232 -168 c 256,48,49
 1232 -74 1232 -74 1125 -74 c 0,50,51
 1078 -74 1078 -74 1028 -96 c 1,52,-1
 1028 -151 l 2,43,44
EndSplineSet
EndChar

StartChar: uni0222
Encoding: 546 546 229
Width: 1334
Flags: W
LayerCount: 2
Fore
SplineSet
1231 447 m 0,0,1
 1231 214 1231 214 1072.5 96.5 c 128,-1,2
 914 -21 914 -21 677 -21 c 2,3,-1
 656 -21 l 2,4,5
 420 -21 420 -21 261.5 96 c 128,-1,6
 103 213 103 213 103 445 c 0,7,8
 103 570 103 570 153 660 c 128,-1,9
 203 750 203 750 290 806 c 1,10,11
 204 850 204 850 153.5 925 c 128,-1,12
 103 1000 103 1000 103 1112 c 0,13,14
 103 1296 103 1296 220.5 1384 c 128,-1,15
 338 1472 338 1472 513 1476 c 1,16,-1
 513 1283 l 1,17,18
 435 1264 435 1264 395.5 1228 c 128,-1,19
 356 1192 356 1192 356 1112 c 0,20,21
 356 1001 356 1001 439 961.5 c 128,-1,22
 522 922 522 922 650 922 c 2,23,-1
 685 922 l 2,24,25
 813 922 813 922 896 961.5 c 128,-1,26
 979 1001 979 1001 979 1112 c 0,27,28
 979 1192 979 1192 939 1228 c 128,-1,29
 899 1264 899 1264 821 1283 c 1,30,-1
 821 1476 l 1,31,32
 996 1472 996 1472 1114 1384 c 128,-1,33
 1232 1296 1232 1296 1232 1112 c 0,34,35
 1232 1000 1232 1000 1181 925 c 128,-1,36
 1130 850 1130 850 1044 806 c 1,37,38
 1131 750 1131 750 1181 660.5 c 128,-1,39
 1231 571 1231 571 1231 447 c 0,0,1
677 713 m 2,40,-1
 656 713 l 2,41,42
 518 713 518 713 437 645.5 c 128,-1,43
 356 578 356 578 356 445 c 0,44,45
 356 314 356 314 437 250 c 128,-1,46
 518 186 518 186 656 186 c 2,47,-1
 677 186 l 2,48,49
 816 186 816 186 897 250 c 128,-1,50
 978 314 978 314 978 447 c 0,51,52
 978 579 978 579 897 646 c 128,-1,53
 816 713 816 713 677 713 c 2,40,-1
EndSplineSet
EndChar

StartChar: uni0223
Encoding: 547 547 230
Width: 1289
Flags: W
LayerCount: 2
Fore
SplineSet
1204 445 m 0,0,1
 1204 212 1204 212 1047.5 95.5 c 128,-1,2
 891 -21 891 -21 655 -21 c 2,3,-1
 634 -21 l 2,4,5
 398 -21 398 -21 241.5 95 c 128,-1,6
 85 211 85 211 85 443 c 0,7,8
 85 569 85 569 136 659 c 128,-1,9
 187 749 187 749 276 804 c 1,10,11
 188 851 188 851 136.5 934.5 c 128,-1,12
 85 1018 85 1018 85 1144 c 0,13,14
 85 1340 85 1340 200.5 1446 c 128,-1,15
 316 1552 316 1552 491 1557 c 1,16,-1
 491 1372 l 1,17,18
 414 1342 414 1342 371 1291 c 128,-1,19
 328 1240 328 1240 328 1142 c 0,20,21
 328 1008 328 1008 412.5 957.5 c 128,-1,22
 497 907 497 907 627 907 c 2,23,-1
 662 907 l 2,24,25
 792 907 792 907 876.5 957.5 c 128,-1,26
 961 1008 961 1008 961 1142 c 0,27,28
 961 1240 961 1240 918.5 1291 c 128,-1,29
 876 1342 876 1342 799 1372 c 1,30,-1
 799 1557 l 1,31,32
 974 1552 974 1552 1089 1446 c 128,-1,33
 1204 1340 1204 1340 1204 1144 c 0,34,35
 1204 1018 1204 1018 1152.5 934.5 c 128,-1,36
 1101 851 1101 851 1013 804 c 1,37,38
 1102 749 1102 749 1153 660 c 128,-1,39
 1204 571 1204 571 1204 445 c 0,0,1
655 712 m 2,40,-1
 634 712 l 2,41,42
 494 712 494 712 411 643.5 c 128,-1,43
 328 575 328 575 328 443 c 0,44,45
 328 312 328 312 411 243 c 128,-1,46
 494 174 494 174 634 174 c 2,47,-1
 655 174 l 2,48,49
 795 174 795 174 878 243 c 128,-1,50
 961 312 961 312 961 445 c 0,51,52
 961 576 961 576 878 644 c 128,-1,53
 795 712 795 712 655 712 c 2,40,-1
EndSplineSet
EndChar

StartChar: uni0224
Encoding: 548 548 231
Width: 1284
Flags: W
LayerCount: 2
Fore
SplineSet
86 1253 m 1,0,-1
 86 1456 l 1,1,-1
 1140 1456 l 1,2,-1
 1140 1296 l 1,3,-1
 386 202 l 1,4,-1
 878 202 l 2,5,6
 1060 202 1060 202 1156 115.5 c 128,-1,7
 1252 29 1252 29 1252 -129 c 0,8,9
 1252 -197 1252 -197 1235 -259 c 1,10,-1
 1034 -259 l 1,11,12
 1043 -222 1043 -222 1043 -184 c 0,13,14
 1043 -108 1043 -108 1010.5 -54 c 128,-1,15
 978 0 978 0 878 0 c 2,16,-1
 80 0 l 1,17,-1
 80 164 l 1,18,-1
 834 1253 l 1,19,-1
 86 1253 l 1,0,-1
EndSplineSet
EndChar

StartChar: uni0225
Encoding: 549 549 232
Width: 1101
Flags: W
LayerCount: 2
Fore
SplineSet
939 929 m 1,0,-1
 385 195 l 1,1,-1
 687 195 l 2,2,3
 1061 195 1061 195 1061 -109 c 0,4,5
 1061 -179 1061 -179 1044 -239 c 1,6,-1
 853 -239 l 1,7,8
 861 -207 861 -207 861 -165 c 0,9,10
 861 -94 861 -94 824.5 -47 c 128,-1,11
 788 0 788 0 687 0 c 2,12,-1
 82 0 l 1,13,-1
 82 159 l 1,14,-1
 632 886 l 1,15,-1
 93 886 l 1,16,-1
 93 1082 l 1,17,-1
 939 1082 l 1,18,-1
 939 929 l 1,0,-1
EndSplineSet
EndChar

StartChar: uni0234
Encoding: 564 564 233
Width: 968
Flags: W
LayerCount: 2
Fore
SplineSet
263 1536 m 1,0,-1
 506 1536 l 1,1,-1
 506 92 l 1,2,3
 566 106 566 106 631 106 c 0,4,5
 769 106 769 106 853.5 35 c 128,-1,6
 938 -36 938 -36 938 -164 c 0,7,8
 938 -284 938 -284 851.5 -360.5 c 128,-1,9
 765 -437 765 -437 611 -437 c 0,10,11
 478 -437 478 -437 402 -387 c 128,-1,12
 326 -337 326 -337 293 -259 c 1,13,-1
 144 -402 l 1,14,-1
 20 -255 l 1,15,-1
 263 -32 l 1,16,-1
 263 1536 l 1,0,-1
506 -151 m 2,17,18
 506 -199 506 -199 532 -230.5 c 128,-1,19
 558 -262 558 -262 614 -262 c 0,20,21
 655 -262 655 -262 683 -237 c 128,-1,22
 711 -212 711 -212 711 -168 c 0,23,24
 711 -74 711 -74 604 -74 c 0,25,26
 556 -74 556 -74 506 -97 c 1,27,-1
 506 -151 l 2,17,18
EndSplineSet
EndChar

StartChar: uni0235
Encoding: 565 565 234
Width: 1479
Flags: W
LayerCount: 2
Fore
SplineSet
672 1102 m 0,0,1
 829 1102 829 1102 923 1011 c 128,-1,2
 1017 920 1017 920 1017 700 c 2,3,-1
 1017 92 l 1,4,5
 1077 106 1077 106 1142 106 c 0,6,7
 1280 106 1280 106 1364.5 35 c 128,-1,8
 1449 -36 1449 -36 1449 -164 c 0,9,10
 1449 -284 1449 -284 1362.5 -360.5 c 128,-1,11
 1276 -437 1276 -437 1122 -437 c 0,12,13
 988 -437 988 -437 912.5 -386.5 c 128,-1,14
 837 -336 837 -336 804 -258 c 1,15,-1
 655 -402 l 1,16,-1
 531 -255 l 1,17,-1
 774 -32 l 1,18,-1
 774 702 l 2,19,20
 774 814 774 814 725.5 859 c 128,-1,21
 677 904 677 904 583 904 c 0,22,23
 438 904 438 904 365 772 c 1,24,-1
 365 0 l 1,25,-1
 122 0 l 1,26,-1
 122 1082 l 1,27,-1
 351 1082 l 1,28,-1
 359 958 l 1,29,30
 478 1102 478 1102 672 1102 c 0,0,1
1017 -151 m 2,31,32
 1017 -199 1017 -199 1043 -230.5 c 128,-1,33
 1069 -262 1069 -262 1125 -262 c 0,34,35
 1166 -262 1166 -262 1194 -237 c 128,-1,36
 1222 -212 1222 -212 1222 -168 c 0,37,38
 1222 -74 1222 -74 1115 -74 c 0,39,40
 1067 -74 1067 -74 1017 -97 c 1,41,-1
 1017 -151 l 2,31,32
EndSplineSet
EndChar

StartChar: uni0236
Encoding: 566 566 235
Width: 968
Flags: W
LayerCount: 2
Fore
SplineSet
938 252 m 0,0,1
 938 132 938 132 851.5 56 c 128,-1,2
 765 -20 765 -20 611 -20 c 0,3,4
 478 -20 478 -20 402 30 c 128,-1,5
 326 80 326 80 293 158 c 1,6,-1
 144 15 l 1,7,-1
 20 161 l 1,8,-1
 263 384 l 1,9,-1
 263 903 l 1,10,-1
 85 903 l 1,11,-1
 85 1082 l 1,12,-1
 263 1082 l 1,13,-1
 263 1345 l 1,14,-1
 506 1345 l 1,15,-1
 506 1082 l 1,16,-1
 697 1082 l 1,17,-1
 697 903 l 1,18,-1
 506 903 l 1,19,-1
 506 508 l 1,20,21
 569 523 569 523 631 523 c 0,22,23
 769 523 769 523 853.5 451.5 c 128,-1,24
 938 380 938 380 938 252 c 0,0,1
506 266 m 2,25,26
 506 155 506 155 614 155 c 0,27,28
 655 155 655 155 683 180.5 c 128,-1,29
 711 206 711 206 711 249 c 0,30,31
 711 343 711 343 604 343 c 0,32,33
 556 343 556 343 506 320 c 1,34,-1
 506 266 l 2,25,26
EndSplineSet
EndChar

StartChar: uni0237
Encoding: 567 567 236
Width: 551
GlyphClass: 2
Flags: W
AnchorPoint: "Anchor-5" 551 1256 basechar 0
AnchorPoint: "Anchor-0" 273 1256 basechar 0
LayerCount: 2
Fore
SplineSet
161 1082 m 1,0,-1
 404 1082 l 1,1,-1
 404 -63 l 2,2,3
 404 -244 404 -244 310.5 -340.5 c 128,-1,4
 217 -437 217 -437 52 -437 c 0,5,6
 -17 -437 -17 -437 -75 -420 c 1,7,-1
 -61 -229 l 1,8,9
 -43 -235 -43 -235 -12.5 -238.5 c 128,-1,10
 18 -242 18 -242 38 -242 c 0,11,12
 161 -242 161 -242 161 -63 c 2,13,-1
 161 1082 l 1,0,-1
EndSplineSet
EndChar

StartChar: uni0238
Encoding: 568 568 237
Width: 1846
Flags: W
LayerCount: 2
Fore
SplineSet
1750 530 m 2,0,1
 1750 291 1750 291 1642.5 135.5 c 128,-1,2
 1535 -20 1535 -20 1329 -20 c 0,3,4
 1149 -20 1149 -20 1043 104 c 1,5,-1
 1043 0 l 1,6,-1
 823 0 l 1,7,-1
 811 112 l 1,8,9
 703 -20 703 -20 521 -20 c 0,10,11
 325 -20 325 -20 210.5 136.5 c 128,-1,12
 96 293 96 293 96 529 c 2,13,-1
 96 550 l 2,14,15
 96 797 96 797 210.5 949.5 c 128,-1,16
 325 1102 325 1102 523 1102 c 0,17,18
 694 1102 694 1102 800 984 c 1,19,-1
 800 1536 l 1,20,-1
 1043 1536 l 1,21,-1
 1043 978 l 1,22,23
 1149 1102 1149 1102 1327 1102 c 0,24,25
 1536 1102 1536 1102 1643 948.5 c 128,-1,26
 1750 795 1750 795 1750 551 c 2,27,-1
 1750 530 l 2,0,1
1265 904 m 0,28,29
 1180 904 1180 904 1126.5 865.5 c 128,-1,30
 1073 827 1073 827 1043 764 c 1,31,-1
 1043 320 l 1,32,33
 1073 258 1073 258 1127 218.5 c 128,-1,34
 1181 179 1181 179 1267 179 c 0,35,36
 1402 179 1402 179 1454.5 280.5 c 128,-1,37
 1507 382 1507 382 1507 530 c 2,38,-1
 1507 551 l 2,39,40
 1507 694 1507 694 1455.5 799 c 128,-1,41
 1404 904 1404 904 1265 904 c 0,28,29
338 529 m 2,42,43
 338 384 338 384 395 281.5 c 128,-1,44
 452 179 452 179 583 179 c 0,45,46
 664 179 664 179 716.5 215.5 c 128,-1,47
 769 252 769 252 800 311 c 1,48,-1
 800 776 l 1,49,50
 769 835 769 835 716 869.5 c 128,-1,51
 663 904 663 904 585 904 c 0,52,53
 453 904 453 904 395.5 800 c 128,-1,54
 338 696 338 696 338 550 c 2,55,-1
 338 529 l 2,42,43
EndSplineSet
EndChar

StartChar: uni0239
Encoding: 569 569 238
Width: 1813
Flags: W
LayerCount: 2
Fore
SplineSet
1312 -20 m 0,0,1
 1135 -20 1135 -20 1027 98 c 1,2,-1
 1027 -416 l 1,3,-1
 784 -416 l 1,4,-1
 784 93 l 1,5,6
 678 -20 678 -20 508 -20 c 0,7,8
 306 -20 306 -20 193 137 c 128,-1,9
 80 294 80 294 80 530 c 2,10,-1
 80 551 l 2,11,12
 80 798 80 798 192 950 c 128,-1,13
 304 1102 304 1102 510 1102 c 0,14,15
 690 1102 690 1102 797 976 c 1,16,-1
 810 1082 l 1,17,-1
 1008 1082 l 1,18,-1
 1018 973 l 1,19,20
 1127 1102 1127 1102 1310 1102 c 0,21,22
 1516 1102 1516 1102 1624.5 950 c 128,-1,23
 1733 798 1733 798 1733 551 c 2,24,-1
 1733 530 l 2,25,26
 1733 294 1733 294 1624 137 c 128,-1,27
 1515 -20 1515 -20 1312 -20 c 0,0,1
322 530 m 2,28,29
 322 385 322 385 380 280 c 128,-1,30
 438 175 438 175 569 175 c 0,31,32
 649 175 649 175 701 209 c 128,-1,33
 753 243 753 243 784 299 c 1,34,-1
 784 789 l 1,35,36
 752 843 752 843 700 875 c 128,-1,37
 648 907 648 907 571 907 c 0,38,39
 440 907 440 907 381 801.5 c 128,-1,40
 322 696 322 696 322 551 c 2,41,-1
 322 530 l 2,28,29
1242 904 m 0,42,43
 1162 904 1162 904 1109.5 870.5 c 128,-1,44
 1057 837 1057 837 1027 779 c 1,45,-1
 1027 302 l 1,46,47
 1057 245 1057 245 1109 210 c 128,-1,48
 1161 175 1161 175 1244 175 c 0,49,50
 1374 175 1374 175 1432 280.5 c 128,-1,51
 1490 386 1490 386 1490 530 c 2,52,-1
 1490 551 l 2,53,54
 1490 697 1490 697 1431.5 800.5 c 128,-1,55
 1373 904 1373 904 1242 904 c 0,42,43
EndSplineSet
EndChar

StartChar: uni023A
Encoding: 570 570 239
Width: 1363
Flags: W
LayerCount: 2
Fore
SplineSet
-183 -160 m 1,0,-1
 78 159 l 1,1,-1
 568 1456 l 1,2,-1
 795 1456 l 1,3,-1
 904 1168 l 1,4,-1
 1202 1532 l 1,5,-1
 1386 1532 l 1,6,-1
 962 1014 l 1,7,-1
 1347 0 l 1,8,-1
 1083 0 l 1,9,-1
 964 340 l 1,10,-1
 411 340 l 1,11,-1
 392 317 l 1,12,-1
 282 0 l 1,13,-1
 133 0 l 1,14,-1
 2 -160 l 1,15,-1
 -183 -160 l 1,0,-1
682 1149 m 1,16,-1
 529 710 l 1,17,-1
 744 972 l 1,18,-1
 682 1149 l 1,16,-1
577 543 m 1,19,-1
 894 543 l 1,20,-1
 799 814 l 1,21,-1
 577 543 l 1,19,-1
EndSplineSet
EndChar

StartChar: uni023B
Encoding: 571 571 240
Width: 1337
Flags: W
LayerCount: 2
Fore
SplineSet
689 -20 m 0,0,1
 593 -20 593 -20 509 5 c 1,2,-1
 462 -125 l 1,3,-1
 308 -125 l 1,4,-1
 377 65 l 1,5,6
 247 148 247 148 174.5 303.5 c 128,-1,7
 102 459 102 459 102 669 c 2,8,-1
 102 787 l 2,9,10
 102 1101 102 1101 264 1288.5 c 128,-1,11
 426 1476 426 1476 701 1476 c 0,12,13
 799 1476 799 1476 882 1454 c 1,14,-1
 923 1567 l 1,15,-1
 1077 1567 l 1,16,-1
 1016 1399 l 1,17,18
 1125 1334 1125 1334 1185.5 1224 c 128,-1,19
 1246 1114 1246 1114 1260 975 c 1,20,-1
 1008 975 l 1,21,22
 992 1110 992 1110 936 1180 c 1,23,-1
 580 200 l 1,24,25
 629 184 629 184 689 184 c 0,26,27
 852 184 852 184 920.5 259 c 128,-1,28
 989 334 989 334 1007 474 c 1,29,-1
 1259 474 l 1,30,31
 1240 262 1240 262 1098.5 121 c 128,-1,32
 957 -20 957 -20 689 -20 c 0,0,1
357 669 m 2,33,34
 357 545 357 545 381 447 c 128,-1,35
 405 349 405 349 457 286 c 1,36,-1
 811 1259 l 1,37,38
 763 1272 763 1272 701 1272 c 0,39,40
 528 1272 528 1272 442.5 1145 c 128,-1,41
 357 1018 357 1018 357 789 c 2,42,-1
 357 669 l 2,33,34
EndSplineSet
EndChar

StartChar: uni023C
Encoding: 572 572 241
Width: 1073
Flags: W
LayerCount: 2
Fore
SplineSet
572 -20 m 0,0,1
 486 -20 486 -20 412 2 c 1,2,-1
 254 -416 l 1,3,-1
 100 -416 l 1,4,-1
 282 65 l 1,5,6
 180 138 180 138 130 259 c 128,-1,7
 80 380 80 380 80 523 c 2,8,-1
 80 559 l 2,9,10
 80 781 80 781 201.5 941.5 c 128,-1,11
 323 1102 323 1102 572 1102 c 0,12,13
 623 1102 623 1102 670 1094 c 1,14,-1
 807 1456 l 1,15,-1
 961 1456 l 1,16,-1
 806 1047 l 1,17,18
 1007 939 1007 939 1013 695 c 1,19,-1
 785 695 l 1,20,21
 780 782 780 782 728 840 c 1,22,-1
 482 189 l 1,23,24
 521 175 521 175 570 175 c 0,25,26
 658 175 658 175 719 226.5 c 128,-1,27
 780 278 780 278 785 358 c 1,28,-1
 1013 358 l 1,29,30
 1008 201 1008 201 880.5 90.5 c 128,-1,31
 753 -20 753 -20 572 -20 c 0,0,1
322 523 m 2,32,33
 322 460 322 460 332 399.5 c 128,-1,34
 342 339 342 339 367 291 c 1,35,-1
 599 905 l 1,36,37
 584 907 584 907 569 907 c 0,38,39
 421 907 421 907 371.5 797.5 c 128,-1,40
 322 688 322 688 322 559 c 2,41,-1
 322 523 l 2,32,33
EndSplineSet
EndChar

StartChar: uni023E
Encoding: 574 574 243
Width: 1244
Flags: W
LayerCount: 2
Fore
SplineSet
45 1253 m 1,0,-1
 45 1456 l 1,1,-1
 973 1456 l 1,2,-1
 1030 1567 l 1,3,-1
 1189 1567 l 1,4,-1
 1132 1456 l 1,5,-1
 1200 1456 l 1,6,-1
 1200 1253 l 1,7,-1
 1028 1253 l 1,8,-1
 747 706 l 1,9,-1
 747 0 l 1,10,-1
 495 0 l 1,11,-1
 495 216 l 1,12,-1
 320 -125 l 1,13,-1
 160 -125 l 1,14,-1
 495 527 l 1,15,-1
 495 1253 l 1,16,-1
 45 1253 l 1,0,-1
747 1253 m 1,17,-1
 747 1017 l 1,18,-1
 869 1253 l 1,19,-1
 747 1253 l 1,17,-1
EndSplineSet
EndChar

StartChar: uni023F
Encoding: 575 575 244
Width: 1054
Flags: W
LayerCount: 2
Fore
SplineSet
730 294 m 0,0,1
 730 351 730 351 683.5 387.5 c 128,-1,2
 637 424 637 424 502 453 c 0,3,4
 334 489 334 489 222 561 c 128,-1,5
 110 633 110 633 110 774 c 0,6,7
 110 907 110 907 222.5 1004.5 c 128,-1,8
 335 1102 335 1102 528 1102 c 0,9,10
 730 1102 730 1102 845.5 1003 c 128,-1,11
 961 904 961 904 961 758 c 1,12,-1
 718 758 l 1,13,14
 718 821 718 821 670 870.5 c 128,-1,15
 622 920 622 920 527 920 c 0,16,17
 435 920 435 920 391 879 c 128,-1,18
 347 838 347 838 347 784 c 0,19,20
 347 710 347 710 420 682.5 c 128,-1,21
 493 655 493 655 585 635 c 0,22,23
 766 596 766 596 867.5 521 c 128,-1,24
 969 446 969 446 969 308 c 0,25,26
 969 164 969 164 849.5 72 c 128,-1,27
 730 -20 730 -20 531 -20 c 0,28,29
 478 -20 478 -20 430 -12 c 1,30,31
 490 -127 490 -127 530.5 -189 c 128,-1,32
 571 -251 571 -251 632 -251 c 0,33,34
 674 -251 674 -251 714.5 -229.5 c 128,-1,35
 755 -208 755 -208 782 -184 c 1,36,-1
 863 -324 l 1,37,38
 822 -363 822 -363 761 -400 c 128,-1,39
 700 -437 700 -437 626 -437 c 0,40,41
 514 -437 514 -437 440 -365 c 128,-1,42
 366 -293 366 -293 305 -183 c 2,43,-1
 73 235 l 1,44,-1
 265 329 l 1,45,46
 311 236 311 236 381.5 199 c 128,-1,47
 452 162 452 162 534 162 c 0,48,49
 630 162 630 162 680 199 c 128,-1,50
 730 236 730 236 730 294 c 0,0,1
EndSplineSet
EndChar

StartChar: uni0240
Encoding: 576 576 245
Width: 1118
Flags: W
LayerCount: 2
Fore
SplineSet
93 886 m 1,0,-1
 93 1082 l 1,1,-1
 939 1082 l 1,2,-1
 939 929 l 1,3,-1
 385 195 l 1,4,-1
 452 195 l 2,5,6
 580 195 580 195 657 127.5 c 128,-1,7
 734 60 734 60 783.5 -28 c 128,-1,8
 833 -116 833 -116 876.5 -183.5 c 128,-1,9
 920 -251 920 -251 982 -251 c 0,10,11
 1025 -251 1025 -251 1062.5 -229 c 128,-1,12
 1100 -207 1100 -207 1126 -184 c 1,13,-1
 1208 -324 l 1,14,15
 1168 -363 1168 -363 1104 -400 c 128,-1,16
 1040 -437 1040 -437 963 -437 c 0,17,18
 868 -437 868 -437 808.5 -393 c 128,-1,19
 749 -349 749 -349 707 -284 c 128,-1,20
 665 -219 665 -219 623.5 -153.5 c 128,-1,21
 582 -88 582 -88 524.5 -44 c 128,-1,22
 467 0 467 0 375 0 c 2,23,-1
 82 0 l 1,24,-1
 82 159 l 1,25,-1
 632 886 l 1,26,-1
 93 886 l 1,0,-1
EndSplineSet
EndChar

StartChar: uni0241
Encoding: 577 577 246
Width: 1095
Flags: W
LayerCount: 2
Fore
SplineSet
394 0 m 1,0,-1
 394 478 l 1,1,-1
 509 478 l 2,2,3
 659 478 659 478 707.5 581 c 128,-1,4
 756 684 756 684 756 812 c 2,5,-1
 756 933 l 2,6,7
 756 1058 756 1058 707 1162.5 c 128,-1,8
 658 1267 658 1267 510 1267 c 0,9,10
 411 1267 411 1267 355 1208 c 128,-1,11
 299 1149 299 1149 294 1055 c 1,12,-1
 55 1055 l 1,13,14
 60 1242 60 1242 185 1359 c 128,-1,15
 310 1476 310 1476 507 1476 c 0,16,17
 756 1476 756 1476 882.5 1315.5 c 128,-1,18
 1009 1155 1009 1155 1009 933 c 2,19,-1
 1009 812 l 2,20,21
 1009 624 1009 624 918 477 c 128,-1,22
 827 330 827 330 646 285 c 1,23,-1
 646 0 l 1,24,-1
 394 0 l 1,0,-1
EndSplineSet
EndChar

StartChar: uni0242
Encoding: 578 578 247
Width: 1010
Flags: W
LayerCount: 2
Fore
SplineSet
390 0 m 1,0,-1
 390 465 l 1,1,-1
 492 465 l 2,2,3
 606 465 606 465 648 530 c 128,-1,4
 690 595 690 595 690 687 c 0,5,6
 690 776 690 776 648 841.5 c 128,-1,7
 606 907 606 907 494 907 c 0,8,9
 414 907 414 907 366 847.5 c 128,-1,10
 318 788 318 788 318 695 c 1,11,-1
 76 695 l 1,12,13
 76 876 76 876 193 989 c 128,-1,14
 310 1102 310 1102 494 1102 c 0,15,16
 713 1102 713 1102 822.5 989 c 128,-1,17
 932 876 932 876 932 686 c 0,18,19
 932 546 932 546 858.5 450.5 c 128,-1,20
 785 355 785 355 633 330 c 1,21,-1
 633 0 l 1,22,-1
 390 0 l 1,0,-1
EndSplineSet
EndChar

StartChar: uni0244
Encoding: 580 580 249
Width: 1603
GlyphClass: 2
Flags: W
AnchorPoint: "Anchor-5" 1603 1600 basechar 0
AnchorPoint: "Anchor-1" 802 0 basechar 0
AnchorPoint: "Anchor-0" 802 1600 basechar 0
LayerCount: 2
Fore
SplineSet
1348 483 m 2,0,1
 1348 233 1348 233 1189 106.5 c 128,-1,2
 1030 -20 1030 -20 803 -20 c 0,3,4
 570 -20 570 -20 415 106.5 c 128,-1,5
 260 233 260 233 260 483 c 2,6,-1
 260 664 l 1,7,-1
 34 664 l 1,8,-1
 34 835 l 1,9,-1
 260 835 l 1,10,-1
 260 1456 l 1,11,-1
 512 1456 l 1,12,-1
 512 835 l 1,13,-1
 1095 835 l 1,14,-1
 1095 1456 l 1,15,-1
 1348 1456 l 1,16,-1
 1348 835 l 1,17,-1
 1569 835 l 1,18,-1
 1569 664 l 1,19,-1
 1348 664 l 1,20,-1
 1348 483 l 2,0,1
512 483 m 2,21,22
 512 327 512 327 591 254.5 c 128,-1,23
 670 182 670 182 803 182 c 0,24,25
 938 182 938 182 1016.5 254.5 c 128,-1,26
 1095 327 1095 327 1095 483 c 2,27,-1
 1095 664 l 1,28,-1
 512 664 l 1,29,-1
 512 483 l 2,21,22
EndSplineSet
EndChar

StartChar: uni0245
Encoding: 581 581 250
Width: 1326
Flags: W
LayerCount: 2
Fore
SplineSet
18 0 m 1,0,-1
 540 1456 l 1,1,-1
 784 1456 l 1,2,-1
 1308 0 l 1,3,-1
 1031 0 l 1,4,-1
 661 1138 l 1,5,-1
 295 0 l 1,6,-1
 18 0 l 1,0,-1
EndSplineSet
EndChar

